<svg width="308" height="57" viewBox="0 0 308 57" fill="none" xmlns="http://www.w3.org/2000/svg">
<g clip-path="url(#clip0_2368_47)">
<path d="M0.879883 50.24C0.879883 25.544 32.0559 34.256 32.0559 17.624C32.0559 12.368 29.1759 9.848 23.6319 9.848C20.6799 9.848 18.5199 10.352 16.9359 11.72C15.0639 13.376 14.1279 16.4 14.0559 21.368H1.16788C1.16788 5.96 9.08788 0.199997 23.4879 0.199997C37.6719 0.199997 45.0159 5.672 45.0159 17.48C45.0159 39.296 18.2319 35.192 12.6159 45.416L12.5439 46.136C15.2799 45.992 18.8079 45.848 22.9119 45.848C31.1919 45.848 37.5279 45.704 44.8719 45.488V56H0.879883V50.24ZM74.2687 56.936C59.3647 56.936 51.4447 51.248 51.4447 36.56H64.1887C64.1887 44.12 67.2127 47.288 74.1247 47.288C77.5087 47.288 80.1727 46.496 81.9007 44.768C83.4127 43.184 84.3487 40.736 84.3487 37.424C84.3487 30.584 80.6767 27.488 74.3407 27.488C69.5167 27.488 66.2047 28.496 62.3887 31.736L52.6687 30.584L53.7487 1.064H94.5727V11.36C85.2127 11.072 74.9167 11.072 64.5487 11.072L64.0447 23.672L64.8367 23.816C69.0127 20.432 72.7567 19.064 78.5887 19.064C90.5407 19.064 97.3087 25.184 97.3087 37.64C97.3087 50.168 88.8127 56.936 74.2687 56.936ZM142.907 56.936C127.643 56.936 119.075 47.72 119.075 28.568C119.075 9.344 127.643 0.199997 142.907 0.199997C157.955 0.199997 166.667 9.344 166.667 28.568C166.667 47.72 157.955 56.936 142.907 56.936ZM142.907 47.288C146.579 47.288 149.027 45.704 151.043 42.392C152.843 39.368 153.779 34.832 153.779 28.568C153.779 15.248 149.603 9.848 142.907 9.848C139.091 9.848 136.643 11.288 134.627 14.744C132.899 17.696 131.963 22.232 131.963 28.568C131.963 41.816 136.067 47.288 142.907 47.288ZM199.017 56.936C183.753 56.936 175.185 47.72 175.185 28.568C175.185 9.344 183.753 0.199997 199.017 0.199997C214.065 0.199997 222.777 9.344 222.777 28.568C222.777 47.72 214.065 56.936 199.017 56.936ZM199.017 47.288C202.689 47.288 205.137 45.704 207.153 42.392C208.953 39.368 209.889 34.832 209.889 28.568C209.889 15.248 205.713 9.848 199.017 9.848C195.201 9.848 192.753 11.288 190.737 14.744C189.009 17.696 188.073 22.232 188.073 28.568C188.073 41.816 192.177 47.288 199.017 47.288ZM255.126 56.936C239.862 56.936 231.294 47.72 231.294 28.568C231.294 9.344 239.862 0.199997 255.126 0.199997C270.174 0.199997 278.886 9.344 278.886 28.568C278.886 47.72 270.174 56.936 255.126 56.936ZM255.126 47.288C258.798 47.288 261.246 45.704 263.262 42.392C265.062 39.368 265.998 34.832 265.998 28.568C265.998 15.248 261.822 9.848 255.126 9.848C251.31 9.848 248.862 11.288 246.846 14.744C245.118 17.696 244.182 22.232 244.182 28.568C244.182 41.816 248.286 47.288 255.126 47.288ZM291.811 43.184V34.832H283.387V27.92H291.811V19.496H298.723V27.92H307.075V34.832H298.723V43.184H291.811Z" fill="white"/>
</g>
<defs>
<clipPath id="clip0_2368_47">
<rect width="308" height="57" fill="white"/>
</clipPath>
</defs>
</svg>
