<svg width="94" height="40" viewBox="0 0 94 40" fill="none" xmlns="http://www.w3.org/2000/svg">
<path fill-rule="evenodd" clip-rule="evenodd" d="M32.2152 4.22579C29.2281 1.89171 25.64 0.458203 21.8703 0.0928343C18.1006 -0.272534 14.305 0.445329 10.9272 2.16251C7.54939 3.8797 4.72895 6.52526 2.79552 9.78996C0.862099 13.0547 -0.104419 16.8036 0.0089415 20.5986C0.122302 24.3936 1.31086 28.0779 3.43568 31.2208C5.56051 34.3637 8.53381 36.8353 12.0081 38.3468C15.4823 39.8583 19.3139 40.3472 23.0551 39.7563C26.7962 39.1655 30.2924 37.5193 33.1348 35.0102H18.6929L18.6487 30.7585C27.3521 23.1739 32.6868 18.0535 32.6868 13.0897C32.6868 11.249 31.9853 8.92368 28.8376 8.92368C26.3441 8.92368 23.9421 10.3715 24.3783 16.4226H19.303C18.0356 9.40824 21.8406 3.84169 29.0969 3.84169C30.1485 3.83474 31.1966 3.96384 32.2152 4.22579ZM39.9313 20.0006C39.9265 17.6146 39.4943 15.2487 38.6551 13.0159C38.4399 20.1809 31.1777 25.7208 26.913 29.3994H37.5882C39.129 26.5076 39.9339 23.2791 39.9313 20.0006Z" fill="#A3C400"/>
<path fill-rule="evenodd" clip-rule="evenodd" d="M72.2398 33.2699H67.4681V4.96741H72.2398V33.2699H67.4681V4.96741H72.2398V33.2699ZM93.546 25.8331C93.7493 14.7532 81.0847 18.4317 81.2055 12.2417C81.2439 10.0612 82.6556 8.64298 84.9545 8.64298C87.4155 8.64298 88.8686 10.0996 88.8273 13.9023H93.4605C93.5813 10.466 92.7738 4.60103 85.1107 4.60103C80.3508 4.60103 76.4397 6.94702 76.3601 12.162C76.1568 22.7987 88.901 19.3181 88.7006 25.7533C88.618 28.383 86.7229 29.553 84.5743 29.553C82.075 29.553 80.059 28.0993 80.4481 23.7324H75.7766C75.252 29.5146 77.7925 33.6393 84.5272 33.6393C90.2184 33.6363 93.4605 30.4808 93.5342 25.8331H93.546ZM58.4346 13.8254H63.1503C63.3124 10.2237 62.101 4.52421 54.3083 4.52421C48.5817 4.52421 44.4289 7.96046 44.4289 15.1166C44.4289 16.0857 44.4672 21.0998 44.4672 24.214C44.4672 31.9788 49.8313 33.6688 54.3496 33.6688C57.0523 33.6688 60.9634 33.0779 62.7789 31.0806V18.7154H53.9163V23.2035H57.8716V28.6607C54.886 29.6712 49.4393 30.076 49.4393 23.2005V15.1166C49.4393 10.3064 51.6587 8.64594 54.1167 8.64594C56.6603 8.64594 58.4346 9.94303 58.4346 13.8254ZM72.228 4.9615H67.4681V33.2699H72.2398L72.228 4.9615Z" fill="#3B3B3B"/>
</svg>
