<svg width="152" height="152" viewBox="0 0 152 152" fill="none" xmlns="http://www.w3.org/2000/svg">
<circle cx="75.9999" cy="76" r="65" transform="rotate(-10.1884 75.9999 76)" fill="#E35473"/>
<path d="M105.631 93.2915C103.583 93.6594 101.939 92.8779 101.543 90.6732C101.15 88.4882 102.134 86.95 105.539 86.338C106.504 86.1647 107.479 86.0504 108.434 85.9396L108.339 85.4081C108.112 84.1483 107.592 83.2868 106.175 83.5415C105.427 83.676 105.015 83.8719 104.746 84.1844C104.444 84.5433 104.316 85.0744 104.326 85.8043L100.848 85.9009C100.862 83.1551 102.292 81.4961 105.677 80.8876C109.378 80.2226 111.234 81.6163 111.814 84.8445L112.511 88.7224C112.709 89.8248 112.861 90.6712 113.084 91.6877L109.541 92.3245L109.444 89.8628L109.228 89.9018C108.677 91.5857 107.599 92.9377 105.631 93.2915ZM106.331 90.4021C107.453 90.2005 108.193 89.4578 108.826 88.003L108.755 87.6093C107.842 87.7326 107.189 87.8297 106.382 87.9747C105.122 88.2012 104.663 88.5884 104.816 89.4348C104.975 90.3206 105.563 90.5401 106.331 90.4021Z" fill="white"/>
<path d="M88.739 98.3796C88.4241 96.6277 88.132 95.1155 87.8041 93.6301L89.0639 93.4037C89.576 92.2957 89.5944 91.1544 89.3185 89.619C88.9576 87.6112 88.6691 86.1187 88.2775 84.2789L96.9978 82.7117C97.2182 84.2774 97.5967 86.3837 97.9116 88.1356L98.5716 91.695L99.9495 91.4474C100.216 93.269 100.474 94.7059 100.747 96.2216L97.8923 96.7346L97.4693 94.4941L91.1899 95.6226L91.5932 97.8667L88.739 98.3796ZM95.2449 92.2929L94.6738 89.002L94.0845 85.8363L91.1909 86.3564L91.7463 89.4468C92.0223 90.9822 91.9614 91.8873 91.2903 92.902L91.308 93.0004L95.2449 92.2929Z" fill="white"/>
<path d="M81.2468 97.6535C77.487 98.3292 75.0325 96.657 74.325 92.72C73.6139 88.7634 75.3361 86.3609 79.0958 85.6852C82.8556 85.0095 85.3066 86.662 86.0176 90.6186C86.7252 94.5556 85.0065 96.9778 81.2468 97.6535ZM80.7692 94.996C81.5959 94.8475 82.1208 94.489 82.3958 93.8706C82.6707 93.2522 82.6993 92.3936 82.4941 91.2519C82.0731 88.9094 81.1644 88.0364 79.5699 88.3229C78.7628 88.468 78.2218 88.8497 77.9469 89.4681C77.6719 90.0865 77.6398 90.9254 77.8485 92.0868C78.266 94.4096 79.1944 95.2791 80.7692 94.996Z" fill="white"/>
<path d="M66.4923 100.061C66.2173 98.0787 65.8599 96.0906 65.5062 94.1221C65.1524 92.1536 64.8623 90.5395 64.4263 88.5655L72.1623 87.1752L72.6399 89.8326C71.3104 90.0106 69.8305 90.2562 68.4723 90.5003C68.9368 93.4243 69.5347 96.751 70.0749 99.4175L66.4923 100.061Z" fill="white"/>
<path d="M53.3634 102.685C49.269 103.421 46.8242 102.255 46.0742 98.0817L49.5584 97.4555C49.9369 99.5617 50.9405 100.397 52.8893 100.047C53.8735 99.8703 54.5826 99.5193 54.9773 99.0013C55.336 98.5101 55.4197 97.8448 55.2817 97.0771C54.9951 95.4827 54.1041 94.7081 52.0766 95.0725L49.7144 95.497L49.4243 93.8829L53.7436 89.8757L53.7082 89.6788C51.2476 90.121 48.2788 90.6749 45.206 91.3287L44.693 88.4745L56.681 86.32L57.2895 89.7058L53.6297 93.0864L53.6687 93.3029C56.8253 92.7763 58.3827 93.9798 58.8745 96.7159C59.4299 99.8064 57.4184 101.956 53.3634 102.685Z" fill="white"/>
<path d="M101.098 65.6372C97.5546 66.274 95.6065 65.3846 95.0299 62.176L98.455 61.5604C98.6991 62.9186 99.2418 63.451 100.698 63.1892C101.348 63.0725 101.799 62.8695 102.061 62.5176C102.275 62.2354 102.329 61.8599 102.248 61.4071C102.088 60.5213 101.547 60.1106 100.15 60.3617L98.319 60.6907L98.0077 58.9585L99.9762 58.6047C101.177 58.3889 101.479 57.8064 101.348 57.078C101.206 56.2907 100.645 55.8834 99.3462 56.1169C98.7556 56.2231 98.3206 56.4029 98.0713 56.7118C97.8059 57.044 97.7368 57.5644 97.8394 58.1353L94.5758 58.5186C94.1601 55.3014 95.8761 54.2208 98.9469 53.669C102.766 52.9826 104.236 54.0393 104.568 55.8896C104.834 57.366 104.216 58.4523 102.131 58.949L102.166 59.1458C104.324 58.9409 105.444 59.6337 105.742 61.2872C106.141 63.5116 104.799 64.9721 101.098 65.6372Z" fill="white"/>
<path d="M89.0357 67.805C85.3941 68.4595 82.9593 66.7837 82.2517 62.8468C81.5407 58.8902 83.2432 56.4912 86.8651 55.8403C90.4871 55.1893 92.8326 56.8202 93.6215 61.2098L85.8067 62.6143C86.2604 64.6867 87.1621 65.5204 88.5991 65.2621C89.3864 65.1206 89.9078 64.7424 90.1721 64.065C90.3088 63.695 90.3794 63.2962 90.3571 62.8329L93.7231 62.2279C93.8869 65.2872 92.2443 67.2283 89.0357 67.805ZM85.5832 60.8053L89.8976 60.0503C89.3996 58.636 88.551 58.0977 87.3502 58.3135C86.5825 58.4514 86.0451 58.8528 85.7807 59.5303C85.6566 59.8574 85.5896 60.2758 85.5832 60.8053Z" fill="white"/>
<path d="M71.195 73.4498C70.8153 70.9983 70.3625 68.4787 69.9663 66.274C69.517 63.7741 69.1243 61.5891 68.662 59.3556L72.3233 58.6976L72.3798 60.8211L72.5963 60.7822C72.9952 59.0442 73.9773 58.1768 75.7292 57.862C78.7213 57.3243 80.5029 59.0971 81.214 63.0537C81.9216 66.9906 80.8722 69.2925 77.8801 69.8302C76.1282 70.1451 74.902 69.6542 73.923 68.1639L73.7064 68.2028C74.1772 69.8048 74.3763 70.46 74.5248 71.2867L74.7972 72.8024L71.195 73.4498ZM76.0837 67.4098C76.8907 67.2648 77.4121 66.8866 77.6602 66.2324C77.9155 65.6176 77.9279 64.7822 77.7298 63.6798C77.3195 61.3964 76.4198 60.4608 74.8844 60.7368C74.0773 60.8818 73.5363 61.2635 73.2881 61.9177C73.0525 62.529 73.0401 63.3644 73.2417 64.4864C73.6521 66.7699 74.5483 67.6858 76.0837 67.4098Z" fill="white"/>
<path d="M63.3346 72.4241C59.6929 73.0785 57.2581 71.4028 56.5506 67.4659C55.8395 63.5093 57.542 61.1103 61.164 60.4594C64.7859 59.8084 67.1314 61.4393 67.9203 65.8289L60.1055 67.2334C60.5592 69.3058 61.4609 70.1395 62.8979 69.8812C63.6853 69.7397 64.2066 69.3615 64.4709 68.6841C64.6076 68.3141 64.6782 67.9153 64.6559 67.4519L68.022 66.847C68.1857 69.9063 66.5432 71.8474 63.3346 72.4241ZM59.882 65.4244L64.1965 64.6693C63.6985 63.2551 62.8498 62.7167 61.6491 62.9325C60.8814 63.0705 60.3439 63.4719 60.0796 64.1494C59.9555 64.4765 59.8884 64.8949 59.882 65.4244Z" fill="white"/>
<path d="M51.6127 74.2868L50.7761 68.7271L50.5399 68.7695C49.5691 70.2648 48.2347 71.094 46.3646 71.43C43.6875 71.9112 41.96 70.7789 41.4046 67.6884C40.927 65.031 40.5555 62.9641 40.0947 60.8523L43.697 60.2049C44.0822 62.5741 44.393 64.53 44.7079 66.2819C45.0227 68.0338 45.8088 68.5632 47.3835 68.2801C48.6237 68.0573 49.5962 67.4761 50.2759 66.6224L49.9151 64.6145C49.6568 63.1776 49.3526 61.4847 48.9134 59.2674L52.5354 58.6165C52.9256 61.127 53.3194 63.6573 53.7687 66.1572C54.218 68.6572 54.7031 71.1304 55.1953 73.6429L51.6127 74.2868Z" fill="white"/>
</svg>
