<svg width="168" height="57" viewBox="0 0 168 57" fill="none" xmlns="http://www.w3.org/2000/svg">
<path d="M8.944 43.184V34.832H0.52V27.92H8.944V19.496H15.856V27.92H24.208V34.832H15.856V43.184H8.944ZM49.0047 56.936C34.0287 56.936 26.1087 51.248 26.1087 35.984H38.8527C38.8527 43.688 41.8767 47.288 49.0047 47.288C52.6047 47.288 55.3407 46.496 57.0687 44.912C58.6527 43.4 59.3727 41.096 59.3727 38.288C59.3727 32.456 56.7087 29.144 49.2927 29.144H40.6527V23.24L58.5087 11.792V11.072C49.5087 11.072 38.6367 11.144 27.3327 11.504V1.064H71.1807V13.448L56.0607 23.096V23.888C67.5807 24.032 72.3327 29.288 72.3327 39.296C72.3327 50.6 63.8367 56.936 49.0047 56.936ZM102.618 56.936C87.3543 56.936 78.7863 47.72 78.7863 28.568C78.7863 9.344 87.3543 0.199997 102.618 0.199997C117.666 0.199997 126.378 9.344 126.378 28.568C126.378 47.72 117.666 56.936 102.618 56.936ZM102.618 47.288C106.29 47.288 108.738 45.704 110.754 42.392C112.554 39.368 113.49 34.832 113.49 28.568C113.49 15.248 109.314 9.848 102.618 9.848C98.8023 9.848 96.3543 11.288 94.3383 14.744C92.6103 17.696 91.6743 22.232 91.6743 28.568C91.6743 41.816 95.7783 47.288 102.618 47.288ZM139.113 56L153.473 25.48H159.473L145.073 56H139.113ZM138.473 42.36C133.233 42.36 130.953 39.4 130.953 33.72C130.953 27.92 133.233 25 138.473 25C143.873 25 146.153 27.8 146.153 33.72C146.153 39.52 143.873 42.36 138.473 42.36ZM139.033 38.04C139.553 38.04 140.033 37.96 140.433 37.64C140.953 36.6 141.313 35.24 141.313 33.64C141.313 30.76 140.233 29.32 138.033 29.32C137.433 29.32 136.953 29.44 136.513 29.8C136.073 30.76 135.793 32.16 135.793 33.72C135.793 36.52 136.833 38.04 139.033 38.04ZM160.073 56.48C154.713 56.48 152.433 53.68 152.433 47.76C152.433 41.96 154.713 39.12 160.073 39.12C165.313 39.12 167.633 42.08 167.633 47.76C167.633 53.56 165.313 56.48 160.073 56.48ZM160.553 52.16C161.153 52.16 161.673 52 162.033 51.68C162.473 50.72 162.793 49.32 162.793 47.76C162.793 44.96 161.753 43.44 159.553 43.44C158.993 43.44 158.473 43.56 158.153 43.84C157.633 44.84 157.273 46.24 157.273 47.84C157.273 50.72 158.353 52.16 160.553 52.16Z" fill="#242424"/>
</svg>
