<svg width="247" height="102" viewBox="0 0 247 102" fill="none" xmlns="http://www.w3.org/2000/svg">
<path d="M39.752 0.799995C66.248 0.799995 81.352 13.344 81.352 48.928C81.352 81.056 70.984 101.536 40.52 101.536C17.608 101.536 6.472 92.32 2.376 73.376L24.904 70.688C26.696 80.416 31.816 84.384 40.52 84.384C45.512 84.384 49.352 82.72 52.296 79.264C56.008 74.784 58.056 66.976 58.312 56.352H56.904C49.352 63.392 42.44 65.568 32.712 65.568C14.28 65.568 0.2 55.072 0.2 34.848C0.2 12.064 16.328 0.799995 39.752 0.799995ZM39.624 17.952C34.12 17.952 29.512 19.872 26.568 23.456C24.392 26.272 23.24 29.856 23.24 34.336C23.24 45.6 29.256 50.72 40.776 50.72C47.304 50.72 54.216 48.16 58.056 43.552V37.792C58.056 25.12 52.168 17.952 39.624 17.952ZM138.113 101.664C110.977 101.664 95.745 85.28 95.745 51.232C95.745 17.056 110.977 0.799995 138.113 0.799995C164.865 0.799995 180.353 17.056 180.353 51.232C180.353 85.28 164.865 101.664 138.113 101.664ZM138.113 84.512C144.641 84.512 148.993 81.696 152.577 75.808C155.777 70.432 157.441 62.368 157.441 51.232C157.441 27.552 150.017 17.952 138.113 17.952C131.329 17.952 126.977 20.512 123.393 26.656C120.321 31.904 118.657 39.968 118.657 51.232C118.657 74.784 125.953 84.512 138.113 84.512ZM201.244 100L224.22 51.168H233.82L210.78 100H201.244ZM200.22 78.176C191.836 78.176 188.188 73.44 188.188 64.352C188.188 55.072 191.836 50.4 200.22 50.4C208.86 50.4 212.508 54.88 212.508 64.352C212.508 73.632 208.86 78.176 200.22 78.176ZM201.116 71.264C201.948 71.264 202.716 71.136 203.356 70.624C204.188 68.96 204.764 66.784 204.764 64.224C204.764 59.616 203.036 57.312 199.516 57.312C198.556 57.312 197.788 57.504 197.084 58.08C196.38 59.616 195.932 61.856 195.932 64.352C195.932 68.832 197.596 71.264 201.116 71.264ZM234.78 100.768C226.204 100.768 222.556 96.288 222.556 86.816C222.556 77.536 226.204 72.992 234.78 72.992C243.164 72.992 246.876 77.728 246.876 86.816C246.876 96.096 243.164 100.768 234.78 100.768ZM235.548 93.856C236.508 93.856 237.34 93.6 237.916 93.088C238.62 91.552 239.132 89.312 239.132 86.816C239.132 82.336 237.468 79.904 233.948 79.904C233.052 79.904 232.22 80.096 231.708 80.544C230.876 82.144 230.3 84.384 230.3 86.944C230.3 91.552 232.028 93.856 235.548 93.856Z" fill="#23BFCF"/>
</svg>
