<svg width="215" height="67" viewBox="0 0 215 67" fill="none" xmlns="http://www.w3.org/2000/svg">
<g clip-path="url(#clip0_2368_49)">
<path d="M23.0478 0.199997C37.9518 0.199997 46.4478 7.256 46.4478 27.272C46.4478 45.344 40.6158 56.864 23.4798 56.864C10.5918 56.864 4.3278 51.68 2.0238 41.024L14.6958 39.512C15.7038 44.984 18.5838 47.216 23.4798 47.216C26.2878 47.216 28.4478 46.28 30.1038 44.336C32.1918 41.816 33.3438 37.424 33.4878 31.448H32.6958C28.4478 35.408 24.5598 36.632 19.0878 36.632C8.7198 36.632 0.799805 30.728 0.799805 19.352C0.799805 6.536 9.87181 0.199997 23.0478 0.199997ZM22.9758 9.848C19.8798 9.848 17.2878 10.928 15.6318 12.944C14.4078 14.528 13.7598 16.544 13.7598 19.064C13.7598 25.4 17.1438 28.28 23.6238 28.28C27.2958 28.28 31.1838 26.84 33.3438 24.248V21.008C33.3438 13.88 30.0318 9.848 22.9758 9.848ZM74.4462 0.199997C89.3502 0.199997 97.8462 7.256 97.8462 27.272C97.8462 45.344 92.0142 56.864 74.8782 56.864C61.9902 56.864 55.7262 51.68 53.4222 41.024L66.0942 39.512C67.1022 44.984 69.9822 47.216 74.8782 47.216C77.6862 47.216 79.8462 46.28 81.5022 44.336C83.5902 41.816 84.7422 37.424 84.8862 31.448H84.0942C79.8462 35.408 75.9582 36.632 70.4862 36.632C60.1182 36.632 52.1982 30.728 52.1982 19.352C52.1982 6.536 61.2702 0.199997 74.4462 0.199997ZM74.3742 9.848C71.2782 9.848 68.6862 10.928 67.0302 12.944C65.8062 14.528 65.1582 16.544 65.1582 19.064C65.1582 25.4 68.5422 28.28 75.0222 28.28C78.6942 28.28 82.5822 26.84 84.7422 24.248V21.008C84.7422 13.88 81.4302 9.848 74.3742 9.848ZM103.387 64.64C107.059 62.12 108.283 60.032 108.643 55.928C107.851 56.504 106.915 56.792 105.619 56.792C102.379 56.792 101.155 54.992 101.155 51.464C101.155 47.648 103.099 45.848 108.066 45.848C113.323 45.848 115.339 47.648 115.339 52.976C115.339 60.68 111.595 65.288 104.107 66.296L103.387 64.64ZM143.383 56.864C126.391 56.864 120.199 50.744 120.199 41.024C120.199 34.256 124.303 29.36 132.151 27.704V26.84C125.239 25.256 121.999 21.368 121.999 14.816C121.999 5.312 128.695 0.199997 143.383 0.199997C158.071 0.199997 164.767 5.312 164.767 14.816C164.767 21.296 161.527 25.256 154.687 26.84V27.704C162.463 29.36 166.495 34.256 166.495 41.024C166.495 50.744 160.375 56.864 143.383 56.864ZM143.383 47.288C147.703 47.288 150.583 46.28 152.167 44.624C153.391 43.328 153.895 41.672 153.895 39.728C153.895 35.192 150.655 32.24 143.383 32.24C139.063 32.24 136.255 33.104 134.599 34.832C133.375 36.128 132.871 37.784 132.871 39.728C132.871 44.264 135.679 47.288 143.383 47.288ZM143.383 23.096C146.911 23.096 149.431 22.376 150.871 21.08C152.167 19.928 152.815 18.344 152.815 16.4C152.815 12.224 149.647 9.848 143.383 9.848C139.783 9.848 137.263 10.568 135.895 11.792C134.527 13.016 133.951 14.6 133.951 16.4C133.951 20.648 136.687 23.096 143.383 23.096ZM180.542 56L197.774 19.376H204.974L187.694 56H180.542ZM179.774 39.632C173.486 39.632 170.75 36.08 170.75 29.264C170.75 22.304 173.486 18.8 179.774 18.8C186.254 18.8 188.99 22.16 188.99 29.264C188.99 36.224 186.254 39.632 179.774 39.632ZM180.446 34.448C181.07 34.448 181.646 34.352 182.126 33.968C182.75 32.72 183.182 31.088 183.182 29.168C183.182 25.712 181.886 23.984 179.246 23.984C178.526 23.984 177.95 24.128 177.422 24.56C176.894 25.712 176.558 27.392 176.558 29.264C176.558 32.624 177.806 34.448 180.446 34.448ZM205.694 56.576C199.262 56.576 196.526 53.216 196.526 46.112C196.526 39.152 199.262 35.744 205.694 35.744C211.982 35.744 214.766 39.296 214.766 46.112C214.766 53.072 211.982 56.576 205.694 56.576ZM206.27 51.392C206.99 51.392 207.614 51.2 208.046 50.816C208.574 49.664 208.958 47.984 208.958 46.112C208.958 42.752 207.71 40.928 205.07 40.928C204.398 40.928 203.774 41.072 203.39 41.408C202.766 42.608 202.334 44.288 202.334 46.208C202.334 49.664 203.63 51.392 206.27 51.392Z" fill="white"/>
</g>
<defs>
<clipPath id="clip0_2368_49">
<rect width="215" height="67" fill="white"/>
</clipPath>
</defs>
</svg>
