<svg width="215" height="67" viewBox="0 0 215 67" fill="none" xmlns="http://www.w3.org/2000/svg">
<path d="M23.048 0.199997C37.952 0.199997 46.448 7.256 46.448 27.272C46.448 45.344 40.616 56.864 23.48 56.864C10.592 56.864 4.328 51.68 2.024 41.024L14.696 39.512C15.704 44.984 18.584 47.216 23.48 47.216C26.288 47.216 28.448 46.28 30.104 44.336C32.192 41.816 33.344 37.424 33.488 31.448H32.696C28.448 35.408 24.56 36.632 19.088 36.632C8.72 36.632 0.8 30.728 0.8 19.352C0.8 6.536 9.872 0.199997 23.048 0.199997ZM22.976 9.848C19.88 9.848 17.288 10.928 15.632 12.944C14.408 14.528 13.76 16.544 13.76 19.064C13.76 25.4 17.144 28.28 23.624 28.28C27.296 28.28 31.184 26.84 33.344 24.248V21.008C33.344 13.88 30.032 9.848 22.976 9.848ZM74.4464 0.199997C89.3504 0.199997 97.8464 7.256 97.8464 27.272C97.8464 45.344 92.0144 56.864 74.8784 56.864C61.9904 56.864 55.7264 51.68 53.4224 41.024L66.0944 39.512C67.1024 44.984 69.9824 47.216 74.8784 47.216C77.6864 47.216 79.8464 46.28 81.5024 44.336C83.5904 41.816 84.7424 37.424 84.8864 31.448H84.0944C79.8464 35.408 75.9584 36.632 70.4864 36.632C60.1184 36.632 52.1984 30.728 52.1984 19.352C52.1984 6.536 61.2704 0.199997 74.4464 0.199997ZM74.3744 9.848C71.2784 9.848 68.6864 10.928 67.0304 12.944C65.8064 14.528 65.1584 16.544 65.1584 19.064C65.1584 25.4 68.5424 28.28 75.0224 28.28C78.6944 28.28 82.5824 26.84 84.7424 24.248V21.008C84.7424 13.88 81.4304 9.848 74.3744 9.848ZM103.387 64.64C107.059 62.12 108.283 60.032 108.643 55.928C107.851 56.504 106.915 56.792 105.619 56.792C102.379 56.792 101.155 54.992 101.155 51.464C101.155 47.648 103.099 45.848 108.066 45.848C113.323 45.848 115.339 47.648 115.339 52.976C115.339 60.68 111.595 65.288 104.107 66.296L103.387 64.64ZM143.383 56.864C126.391 56.864 120.199 50.744 120.199 41.024C120.199 34.256 124.303 29.36 132.151 27.704V26.84C125.239 25.256 121.999 21.368 121.999 14.816C121.999 5.312 128.695 0.199997 143.383 0.199997C158.071 0.199997 164.767 5.312 164.767 14.816C164.767 21.296 161.527 25.256 154.687 26.84V27.704C162.463 29.36 166.495 34.256 166.495 41.024C166.495 50.744 160.375 56.864 143.383 56.864ZM143.383 47.288C147.703 47.288 150.583 46.28 152.167 44.624C153.391 43.328 153.895 41.672 153.895 39.728C153.895 35.192 150.655 32.24 143.383 32.24C139.063 32.24 136.255 33.104 134.599 34.832C133.375 36.128 132.871 37.784 132.871 39.728C132.871 44.264 135.679 47.288 143.383 47.288ZM143.383 23.096C146.911 23.096 149.431 22.376 150.871 21.08C152.167 19.928 152.815 18.344 152.815 16.4C152.815 12.224 149.647 9.848 143.383 9.848C139.783 9.848 137.263 10.568 135.895 11.792C134.527 13.016 133.951 14.6 133.951 16.4C133.951 20.648 136.687 23.096 143.383 23.096ZM180.542 56L197.774 19.376H204.974L187.694 56H180.542ZM179.774 39.632C173.486 39.632 170.75 36.08 170.75 29.264C170.75 22.304 173.486 18.8 179.774 18.8C186.254 18.8 188.99 22.16 188.99 29.264C188.99 36.224 186.254 39.632 179.774 39.632ZM180.446 34.448C181.07 34.448 181.646 34.352 182.126 33.968C182.75 32.72 183.182 31.088 183.182 29.168C183.182 25.712 181.886 23.984 179.246 23.984C178.526 23.984 177.95 24.128 177.422 24.56C176.894 25.712 176.558 27.392 176.558 29.264C176.558 32.624 177.806 34.448 180.446 34.448ZM205.694 56.576C199.262 56.576 196.526 53.216 196.526 46.112C196.526 39.152 199.262 35.744 205.694 35.744C211.982 35.744 214.766 39.296 214.766 46.112C214.766 53.072 211.982 56.576 205.694 56.576ZM206.27 51.392C206.99 51.392 207.614 51.2 208.046 50.816C208.574 49.664 208.958 47.984 208.958 46.112C208.958 42.752 207.71 40.928 205.07 40.928C204.398 40.928 203.774 41.072 203.39 41.408C202.766 42.608 202.334 44.288 202.334 46.208C202.334 49.664 203.63 51.392 206.27 51.392Z" fill="#23BFCF"/>
</svg>
