<svg width="51" height="43" viewBox="0 0 51 43" fill="none" xmlns="http://www.w3.org/2000/svg">
<path fill-rule="evenodd" clip-rule="evenodd" d="M13.4211 16.125C13.4211 7.21941 20.6316 4.25607e-07 29.5263 -3.51992e-07L48.3158 -1.99462e-06C49.7982 -2.12422e-06 51 1.20323 51 2.6875C51 4.17176 49.7982 5.375 48.3158 5.375L29.5263 5.375C23.5965 5.375 18.7895 10.1879 18.7895 16.125L18.7895 37.625C18.7895 39.1093 17.5877 40.3125 16.1053 40.3125C14.6228 40.3125 13.4211 39.1093 13.4211 37.625L13.4211 16.125Z" fill="#23BFCF"/>
<path fill-rule="evenodd" clip-rule="evenodd" d="M31.4244 24.9747C32.4726 26.0242 32.4726 27.7258 31.4244 28.7754L18.0033 42.2129L14.2073 38.4122L27.6283 24.9747C28.6766 23.9251 30.3761 23.9251 31.4244 24.9747Z" fill="#23BFCF"/>
<path fill-rule="evenodd" clip-rule="evenodd" d="M18.0033 42.2129C19.0516 41.1633 19.0515 39.4617 18.0033 38.4122L4.58224 24.9747C3.53399 23.9251 1.83444 23.9251 0.78619 24.9747C-0.26206 26.0242 -0.26206 27.7258 0.786189 28.7754L14.2072 42.2129C15.2555 43.2624 16.9551 43.2624 18.0033 42.2129Z" fill="#23BFCF"/>
</svg>
