<svg width="71" height="64" viewBox="0 0 71 64" fill="none" xmlns="http://www.w3.org/2000/svg">
<g clip-path="url(#clip0_2701_168)">
<path d="M69.6834 9.50769C69.7456 9.03741 69.7069 8.55928 69.5701 8.10507C69.4332 7.65087 69.2013 7.231 68.8896 6.87336C68.578 6.51573 68.1938 6.22852 67.7625 6.03082C67.3313 5.83313 66.863 5.72948 66.3886 5.72676H62.7295C62.4307 4.1369 61.5857 2.70144 60.3407 1.66859C59.0956 0.635735 57.5288 0.0704346 55.9111 0.0704346C54.2934 0.0704346 52.7265 0.635735 51.4815 1.66859C50.2364 2.70144 49.3914 4.1369 49.0926 5.72676H36.5978C36.299 4.1369 35.454 2.70144 34.209 1.66859C32.9639 0.635735 31.3971 0.0704346 29.7794 0.0704346C28.1617 0.0704346 26.5948 0.635735 25.3498 1.66859C24.1047 2.70144 23.2597 4.1369 22.9609 5.72676H17.8803C17.1812 5.72622 16.4995 5.9454 15.9317 6.35331C15.3639 6.76122 14.9386 7.33725 14.716 7.99999L1.00645 48.6831C0.820419 49.2495 0.770759 49.8519 0.861513 50.4412C0.952267 51.0304 1.18087 51.59 1.52872 52.0742C1.87657 52.5584 2.33383 52.9537 2.8633 53.2278C3.39277 53.5019 3.97948 53.6472 4.57568 53.6517H52.1818C52.9704 53.6525 53.7393 53.4054 54.3798 52.9453C55.0203 52.4853 55.5 51.8355 55.7511 51.088L67.2686 16.912V60.2105C67.268 60.5563 67.1303 60.8877 66.8858 61.1322C66.6412 61.3768 66.3098 61.5144 65.964 61.5151H18.076C17.73 61.5147 17.3982 61.3772 17.1534 61.1327C16.9086 60.8881 16.7708 60.5565 16.7701 60.2105V56.5846C16.7701 56.2582 16.6405 55.9451 16.4097 55.7143C16.1788 55.4835 15.8658 55.3538 15.5394 55.3538C15.213 55.3538 14.8999 55.4835 14.6691 55.7143C14.4383 55.9451 14.3086 56.2582 14.3086 56.5846V60.2105C14.3099 61.2091 14.7073 62.1665 15.4136 62.8725C16.1198 63.5786 17.0773 63.9756 18.076 63.9766H65.964C66.9622 63.9753 67.9192 63.5783 68.6252 62.8725C69.3312 62.1668 69.7285 61.2099 69.7301 60.2117C69.612 59.9274 69.8705 9.74153 69.6834 9.50769ZM55.9111 2.48368C56.8795 2.48721 57.8206 2.80543 58.5925 3.39038C59.3644 3.97533 59.9252 4.79532 60.1904 5.72676H51.6317C51.8965 4.79532 52.4571 3.97525 53.2288 3.39026C54.0005 2.80527 54.9427 2.48708 55.9111 2.48368ZM29.7806 2.48368C30.749 2.48708 31.69 2.80527 32.4617 3.39026C33.2334 3.97525 33.7939 4.79532 34.0588 5.72676H25.5012C25.7665 4.79532 26.3273 3.97533 27.0992 3.39038C27.871 2.80543 28.8121 2.48721 29.7806 2.48368ZM67.2206 9.34645L64.1843 18.3569L27.5271 17.6246C27.2006 17.6182 26.8851 17.7418 26.6498 17.9681C26.4144 18.1944 26.2787 18.505 26.2723 18.8314C26.2659 19.1578 26.3895 19.4734 26.6158 19.7087C26.8421 19.944 27.1526 20.0798 27.4791 20.0861L63.3609 20.8037L53.4188 50.3028C53.3314 50.5615 53.1651 50.7864 52.9431 50.9456C52.7212 51.1048 52.4549 51.1903 52.1818 51.1901H4.57568C4.36913 51.1884 4.16591 51.138 3.98252 51.0429C3.79913 50.9479 3.64074 50.8109 3.52023 50.6431C3.39972 50.4754 3.32048 50.2816 3.28895 50.0774C3.25742 49.8733 3.27448 49.6646 3.33876 49.4683L13.3351 19.808L22.556 19.9877C22.8824 19.9941 23.198 19.8705 23.4333 19.6442C23.6686 19.4179 23.8044 19.1073 23.8108 18.7809C23.8171 18.4545 23.6936 18.1389 23.4672 17.9036C23.2409 17.6683 22.9304 17.5325 22.604 17.5261L14.1597 17.3625L17.0495 8.78399C17.1082 8.60995 17.2201 8.45877 17.3694 8.35186C17.5187 8.24495 17.6979 8.18773 17.8815 8.1883H22.9609C23.1594 9.23807 23.5962 10.2283 24.2378 11.0825C24.8794 11.9368 25.7085 12.6324 26.6614 13.1157C27.6142 13.5989 28.6653 13.8569 29.7335 13.8699C30.8018 13.8828 31.8588 13.6502 32.8231 13.1901C33.1164 13.0465 33.3406 12.7923 33.4464 12.4833C33.5522 12.1744 33.531 11.8361 33.3874 11.5428C33.2437 11.2495 32.9895 11.0253 32.6806 10.9194C32.3716 10.8136 32.0333 10.8348 31.74 10.9785C31.1533 11.2585 30.5128 11.4077 29.8628 11.4158C29.2127 11.4239 28.5687 11.2906 27.9753 11.0253C27.3818 10.7599 26.8531 10.3688 26.4257 9.87894C25.9983 9.3891 25.6825 8.81225 25.5 8.1883H49.0926C49.3823 9.78649 50.2233 11.2325 51.4691 12.2746C52.715 13.3167 54.2868 13.8889 55.9111 13.8917C57.2809 13.8289 60.2089 13.5138 59.5172 11.5446C58.6926 10.032 57.1541 11.6061 55.9111 11.4301C54.9427 11.4271 54.0015 11.1092 53.2296 10.5244C52.4576 9.93966 51.8968 9.11972 51.6317 8.1883H66.3886C66.5275 8.18942 66.6641 8.22326 66.7875 8.28706C66.9108 8.35086 67.0174 8.44283 67.0985 8.55552C67.1797 8.6682 67.2331 8.79843 67.2546 8.93563C67.276 9.07284 67.2648 9.21316 67.2218 9.34522L67.2206 9.34645Z" fill="black"/>
<path d="M19.4114 23.9483C18.2457 23.9483 17.1278 24.4114 16.3036 25.2356C15.4794 26.0598 15.0163 27.1777 15.0163 28.3434C15.0163 29.509 15.4794 30.6269 16.3036 31.4512C17.1278 32.2754 18.2457 32.7385 19.4114 32.7385C20.577 32.7385 21.6949 32.2754 22.5192 31.4512C23.3434 30.6269 23.8065 29.509 23.8065 28.3434C23.8065 27.1777 23.3434 26.0598 22.5192 25.2356C21.6949 24.4114 20.577 23.9483 19.4114 23.9483ZM19.4114 30.2769C18.8986 30.2769 18.4068 30.0732 18.0442 29.7106C17.6816 29.348 17.4779 28.8562 17.4779 28.3434C17.4779 27.8306 17.6816 27.3388 18.0442 26.9762C18.4068 26.6136 18.8986 26.4098 19.4114 26.4098C19.9242 26.4098 20.416 26.6136 20.7786 26.9762C21.1412 27.3388 21.3449 27.8306 21.3449 28.3434C21.3449 28.8562 21.1412 29.348 20.7786 29.7106C20.416 30.0732 19.9242 30.2769 19.4114 30.2769ZM35.2686 32.7385C36.4343 32.7385 37.5522 32.2754 38.3764 31.4512C39.2007 30.6269 39.6637 29.509 39.6637 28.3434C39.6637 27.1777 39.2007 26.0598 38.3764 25.2356C37.5522 24.4114 36.4343 23.9483 35.2686 23.9483C34.103 23.9483 32.9851 24.4114 32.1608 25.2356C31.3366 26.0598 30.8736 27.1777 30.8736 28.3434C30.8736 29.509 31.3366 30.6269 32.1608 31.4512C32.9851 32.2754 34.103 32.7385 35.2686 32.7385ZM35.2686 26.4098C35.7814 26.4098 36.2732 26.6136 36.6358 26.9762C36.9985 27.3388 37.2022 27.8306 37.2022 28.3434C37.2022 28.8562 36.9985 29.348 36.6358 29.7106C36.2732 30.0732 35.7814 30.2769 35.2686 30.2769C34.7558 30.2769 34.264 30.0732 33.9014 29.7106C33.5388 29.348 33.3351 28.8562 33.3351 28.3434C33.3351 27.8306 33.5388 27.3388 33.9014 26.9762C34.264 26.6136 34.7558 26.4098 35.2686 26.4098ZM51.1259 32.7385C52.2915 32.7385 53.4094 32.2754 54.2336 31.4512C55.0579 30.6269 55.5209 29.509 55.5209 28.3434C55.5209 27.1777 55.0579 26.0598 54.2336 25.2356C53.4094 24.4114 52.2915 23.9483 51.1259 23.9483C49.9602 23.9483 48.8423 24.4114 48.0181 25.2356C47.1938 26.0598 46.7308 27.1777 46.7308 28.3434C46.7308 29.509 47.1938 30.6269 48.0181 31.4512C48.8423 32.2754 49.9602 32.7385 51.1259 32.7385ZM51.1259 26.4098C51.6387 26.4098 52.1305 26.6136 52.4931 26.9762C52.8557 27.3388 53.0594 27.8306 53.0594 28.3434C53.0594 28.8562 52.8557 29.348 52.4931 29.7106C52.1305 30.0732 51.6387 30.2769 51.1259 30.2769C50.613 30.2769 50.1212 30.0732 49.7586 29.7106C49.396 29.348 49.1923 28.8562 49.1923 28.3434C49.1923 27.8306 49.396 27.3388 49.7586 26.9762C50.1212 26.6136 50.613 26.4098 51.1259 26.4098ZM13.9234 36.8689C12.7577 36.8689 11.6398 37.332 10.8156 38.1562C9.99137 38.9804 9.52832 40.0983 9.52832 41.264C9.52832 42.4296 9.99137 43.5475 10.8156 44.3718C11.6398 45.196 12.7577 45.6591 13.9234 45.6591C15.089 45.6591 16.2069 45.196 17.0312 44.3718C17.8554 43.5475 18.3185 42.4296 18.3185 41.264C18.3185 40.0983 17.8554 38.9804 17.0312 38.1562C16.2069 37.332 15.089 36.8689 13.9234 36.8689ZM13.9234 43.1975C13.4106 43.1975 12.9188 42.9938 12.5562 42.6312C12.1936 42.2686 11.9899 41.7768 11.9899 41.264C11.9899 40.7512 12.1936 40.2594 12.5562 39.8968C12.9188 39.5342 13.4106 39.3305 13.9234 39.3305C14.4362 39.3305 14.928 39.5342 15.2906 39.8968C15.6532 40.2594 15.8569 40.7512 15.8569 41.264C15.8569 41.7768 15.6532 42.2686 15.2906 42.6312C14.928 42.9938 14.4362 43.1975 13.9234 43.1975ZM29.7806 45.6591C30.9463 45.6591 32.0642 45.196 32.8884 44.3718C33.7127 43.5475 34.1757 42.4296 34.1757 41.264C34.1757 40.0983 33.7127 38.9804 32.8884 38.1562C32.0642 37.332 30.9463 36.8689 29.7806 36.8689C28.615 36.8689 27.4971 37.332 26.6728 38.1562C25.8486 38.9804 25.3855 40.0983 25.3855 41.264C25.3855 42.4296 25.8486 43.5475 26.6728 44.3718C27.4971 45.196 28.615 45.6591 29.7806 45.6591ZM29.7806 39.3305C30.2934 39.3305 30.7852 39.5342 31.1478 39.8968C31.5105 40.2594 31.7142 40.7512 31.7142 41.264C31.7142 41.7768 31.5105 42.2686 31.1478 42.6312C30.7852 42.9938 30.2934 43.1975 29.7806 43.1975C29.2678 43.1975 28.776 42.9938 28.4134 42.6312C28.0508 42.2686 27.8471 41.7768 27.8471 41.264C27.8471 40.7512 28.0508 40.2594 28.4134 39.8968C28.776 39.5342 29.2678 39.3305 29.7806 39.3305ZM45.6317 45.6615C46.6286 45.7403 47.8323 45.1926 47.5357 44.0295C47.4513 43.7146 47.2459 43.4459 46.9641 43.282C46.6823 43.118 46.3471 43.0722 46.0317 43.1545C45.7684 43.2076 45.4968 43.2051 45.2345 43.1471C44.9722 43.0892 44.7249 42.9771 44.5084 42.818C44.2919 42.659 44.1111 42.4564 43.9774 42.2234C43.8438 41.9904 43.7603 41.732 43.7323 41.4648C43.7043 41.1976 43.7325 40.9276 43.8149 40.6719C43.8974 40.4162 44.0324 40.1806 44.2112 39.9801C44.39 39.7796 44.6087 39.6187 44.8533 39.5077C45.098 39.3967 45.3631 39.338 45.6317 39.3354C45.9533 39.3362 46.2699 39.4156 46.5539 39.5666C46.8379 39.7176 47.0807 39.9357 47.2612 40.2018C47.3524 40.3354 47.4689 40.4496 47.6042 40.5381C47.7395 40.6266 47.891 40.6875 48.0498 40.7175C48.2087 40.7474 48.3719 40.7458 48.5301 40.7126C48.6884 40.6795 48.8385 40.6155 48.972 40.5243C50.8563 38.8172 47.2317 36.7212 45.6317 36.8738C44.4664 36.8738 43.3488 37.3368 42.5248 38.1608C41.7008 38.9848 41.2379 40.1024 41.2379 41.2677C41.2379 42.433 41.7008 43.5506 42.5248 44.3746C43.3488 45.1986 44.4664 45.6615 45.6317 45.6615Z" fill="black"/>
</g>
<defs>
<clipPath id="clip0_2701_168">
<rect width="70.1538" height="64" fill="white"/>
</clipPath>
</defs>
</svg>
