<svg width="25" height="23" viewBox="0 0 25 23" fill="none" xmlns="http://www.w3.org/2000/svg">
<rect width="20" height="20" rx="5" fill="white"/>
<path d="M5.34681 11.2413C4.91612 11.2425 4.49457 11.3656 4.13094 11.5964C3.7673 11.8272 3.47644 12.1562 3.292 12.5454C3.10756 12.9346 3.03708 13.3681 3.08872 13.7957C3.14036 14.2232 3.312 14.6275 3.58379 14.9616L9.37767 22.0591C9.58425 22.3156 9.84905 22.5191 10.1501 22.6527C10.4511 22.7863 10.7797 22.8462 11.1085 22.8274C11.8117 22.7896 12.4467 22.4134 12.8515 21.7948L24.8868 2.41189C24.8888 2.40865 24.8909 2.40545 24.893 2.40229C25.0059 2.2289 24.9693 1.88529 24.7362 1.66943C24.6722 1.61015 24.5967 1.56461 24.5144 1.53561C24.4321 1.50661 24.3447 1.49476 24.2577 1.5008C24.1706 1.50684 24.0857 1.53063 24.0082 1.57072C23.9307 1.6108 23.8622 1.66633 23.807 1.73388C23.8027 1.73919 23.7982 1.74442 23.7937 1.74958L11.6558 15.4635C11.6096 15.5157 11.5535 15.5582 11.4908 15.5885C11.4281 15.6188 11.3599 15.6364 11.2903 15.6402C11.2207 15.6439 11.1511 15.6338 11.0854 15.6104C11.0198 15.5871 10.9594 15.5509 10.9079 15.504L6.87958 11.8382C6.4612 11.4546 5.91437 11.2417 5.34681 11.2413Z" fill="#9A6ECD"/>
</svg>
