<svg width="25" height="23" viewBox="0 0 25 23" fill="none" xmlns="http://www.w3.org/2000/svg">
<rect width="20" height="20" rx="5" fill="white"/>
<path d="M5.34681 11.2414C4.91612 11.2426 4.49457 11.3657 4.13094 11.5965C3.7673 11.8273 3.47644 12.1563 3.292 12.5455C3.10756 12.9347 3.03708 13.3682 3.08872 13.7958C3.14036 14.2234 3.312 14.6276 3.58379 14.9617L9.37767 22.0592C9.58425 22.3157 9.84905 22.5192 10.1501 22.6528C10.4511 22.7865 10.7797 22.8463 11.1085 22.8275C11.8117 22.7897 12.4467 22.4135 12.8515 21.795L24.8868 2.41201C24.8888 2.40877 24.8909 2.40557 24.893 2.40242C25.0059 2.22903 24.9693 1.88541 24.7362 1.66955C24.6722 1.61028 24.5967 1.56473 24.5144 1.53573C24.4321 1.50673 24.3447 1.49488 24.2577 1.50092C24.1706 1.50696 24.0857 1.53075 24.0082 1.57084C23.9307 1.61093 23.8622 1.66645 23.807 1.734C23.8027 1.73932 23.7982 1.74455 23.7937 1.7497L11.6558 15.4636C11.6096 15.5158 11.5535 15.5583 11.4908 15.5886C11.4281 15.619 11.3599 15.6365 11.2903 15.6403C11.2207 15.644 11.1511 15.6339 11.0854 15.6106C11.0198 15.5872 10.9594 15.551 10.9079 15.5041L6.87958 11.8383C6.4612 11.4548 5.91437 11.2418 5.34681 11.2414Z" fill="#006A74"/>
</svg>
