<svg width="100" height="100" viewBox="0 0 100 100" fill="none" xmlns="http://www.w3.org/2000/svg">
<rect width="100" height="100" fill="#23BFCF"/>
<path d="M51.6032 25.4922C57.5232 25.4922 62.2839 26.6762 65.8852 29.0442C69.4866 31.3629 71.2872 34.3229 71.2872 37.9242C71.2872 40.1442 70.5226 42.1422 68.9932 43.9182C67.4639 45.6449 62.9252 48.0622 55.3772 51.1702C50.8386 53.0449 47.5086 54.6235 45.3872 55.9062C43.2659 57.1889 42.2299 58.1755 42.2792 58.8662C42.2792 59.0142 42.3039 59.2362 42.3532 59.5322C42.4519 59.8282 42.5012 60.0502 42.5012 60.1982C42.5012 60.7409 42.3532 61.1602 42.0572 61.4562C41.8106 61.7522 41.3912 61.8755 40.7992 61.8262C40.1086 61.8262 39.5166 61.5302 39.0232 60.9382C38.5299 60.3462 38.3079 59.7049 38.3572 59.0142C38.3572 57.5342 39.1219 56.1529 40.6512 54.8702C42.2299 53.5382 45.6339 51.7622 50.8632 49.5422C58.9539 46.1382 63.6899 43.7209 65.0712 42.2902C66.4526 40.8595 67.1432 39.2562 67.1432 37.4802C67.1432 35.0135 65.6139 32.9662 62.5552 31.3382C59.5459 29.6609 55.9199 28.8222 51.6772 28.8222C47.6319 28.8222 44.1292 29.5129 41.1692 30.8942C38.2092 32.2262 36.7292 33.7555 36.7292 35.4822C36.6799 35.8275 36.7046 36.1482 36.8032 36.4442C36.9512 36.7402 37.1486 37.0115 37.3952 37.2582C38.3326 38.4422 38.8012 39.0589 38.8012 39.1082C38.8012 39.1082 38.8259 39.1082 38.8752 39.1082C38.8752 39.6015 38.7026 39.9715 38.3572 40.2182C38.0119 40.4649 37.5679 40.5882 37.0252 40.5882C35.7919 40.5882 34.7312 40.1195 33.8432 39.1822C32.9552 38.2449 32.5112 37.0115 32.5112 35.4822C32.5112 32.6702 34.3119 30.3022 37.9132 28.3782C41.5146 26.4542 46.0779 25.4922 51.6032 25.4922ZM39.0232 65.7482C39.7139 65.7482 40.2566 65.9702 40.6512 66.4142C41.0459 66.8582 41.2432 67.4502 41.2432 68.1902C41.2432 69.3249 40.9472 70.1389 40.3552 70.6322C39.7632 71.1255 38.8752 71.3722 37.6912 71.3722C36.6059 71.3722 35.7672 71.1749 35.1752 70.7802C34.5832 70.3855 34.2872 69.8429 34.2872 69.1522C34.2872 68.3135 34.8052 67.5489 35.8412 66.8582C36.9266 66.1182 37.9872 65.7482 39.0232 65.7482Z" fill="white"/>
<path d="M41.2432 68.1904C41.2432 67.5431 41.092 67.0087 40.79 66.5879L40.6514 66.4141C40.3061 66.0256 39.8473 65.8074 39.2754 65.7588L39.0234 65.748C37.9874 65.748 36.9262 66.1184 35.8408 66.8584L35.6533 66.9883C34.7426 67.6445 34.2871 68.366 34.2871 69.1523L34.3008 69.4043C34.3656 69.9761 34.6569 70.435 35.1748 70.7803C35.6928 71.1256 36.4001 71.3192 37.2959 71.3623L37.6914 71.3721C38.8011 71.372 39.6506 71.1551 40.2402 70.7217L40.3555 70.6318C40.8733 70.2002 41.1647 69.5231 41.2295 68.6006L41.2432 68.1904ZM66.1436 37.4805C66.1436 35.5267 64.967 33.7547 62.085 32.2207L62.0771 32.2158L62.0684 32.2119C59.2386 30.6347 55.7881 29.8223 51.6768 29.8223C47.7437 29.8223 44.3916 30.4932 41.5918 31.7998L41.5791 31.8057C38.6551 33.1215 37.7295 34.4105 37.7295 35.4824V35.5527L37.7188 35.623C37.6934 35.8008 37.7042 35.9445 37.7344 36.0645C37.8012 36.1861 37.8811 36.3044 37.9785 36.418L38.1025 36.5508L38.1436 36.5918L38.1797 36.6377C38.6491 37.2307 39.0057 37.6866 39.2461 38.0029C39.2737 38.0392 39.2991 38.075 39.3242 38.1084H39.875V39.1084C39.8749 39.8643 39.5917 40.5645 38.9385 41.0312C38.3817 41.4289 37.7182 41.5879 37.0254 41.5879C35.5034 41.5879 34.1841 40.9962 33.1172 39.8701C32.0215 38.7136 31.5108 37.2171 31.5107 35.4824C31.5107 32.1463 33.68 29.5061 37.4424 27.4961C41.2308 25.4722 45.9694 24.4922 51.6035 24.4922C57.6438 24.4922 62.613 25.6983 66.4268 28.2031L66.7803 28.4365C70.3764 30.8694 72.2871 34.0395 72.2871 37.9238C72.2871 40.3974 71.427 42.6239 69.751 44.5703L69.7422 44.5811C68.8487 45.5898 67.1892 46.6954 64.9121 47.9082C62.602 49.1386 59.5467 50.5336 55.7578 52.0938L55.7588 52.0947C51.2311 53.9649 47.9582 55.5198 45.9043 56.7617C44.8678 57.3884 44.1499 57.9121 43.709 58.332C43.4888 58.5418 43.3674 58.6981 43.3076 58.7998C43.2925 58.8255 43.2845 58.8446 43.2793 58.8564V58.8662C43.2793 58.9239 43.2911 59.0623 43.3311 59.3115C43.422 59.5977 43.501 59.9109 43.501 60.1982C43.5009 60.9239 43.2989 61.6287 42.7646 62.1631C42.2347 62.7431 41.4791 62.8701 40.79 62.8252C39.7699 62.8225 38.9114 62.366 38.2549 61.5781C37.6164 60.8119 37.2895 59.9209 37.3594 58.9424C37.384 57.1033 38.3565 55.4896 40.0059 54.1055C41.7164 52.6622 45.2588 50.8345 50.4727 48.6211L50.4756 48.6201C54.5106 46.9225 57.6917 45.4778 60.0283 44.2852C62.4096 43.0697 63.7926 42.1745 64.3516 41.5957C65.5762 40.3273 66.1434 38.9653 66.1436 37.4805ZM42.2432 68.1904C42.2431 69.4779 41.9062 70.6411 40.9951 71.4004C40.1491 72.1053 38.9894 72.372 37.6914 72.3721C36.5053 72.3721 35.4417 72.16 34.6201 71.6123C33.7602 71.039 33.2872 70.1891 33.2871 69.1523C33.2871 67.9196 34.0153 66.9361 35.0713 66.1748L35.2861 66.0264C36.4905 65.207 37.7415 64.748 39.0234 64.748C39.9485 64.7481 40.7825 65.0571 41.3984 65.75C41.993 66.4189 42.2432 67.2681 42.2432 68.1904ZM32.5166 35.7656C32.5687 37.1643 33.0106 38.303 33.8428 39.1816C34.6753 40.0604 35.6599 40.5271 36.7959 40.582L37.0254 40.5879C37.5 40.5879 37.899 40.4934 38.2227 40.3047L38.3574 40.2178C38.7025 39.9712 38.8749 39.6014 38.875 39.1084H38.8008C38.8008 39.0714 38.5377 38.715 38.0107 38.04L37.3955 37.2578C37.1489 37.0112 36.9507 36.7403 36.8027 36.4443C36.7041 36.1484 36.6802 35.8276 36.7295 35.4824C36.7295 33.7558 38.209 32.2255 41.1689 30.8936C44.1288 29.5123 47.6316 28.8223 51.6768 28.8223L52.4658 28.832C56.3707 28.9304 59.7336 29.7656 62.5547 31.3379C65.6134 32.9659 67.1436 35.0138 67.1436 37.4805L67.1348 37.8105C67.0539 39.4555 66.3664 40.9487 65.0713 42.29L64.9316 42.4268C63.3904 43.8724 58.7011 46.2444 50.8633 49.542C45.634 51.762 42.2301 53.5381 40.6514 54.8701C39.1221 56.1527 38.3575 57.5338 38.3574 59.0137C38.3081 59.7043 38.5301 60.3465 39.0234 60.9385C39.5166 61.5301 40.1085 61.8261 40.7988 61.8262C41.3908 61.8755 41.811 61.7521 42.0576 61.4561C42.3165 61.197 42.4618 60.8433 42.4941 60.3955L42.501 60.1982C42.501 60.0503 42.4521 59.8281 42.3535 59.5322C42.3289 59.3843 42.3102 59.2545 42.2979 59.1436L42.2793 58.8662C42.233 58.2187 43.1403 57.3104 45.002 56.1426L45.3867 55.9062C47.508 54.6236 50.8384 53.0446 55.377 51.1699C62.925 48.0619 67.4638 45.6446 68.9932 43.918C70.5225 42.142 71.2871 40.1438 71.2871 37.9238C71.2871 34.3226 69.486 31.3626 65.8848 29.0439C62.5085 26.824 58.1134 25.6446 52.6992 25.5059L51.6035 25.4922C46.0782 25.4922 41.5144 26.4539 37.9131 28.3779C34.3118 30.3019 32.5107 32.6704 32.5107 35.4824L32.5166 35.7656Z" fill="white"/>
</svg>
