<svg width="100" height="100" viewBox="0 0 100 100" fill="none" xmlns="http://www.w3.org/2000/svg">
<rect width="100" height="100" fill="#23BFCF"/>
<path d="M68.6315 64.9341C68.4675 66.8201 63.8755 65.0981 63.6295 61.7361C63.6295 55.0941 68.1395 44.6801 70.7635 38.5301C67.8115 40.4981 62.5635 45.7461 60.2675 44.5981C52.1495 41.8921 59.7755 38.6941 61.4975 37.4641C68.3035 32.4621 73.8795 26.3121 76.0935 30.6581C77.0775 32.0521 78.8815 31.4781 77.8155 34.5121C73.0595 48.2881 69.3695 55.8321 68.6315 64.9341Z" fill="white"/>
<path d="M35.5398 66.5736C32.1778 66.5736 27.3398 64.7696 26.7658 63.0476C26.2738 62.0636 26.0278 61.2436 26.0278 60.6696C26.0278 60.0136 26.3558 59.6856 26.9298 59.6856C27.4218 59.6856 28.1598 60.0136 28.9798 60.5876C30.3738 61.4076 31.9318 61.7356 33.5718 61.7356C39.1478 61.7356 45.0518 57.3076 45.0518 53.9456C45.0518 52.8796 44.3958 51.8956 42.9198 51.1576C41.9358 50.6656 41.0338 50.5016 40.2138 50.5016C37.5078 50.5016 35.4578 52.3876 33.3258 52.3876C32.6698 52.3876 32.0138 52.2236 31.3578 51.7316C29.7998 50.9936 29.0618 50.0096 29.0618 48.9436C29.0618 47.3856 29.8818 47.0576 32.5058 46.2376C37.6718 44.9256 44.7238 36.9716 44.2318 35.0856C44.2318 34.5936 43.8218 34.4296 43.1658 34.4296C40.9518 34.4296 35.8678 36.8076 33.8998 39.5136C33.4898 40.0056 32.9978 40.2516 32.4238 40.2516C31.1938 40.2516 29.7998 39.1036 29.4718 37.7096C28.5698 34.3476 36.0318 29.1816 41.9358 29.1816C45.6258 29.1816 48.7418 31.2316 48.7418 36.9716C48.7418 39.1036 48.0858 42.3836 44.3138 46.1556C45.4618 46.8116 46.3638 47.3856 47.6758 48.6976C48.9058 49.9276 49.8898 53.1256 49.8898 56.0776C49.8898 63.5396 42.1818 66.5736 35.5398 66.5736Z" fill="white"/>
</svg>
