<svg width="100" height="100" viewBox="0 0 100 100" fill="none" xmlns="http://www.w3.org/2000/svg">
<rect width="100" height="100" fill="#23BFCF"/>
<path d="M48.4519 57.9404C47.8439 60.1444 44.8039 57.6364 45.0319 54.9764C45.4879 49.5044 55.2919 26.0204 56.9639 20.6244C57.1919 19.9404 57.6479 19.9404 58.0279 19.9404C58.7879 19.9404 61.7519 21.0044 61.7519 23.6644C61.7519 26.3244 52.5559 42.5884 48.4519 57.9404ZM41.7639 72.7604C40.1679 72.7604 39.2559 71.3164 39.2559 69.4164C39.2559 67.5164 41.2319 64.6284 44.0439 64.6284C45.8679 64.6284 46.7039 65.6924 46.7039 67.5164C46.7039 69.9484 43.6639 72.7604 41.7639 72.7604Z" fill="white"/>
</svg>
