<svg width="63" height="76" viewBox="0 0 63 76" fill="none" xmlns="http://www.w3.org/2000/svg">
<g clip-path="url(#clip0_2375_72)">
<path d="M16.9138 75.9998C13.8448 75.9998 11.093 75.1894 8.7184 73.5944C5.16077 71.044 2.46898 67.308 1.16595 63.1028C-1.603 53.8395 1.07165 44.3118 3.79773 37.9571C5.50368 34.1187 7.47537 30.323 9.64424 26.6979C11.3845 23.6954 13.0647 20.6247 14.6935 17.6649L16.0994 15.0974C16.8538 13.7241 18.2168 12.6494 19.2027 12.6494C19.3913 12.6494 19.5713 12.692 19.7513 12.7688L19.8199 12.8029L19.8885 12.8285C20.1542 12.9223 20.3943 13.0759 20.5914 13.272C20.7886 13.4682 20.9344 13.7071 21.0201 13.9715C21.1058 14.2359 21.1315 14.5174 21.0972 14.7903C21.0544 15.0633 20.9515 15.3277 20.7972 15.5665L20.7372 15.6518L20.6943 15.7371C19.3056 18.3984 17.8225 21.0426 16.2451 23.8404C13.159 29.3336 9.96143 35.0144 7.60396 40.8061C4.3721 48.7472 3.5577 54.0869 4.78358 59.2388C6.16377 65.0561 10.6044 71.3255 17.0853 71.3255C20.5743 71.3255 29.7813 69.6451 39.8026 54.1039C41.9115 50.837 44.2004 46.8536 46.2235 43.3394C47.7409 40.7037 49.1725 38.2215 50.3384 36.345C53.9903 30.5021 55.6876 26.152 57.3336 21.9553C57.7279 20.9573 58.1137 19.9594 58.5338 18.9358C59.5367 16.411 59.5539 13.6388 58.6023 11.1226C57.6422 8.60628 55.7905 6.54208 53.373 5.3138C52.3529 4.83613 51.2728 4.60583 50.1069 4.60583C47.1322 4.60583 44.0118 6.06442 41.5343 8.60628C37.3509 13.2294 33.6132 18.2108 30.3985 23.4651C24.5091 32.7881 22.9575 35.3811 19.0312 45.6595C17.5482 49.532 19.0998 51.4597 20.66 52.4065C21.2172 52.7477 21.8688 52.9183 22.5974 52.9183C24.9378 52.9183 27.6638 51.0417 28.8297 48.6278C30.9986 44.815 32.9531 40.8402 34.6591 36.8056C35.8335 34.6902 36.8194 32.4128 37.7709 30.2121C38.6368 28.2247 39.5283 26.169 40.5313 24.2925L40.7885 23.7636C41.7915 21.6909 42.5973 20.2153 43.9432 20.0703C44.0718 20.0532 44.2004 20.0532 44.3204 20.0532C45.0662 20.0532 45.7349 20.292 46.1121 20.7015C46.3435 20.9573 46.4464 21.2644 46.4207 21.6568C46.1035 23.5163 45.4863 25.316 44.5861 26.9879L44.5347 27.0902C43.6346 29.0862 37.1623 42.1196 34.8734 46.1883C34.4533 46.9389 34.0504 47.6725 33.6561 48.3975C31.7873 51.835 30.1756 54.8034 27.9553 56.0914C26.1036 57.2002 24.0033 57.857 21.8602 58.002C20.54 57.9423 19.2455 57.567 18.1054 56.9102C16.9481 56.2449 15.9622 55.2981 15.2593 54.1636C14.3335 52.8159 13.7677 51.3062 13.5791 49.7623C13.3905 48.2099 13.5791 46.6148 14.1277 45.1477C17.1538 36.7971 22.4088 27.0988 29.7384 16.3001C31.9158 12.8541 34.3762 9.61279 37.0765 6.61885C39.8369 3.76139 43.3688 1.64601 47.2522 0.537145C48.3581 0.178896 49.4468 0.00830078 50.5441 0.00830078C50.9299 0.00830078 51.3242 0.03389 51.7185 0.0765387C53.2102 0.238604 54.6246 0.716269 55.902 1.47542C62.5714 5.75735 63.9516 14.3894 62.3914 20.5906C61.1741 24.719 59.3739 28.7365 57.0507 32.4725C55.0104 36.0209 50.1583 44.0644 47.818 47.9284C47.1151 49.0884 46.2492 50.5385 46.2492 50.5385C41.5943 58.3261 36.7851 66.3697 29.4727 71.6837C25.675 74.4388 21.0887 76.0168 16.8881 76.0168L16.9138 75.9998Z" fill="#23BFCF"/>
</g>
<defs>
<clipPath id="clip0_2375_72">
<rect width="63" height="76" fill="white"/>
</clipPath>
</defs>
</svg>
