<?xml version="1.0" encoding="UTF-8"?>
<svg id="_Слой_2" data-name="Слой 2" xmlns="http://www.w3.org/2000/svg" viewBox="0 0 18 270">
  <defs>
    <style>
      .cls-1 {
        fill: #23bfcf;
      }
    </style>
  </defs>
  <g id="_Слой_2-2" data-name="Слой 2">
    <path class="cls-1" d="M18,117.67c0-2.96-1.43-5.58-3.64-7.22-2.48-1.84-3.81-4.86-3.81-7.94v-54.87c0-2.66,1.06-5.22,2.95-7.09l1.86-1.85c.41-.41.78-.85,1.1-1.33.16-.24.31-.49.45-.74.69-1.28,1.09-2.74,1.09-4.29,0-2.96-1.43-5.58-3.64-7.22-2.48-1.84-3.81-4.86-3.81-7.94V1.56c0-.86-.7-1.56-1.56-1.56h0c-.86,0-1.56.7-1.56,1.56v15.62c0,3.09-1.33,6.1-3.81,7.94-2.21,1.64-3.64,4.26-3.64,7.22,0,1.55.39,3.01,1.09,4.29.14.26.29.5.45.74.32.48.69.92,1.1,1.33l1.86,1.85c1.89,1.88,2.95,4.43,2.95,7.09v54.87c0,3.09-1.33,6.1-3.81,7.94-2.21,1.64-3.64,4.26-3.64,7.22s1.43,5.58,3.64,7.22c2.48,1.84,3.81,4.86,3.81,7.94v81.68c0,3.09-1.33,6.1-3.81,7.94-2.21,1.64-3.64,4.26-3.64,7.22s1.43,5.58,3.64,7.22c2.48,1.84,3.81,4.86,3.81,7.94v23.62c0,.86.7,1.56,1.56,1.56h0c.86,0,1.56-.7,1.56-1.56v-23.62c0-3.09,1.33-6.1,3.81-7.94,2.21-1.64,3.64-4.26,3.64-7.22s-1.43-5.58-3.64-7.22c-2.48-1.84-3.81-4.86-3.81-7.94v-81.68c0-3.09,1.33-6.1,3.81-7.94,2.21-1.64,3.64-4.26,3.64-7.22Z"/>
  </g>
</svg>