<?xml version="1.0" encoding="UTF-8"?>
<svg id="_Слой_2" data-name="Слой 2" xmlns="http://www.w3.org/2000/svg" viewBox="0 0 26 271">
  <defs>
    <style>
      .cls-1 {
        fill: #23bfcf;
      }
    </style>
  </defs>
  <g id="_Слой_2-2" data-name="Слой 2">
    <path class="cls-1" d="M26,117.67c0-4.44-2.23-8.35-5.62-10.69-2.73-1.88-4.38-4.97-4.38-8.29v-51.89c0-3.41,1.72-6.55,4.5-8.52,3.33-2.35,5.5-6.22,5.5-10.61s-2.17-8.25-5.5-10.61c-2.78-1.97-4.5-5.11-4.5-8.52V3c0-1.66-1.34-3-3-3h0c-1.66,0-3,1.34-3,3v5.54c0,3.41-1.72,6.55-4.5,8.52-3.33,2.35-5.5,6.22-5.5,10.61s2.17,8.26,5.5,10.61c2.78,1.97,4.5,5.11,4.5,8.52v51.89c0,3.32-1.65,6.4-4.38,8.29-3.4,2.34-5.62,6.25-5.62,10.69s2.23,8.35,5.62,10.69c2.73,1.88,4.38,4.97,4.38,8.29v74.91c0,3.4-1.71,6.53-4.48,8.49-3.34,2.35-5.52,6.23-5.52,10.62s2.18,8.27,5.52,10.62c2.78,1.96,4.48,5.09,4.48,8.49v18.23c0,1.66,1.34,3,3,3h0c1.66,0,3-1.34,3-3v-18.23c0-3.4,1.71-6.53,4.48-8.49,3.34-2.35,5.52-6.23,5.52-10.62s-2.18-8.27-5.52-10.62c-2.78-1.96-4.48-5.09-4.48-8.49v-74.91c0-3.32,1.65-6.4,4.38-8.29,3.4-2.34,5.62-6.25,5.62-10.69Z"/>
  </g>
</svg>