<svg width="130" height="131" viewBox="0 0 130 131" fill="none" xmlns="http://www.w3.org/2000/svg">
<path d="M43.4263 3.61896H86.1435C79.4581 1.27899 72.2734 0 64.7849 0C57.2964 0 50.1189 1.27899 43.4263 3.61896Z" fill="#DF2A2A"/>
<path d="M32.9422 8.38611C30.2723 9.90491 27.7183 11.6054 25.2944 13.473H104.268C101.851 11.6054 99.2972 9.90491 96.6201 8.38611H32.9422Z" fill="#DF2A2A"/>
<path d="M15.0713 23.3271H114.499C113.016 21.5466 111.438 19.8534 109.774 18.2402H19.7959C18.1318 19.8534 16.5545 21.5466 15.0713 23.3271Z" fill="#DF2A2A"/>
<path d="M11.4536 28.0869C10.3177 29.7293 9.26135 31.4298 8.27734 33.1738H121.286C120.302 31.4298 119.245 29.7293 118.109 28.0869H11.4536Z" fill="#DF2A2A"/>
<path d="M5.85339 37.941C5.09368 39.5979 4.39909 41.2983 3.77686 43.0279H125.779C125.156 41.2983 124.462 39.5979 123.702 37.941H5.85339Z" fill="#DF2A2A"/>
<path d="M2.27906 47.795C1.82323 49.4665 1.43252 51.1597 1.10693 52.8819H128.47C128.144 51.1597 127.754 49.4665 127.291 47.795H2.27906Z" fill="#DF2A2A"/>
<path d="M0.383558 57.6418C0.19544 59.3205 0.0652067 61.0137 0.00732422 62.7287H129.57C129.512 61.0137 129.382 59.3205 129.194 57.6418H0.383558Z" fill="#DF2A2A"/>
<path d="M0 67.4959C0.0578825 69.2109 0.188121 70.9041 0.376239 72.5828H129.179C129.367 70.9041 129.498 69.2109 129.555 67.4959H0Z" fill="#DF2A2A"/>
<path d="M1.09961 77.3499C1.4252 79.0722 1.8159 80.7654 2.27896 82.4368H127.291C127.746 80.7654 128.137 79.0722 128.47 77.3499H1.09961Z" fill="#DF2A2A"/>
<path d="M3.78418 87.204C4.40642 88.9335 5.101 90.634 5.86071 92.2909H123.717C124.476 90.634 125.171 88.9335 125.793 87.204H3.78418Z" fill="#DF2A2A"/>
<path d="M8.27734 97.0507C9.26135 98.7948 10.3177 100.495 11.4536 102.138H118.117C119.253 100.495 120.309 98.7948 121.293 97.0507H8.27734Z" fill="#DF2A2A"/>
<path d="M15.0713 106.905C16.5545 108.685 18.1318 110.378 19.7959 111.992H109.774C111.438 110.378 113.016 108.685 114.499 106.905H15.0713Z" fill="#DF2A2A"/>
<path d="M25.2944 116.759C27.711 118.626 30.2651 120.327 32.9422 121.846H96.6201C99.2899 120.327 101.844 118.626 104.268 116.759H25.2944Z" fill="#DF2A2A"/>
<path d="M86.1363 126.606H43.4263C50.1117 128.946 57.2964 130.225 64.7849 130.225C72.2734 130.225 79.4509 128.946 86.1435 126.606H86.1363Z" fill="#DF2A2A"/>
</svg>
