<svg width="73" height="68" viewBox="0 0 73 68" fill="none" xmlns="http://www.w3.org/2000/svg">
<g clip-path="url(#clip0_2883_82)">
<path d="M19.5102 43.06C13.0602 37.42 4.65017 28.78 2.25017 20.38C-0.879833 9.42 8.02017 6.17 16.4402 11.38C19.5402 13.3 24.8902 18.33 26.0702 21.8C26.6802 23.6 25.7802 25.28 25.4402 27.05C25.0002 29.29 24.9102 33.54 26.4202 35.34C27.3702 36.47 29.2102 36.6 30.0502 35.26C31.5902 32.8 29.0602 26.03 28.7402 23.11C28.6002 21.84 29.2602 20.51 29.7702 19.37C34.2802 9.41 43.8602 2.03 55.0902 1.88C60.9302 1.8 67.3502 4.16999 69.8302 9.85999C72.2702 15.48 70.2302 22.38 67.3002 28.12C67.0302 28.64 67.4202 29.27 68.0102 29.27C68.3102 29.27 68.5802 29.1 68.7202 28.84C71.3002 23.82 73.0002 18.55 72.5502 13.74C71.7302 4.77999 63.2402 -0.0800045 54.9002 -4.45615e-06C43.9602 0.0999955 35.3102 7.33 29.7602 16.13C29.1302 17.13 28.5902 18.19 28.0202 19.22C27.7302 19.74 26.9902 19.78 26.6602 19.28C23.6202 14.62 19.4902 10.03 14.4002 7.78C5.92017 4.04 -1.08983 8.71 0.140168 18.06C1.71017 30 14.9002 42.17 23.9102 49.32C30.1502 54.27 37.2602 59.04 44.1702 63.01C46.6602 64.44 50.5202 66.75 53.2002 67.53C54.3802 67.88 54.7802 67.42 54.1802 66.3C42.0302 59.59 30.0002 52.23 19.5202 43.06H19.5102ZM27.5502 26.18C27.6402 26.05 27.6902 26.16 27.7202 26.27C27.8102 26.56 27.8402 26.96 27.9102 27.27C28.1602 28.49 28.3802 29.76 28.2902 31.03C28.2702 31.37 28.2502 31.9 28.0302 32.16C27.2202 30.26 27.1702 28.17 27.5502 26.17V26.18Z" fill="white"/>
</g>
<defs>
<clipPath id="clip0_2883_82">
<rect width="72.62" height="67.64" fill="white"/>
</clipPath>
</defs>
</svg>
