<svg width="49" height="49" viewBox="0 0 49 49" fill="none" xmlns="http://www.w3.org/2000/svg">
<rect width="48.5" height="48.5" fill="#E8AED9"/>
<path d="M27.1528 34.845C26.8764 34.8344 26.6106 34.7387 26.3873 34.5792C26.164 34.4197 25.9939 34.1858 25.8982 33.9306L20.9965 20.2038L18.466 26.7642C18.3596 27.03 18.1895 27.2533 17.9556 27.4128C17.7217 27.5723 17.4559 27.6573 17.1688 27.6573H9.16241C8.79026 27.6573 8.43939 27.5085 8.17357 27.2533C7.90776 26.9981 7.76953 26.6366 7.76953 26.2644C7.76953 25.8923 7.91839 25.5414 8.17357 25.2756C8.42876 25.0204 8.79026 24.8716 9.16241 24.8716H16.2118L19.7525 15.6956C19.8588 15.451 20.0396 15.2278 20.2735 15.0683C20.5074 14.9194 20.7733 14.8344 21.0497 14.8344C21.3474 14.8344 21.6239 14.9194 21.8578 15.0895C22.0917 15.249 22.2618 15.4723 22.3681 15.7381L27.3655 29.7413L29.2687 25.5521C29.3751 25.3075 29.5558 25.1055 29.7791 24.9566C30.0024 24.8078 30.2682 24.7333 30.534 24.7333H39.3378C39.71 24.7333 40.0609 24.8822 40.3267 25.1374C40.5819 25.3926 40.7307 25.7541 40.7307 26.1262C40.7307 26.4984 40.5819 26.8492 40.3161 27.1151C40.0609 27.3702 39.6994 27.5191 39.3272 27.5191H31.4272L28.4713 34.0156C28.3543 34.2708 28.1736 34.4835 27.929 34.6217C27.7057 34.7599 27.4612 34.8237 27.206 34.8237H27.1528V34.845Z" fill="white"/>
</svg>
