<svg width="49" height="49" viewBox="0 0 49 49" fill="none" xmlns="http://www.w3.org/2000/svg">
<rect width="48.5" height="48.5" fill="#00A599"/>
<path d="M34.1667 11.875H14.3333C13.5819 11.875 12.8612 12.1647 12.3299 12.6805C11.7985 13.1962 11.5 13.8957 11.5 14.625V33.875C11.5 34.6043 11.7985 35.3038 12.3299 35.8195C12.8612 36.3353 13.5819 36.625 14.3333 36.625H34.1667C34.9181 36.625 35.6388 36.3353 36.1701 35.8195C36.7015 35.3038 37 34.6043 37 33.875V14.625C37 13.8957 36.7015 13.1962 36.1701 12.6805C35.6388 12.1647 34.9181 11.875 34.1667 11.875ZM34.1667 14.625V33.875H14.3333V14.625H34.1667ZM21.4167 31.125L15.75 25.625L17.7475 23.6725L21.4167 27.2338L30.7525 18.1725L32.75 20.125" fill="white"/>
</svg>
