<svg width="49" height="49" viewBox="0 0 49 49" fill="none" xmlns="http://www.w3.org/2000/svg">
<rect width="48.5" height="48.5" fill="#51B0EB"/>
<g clip-path="url(#clip0_2746_52)">
<path d="M24.2502 13.25C23.1051 13.25 21.9858 13.5895 21.0337 14.2257C20.0816 14.8619 19.3396 15.766 18.9014 16.8239C18.4632 17.8818 18.3485 19.0459 18.5719 20.1689C18.7953 21.292 19.3467 22.3236 20.1564 23.1332C20.9661 23.9429 21.9976 24.4943 23.1207 24.7177C24.2437 24.9411 25.4078 24.8264 26.4657 24.3883C27.5236 23.9501 28.4278 23.208 29.0639 22.2559C29.7001 21.3039 30.0396 20.1845 30.0396 19.0395C30.0396 17.504 29.4297 16.0314 28.3439 14.9457C27.2582 13.86 25.7856 13.25 24.2502 13.25ZM24.2502 22.5132C23.5631 22.5132 22.8915 22.3094 22.3203 21.9277C21.749 21.546 21.3038 21.0035 21.0409 20.3688C20.778 19.7341 20.7092 19.0356 20.8432 18.3618C20.9772 17.688 21.3081 17.069 21.7939 16.5832C22.2797 16.0974 22.8986 15.7666 23.5725 15.6325C24.2463 15.4985 24.9447 15.5673 25.5795 15.8302C26.2142 16.0931 26.7567 16.5384 27.1384 17.1096C27.5201 17.6808 27.7238 18.3524 27.7238 19.0395C27.7238 19.9608 27.3579 20.8443 26.7064 21.4957C26.055 22.1472 25.1714 22.5132 24.2502 22.5132ZM34.6712 35.25V34.0921C34.6712 31.9425 33.8173 29.8808 32.2972 28.3608C30.7772 26.8408 28.7156 25.9868 26.5659 25.9868H21.9344C19.7847 25.9868 17.7231 26.8408 16.2031 28.3608C14.683 29.8808 13.8291 31.9425 13.8291 34.0921V35.25H16.1449V34.0921C16.1449 32.5566 16.7549 31.0841 17.8406 29.9983C18.9263 28.9126 20.3989 28.3026 21.9344 28.3026H26.5659C28.1014 28.3026 29.574 28.9126 30.6597 29.9983C31.7455 31.0841 32.3554 32.5566 32.3554 34.0921V35.25H34.6712Z" fill="white"/>
</g>
<defs>
<clipPath id="clip0_2746_52">
<rect width="20.8421" height="22" fill="white" transform="translate(13.8291 13.25)"/>
</clipPath>
</defs>
</svg>
