<svg width="49" height="49" viewBox="0 0 49 49" fill="none" xmlns="http://www.w3.org/2000/svg">
<rect width="48.5" height="48.5" fill="#23BFCF"/>
<g clip-path="url(#clip0_2745_50)">
<path d="M30.8548 34.75C30.6788 34.75 30.5126 34.7011 30.3757 34.6034C30.2388 34.5056 30.1215 34.3785 30.0629 34.2123L28.6062 30.6732C28.4302 30.2528 28.1858 29.8715 27.8534 29.5391C27.609 29.2947 27.3352 29.0894 27.0321 28.933L26.7486 28.7961L23.1802 27.3198C23.0238 27.2514 22.8967 27.1439 22.7989 27.007C22.7011 26.8603 22.6523 26.7039 22.6523 26.5279C22.6523 26.352 22.7011 26.1955 22.7989 26.0489C22.8967 25.9022 23.0238 25.7947 23.1802 25.7263L26.7193 24.2696L27.0126 24.1327C27.7361 23.7416 28.2933 23.1257 28.6062 22.3925L30.0726 18.8436L30.1509 18.6969C30.1997 18.6187 30.2877 18.521 30.3953 18.4525C30.5321 18.3548 30.6983 18.3059 30.8743 18.3059C31.0503 18.3059 31.2067 18.3548 31.3534 18.4525C31.4902 18.5503 31.6076 18.6774 31.6662 18.8436L33.1327 22.3925C33.3087 22.8226 33.5629 23.2039 33.8855 23.5265C34.1299 23.771 34.4037 23.9763 34.7067 24.1327L35 24.2696L38.5587 25.736C38.7053 25.8045 38.8422 25.912 38.9302 26.0587C39.0182 26.1955 39.0768 26.3617 39.0768 26.5377C39.0768 26.7137 39.028 26.8701 38.9302 27.0168C38.8324 27.1634 38.7053 27.271 38.5489 27.3394L35.0098 28.7961C34.2668 29.0992 33.6509 29.6662 33.2794 30.3701L33.1425 30.6536L31.6662 34.2221C31.5978 34.3785 31.4902 34.5154 31.3436 34.6131C31.197 34.7109 31.0307 34.7598 30.8645 34.7598L30.8548 34.75ZM30.3953 22.6076C30.1509 23.2821 29.7891 23.9078 29.3199 24.4455C28.7821 25.0517 28.1076 25.5503 27.3645 25.8729L25.6928 26.5671L26.8953 26.9972C27.7067 27.2807 28.4497 27.75 29.0461 28.3464C29.6425 28.9427 30.102 29.676 30.3953 30.4679L30.8548 31.7388L31.3143 30.4777C31.6076 29.6858 32.0671 28.9525 32.6634 28.3562C33.2598 27.7598 33.993 27.3003 34.7849 27.007L36.0461 26.5475L34.7849 26.088C33.9735 25.7947 33.2598 25.3352 32.6634 24.7388C32.0671 24.1425 31.6076 23.4092 31.3143 22.6173L30.845 21.3366L30.3953 22.6173V22.6076ZM15.5643 27.3785C15.3981 27.3785 15.2319 27.3296 15.0852 27.2319C14.9483 27.1341 14.831 27.007 14.7626 26.8506L13.5796 23.986C13.3059 23.331 12.7975 22.8226 12.1425 22.5489L9.2584 21.3562C9.11175 21.2877 8.97488 21.1802 8.87712 21.0335C8.77935 20.8869 8.73047 20.7305 8.73047 20.5545C8.73047 20.3785 8.77935 20.2221 8.87712 20.0754C8.96511 19.9288 9.10198 19.8212 9.2584 19.7528L12.1327 18.5698C12.7877 18.2961 13.2961 17.7877 13.5699 17.1327L14.7528 14.2584C14.8213 14.1117 14.9288 13.9749 15.0754 13.8869C15.2221 13.7891 15.3785 13.7402 15.5545 13.7402C15.7305 13.7402 15.8869 13.7891 16.0335 13.8869C16.1411 13.9553 16.2291 14.0531 16.2975 14.1606L16.3562 14.2779L17.5489 17.1522C17.6858 17.4749 17.8715 17.7682 18.1257 18.0126C18.3799 18.257 18.6634 18.4525 18.9958 18.5894L21.8604 19.7724C22.0168 19.8408 22.1439 19.9483 22.2416 20.095C22.3296 20.2416 22.3883 20.3981 22.3883 20.574C22.3883 20.75 22.3394 20.9064 22.2416 21.0531C22.1439 21.1997 22.0168 21.3073 21.8604 21.3757L18.9861 22.5587C18.331 22.8324 17.8226 23.3408 17.5489 23.9958L16.3659 26.8701C16.2975 27.0168 16.19 27.1536 16.0433 27.2514C15.9064 27.3492 15.7402 27.3981 15.5643 27.3981V27.3785ZM15.1243 17.9246C14.8995 18.433 14.5866 18.8827 14.1956 19.2542C13.824 19.6159 13.4037 19.9092 12.9344 20.1145L11.9567 20.5643L12.9344 21.014C13.4232 21.2291 13.8534 21.5321 14.2347 21.9134C14.6062 22.2849 14.9092 22.7249 15.1341 23.2039L15.5838 24.1816L16.0238 23.2039C16.2388 22.7346 16.5321 22.3045 16.8841 21.9427C17.2654 21.5517 17.7151 21.2388 18.2137 21.014L19.2011 20.5643L18.2137 20.1243C17.7249 19.9092 17.2947 19.6062 16.9232 19.2346C16.5419 18.8631 16.2388 18.4232 16.0238 17.9246L15.5838 16.9274L15.1341 17.9148L15.1243 17.9246Z" fill="white"/>
</g>
<defs>
<clipPath id="clip0_2745_50">
<rect width="30.3073" height="21" fill="white" transform="translate(8.75 13.75)"/>
</clipPath>
</defs>
</svg>
