<svg width="1017" height="371" viewBox="0 0 1017 371" fill="none" xmlns="http://www.w3.org/2000/svg">
<path d="M185.5 23.0796C153.376 23.0796 121.974 32.6053 95.2641 50.4523C68.5543 68.2992 47.7365 93.6658 35.4433 123.344C23.1501 153.023 19.9337 185.68 26.2007 217.186C32.4677 248.693 47.9367 277.633 70.6516 300.348C93.3664 323.063 122.307 338.532 153.813 344.799C185.32 351.066 217.977 347.849 247.655 335.556C277.334 323.263 302.7 302.445 320.547 275.735C338.394 249.025 347.92 217.623 347.92 185.5C347.92 164.17 343.719 143.05 335.556 123.344C327.394 103.638 315.43 85.7334 300.348 70.6513C285.266 55.5692 267.361 43.6054 247.655 35.4431C227.95 27.2807 206.829 23.0796 185.5 23.0796ZM289.11 268C307.22 180.4 271.61 118.73 229.67 123C186.67 127.33 190.84 172.51 196.79 191.12C182.65 180.7 142.2 157.37 121.85 185.12C84.8998 235.6 178.68 305.73 233.77 315.66C170.73 307.22 94.0498 265 61.9998 202.75C30.9998 142.41 83.6298 96.9996 131 92.8096C120.53 112.21 112.88 122.92 102.46 133.51C133.76 118.37 147.42 81.3896 162.3 67.9996C177.18 54.6096 211.18 31.2696 256.85 74.4496C305.08 120.06 308.71 226.82 289.11 268ZM185.5 371C142.706 370.971 101.238 356.151 68.1186 329.051C34.9995 301.95 12.266 264.235 3.76869 222.293C-4.72861 180.351 1.53269 136.762 21.492 98.9077C41.4514 61.0536 73.8817 31.2622 113.29 14.5796C158.568 -4.28136 209.472 -4.44727 254.871 14.1181C300.271 32.6835 336.473 68.4697 355.562 113.652C374.65 158.834 375.072 209.737 356.736 255.23C338.399 300.722 302.796 337.104 257.71 356.42C234.865 366.085 210.305 371.044 185.5 371ZM185.5 5.99958C86.4998 5.99958 5.99984 86.4996 5.99984 185.5C5.99984 284.5 86.4998 365 185.5 365C284.5 365 365 284.5 365 185.5C365 86.4996 284.5 5.99958 185.5 5.99958Z" fill="#23BFCF"/>
<path d="M229.67 123C186.67 127.33 190.84 172.51 196.79 191.12C182.65 180.7 142.2 157.37 121.85 185.12C102.99 210.87 118.18 241.74 144.9 267.12C198.49 238.21 240.79 199.12 272.72 145.28C261.14 129.55 245.88 121.33 229.67 123Z" fill="#68CBD8"/>
<path d="M5.99984 185.5C5.99984 86.4998 86.4998 5.9998 185.5 5.9998C232.679 5.95854 277.965 24.5545 311.5 57.7398C312.19 55.6098 312.86 53.4498 313.5 51.2798C279.021 18.4601 233.245 0.150924 185.644 0.140629C138.042 0.130335 92.2585 18.4197 57.7657 51.2245C23.2729 84.0293 2.71117 128.839 0.334976 176.381C-2.04122 223.923 13.95 270.559 44.9998 306.64L51.4098 304.77C22.1185 271.952 5.95139 229.489 5.99984 185.5Z" fill="#68CBD8"/>
<path d="M185.5 23.0797C153.525 23.0856 122.262 32.5299 95.6324 50.2289C69.0023 67.9278 48.1892 93.0937 35.802 122.572C23.4148 152.05 20.0048 184.529 25.9994 215.938C31.9939 247.346 47.1263 276.286 69.4997 299.13C90.0093 292.424 110.053 284.37 129.5 275.02C101.29 256.14 76.8697 231.61 61.9997 202.75C30.9997 142.41 83.6297 96.9997 131 92.8097C120.53 112.21 112.88 122.92 102.46 133.51C133.76 118.37 147.42 81.3897 162.3 67.9997C177.18 54.6097 211.18 31.2697 256.85 74.4497C269.53 86.4497 279.12 102.67 286.03 120.81C293.27 106.179 299.686 91.156 305.25 75.8097C290.053 59.1766 271.554 45.8962 250.935 36.8168C230.316 27.7374 208.029 23.0588 185.5 23.0797Z" fill="#68CBD8"/>
<path d="M444.42 91.0797H422C420.716 91.0797 419.485 91.5896 418.577 92.4973C417.67 93.405 417.16 94.6361 417.16 95.9197V255.76C417.16 257.043 417.67 258.274 418.577 259.182C419.485 260.09 420.716 260.6 422 260.6H545.6C546.882 260.602 548.112 261.113 549.019 262.02C549.926 262.927 550.437 264.157 550.44 265.44V293.21C550.44 294.493 550.95 295.724 551.857 296.632C552.765 297.54 553.996 298.05 555.28 298.05H573.94C575.157 298.051 576.33 297.594 577.225 296.769C578.12 295.945 578.672 294.813 578.77 293.6L583.34 236.89C583.392 236.223 583.306 235.553 583.087 234.922C582.868 234.29 582.521 233.71 582.068 233.219C581.614 232.728 581.064 232.336 580.452 232.068C579.839 231.799 579.178 231.66 578.51 231.66H558.2C556.917 231.657 555.687 231.146 554.78 230.239C553.873 229.332 553.362 228.103 553.36 226.82V95.9197C553.357 94.6369 552.846 93.4073 551.939 92.5002C551.032 91.5931 549.803 91.0824 548.52 91.0797H526.58C525.944 91.0797 525.315 91.2049 524.727 91.4481C524.14 91.6914 523.607 92.0479 523.157 92.4973C522.708 92.9468 522.351 93.4803 522.108 94.0675C521.865 94.6547 521.74 95.2841 521.74 95.9197V226.82C521.734 228.102 521.223 229.33 520.316 230.236C519.41 231.143 518.182 231.654 516.9 231.66H454.1C452.818 231.654 451.59 231.143 450.683 230.236C449.777 229.33 449.265 228.102 449.26 226.82V95.9197C449.26 94.6361 448.75 93.405 447.842 92.4973C446.934 91.5896 445.703 91.0797 444.42 91.0797ZM684.16 190.43C681.16 227.89 665.52 234.58 633.16 234.58C622.205 234.465 611.295 233.143 600.63 230.64C600.011 230.473 599.365 230.435 598.73 230.526C598.096 230.617 597.487 230.836 596.94 231.17C596.386 231.492 595.904 231.925 595.524 232.441C595.144 232.957 594.874 233.545 594.73 234.17L590.04 253.25C589.89 253.874 589.865 254.521 589.967 255.155C590.068 255.788 590.294 256.395 590.632 256.941C590.969 257.487 591.411 257.96 591.933 258.334C592.454 258.708 593.045 258.975 593.67 259.12C608.498 262.253 623.604 263.888 638.76 264C692.51 264 719.51 243.33 719.51 174.26C719.51 104.94 692.51 86.9497 638.76 86.9497C623.599 87.1241 608.495 88.8362 593.68 92.0597C593.048 92.2048 592.452 92.4749 591.927 92.8541C591.401 93.2334 590.957 93.714 590.621 94.2677C590.284 94.8214 590.062 95.437 589.968 96.0779C589.873 96.7189 589.908 97.3724 590.07 97.9997L594.73 116.61C594.884 117.228 595.159 117.81 595.539 118.322C595.919 118.833 596.396 119.265 596.944 119.591C597.491 119.917 598.098 120.132 598.729 120.223C599.36 120.314 600.002 120.278 600.62 120.12C611.292 117.617 622.208 116.295 633.17 116.18C663.83 116.18 679.42 120.77 683.65 152.53C683.741 153.214 683.685 153.909 683.485 154.569C683.286 155.23 682.948 155.84 682.493 156.359C682.038 156.878 681.478 157.293 680.85 157.578C680.222 157.863 679.54 158.01 678.85 158.01H616.85C615.574 158.01 614.349 158.512 613.441 159.409C612.533 160.306 612.015 161.524 612 162.8V180.36C612 180.995 612.125 181.625 612.368 182.212C612.611 182.799 612.968 183.333 613.417 183.782C613.867 184.232 614.4 184.588 614.987 184.831C615.575 185.075 616.204 185.2 616.84 185.2H679.32C679.988 185.2 680.649 185.339 681.262 185.608C681.874 185.876 682.424 186.268 682.878 186.759C683.331 187.25 683.678 187.83 683.897 188.462C684.116 189.093 684.202 189.763 684.15 190.43H684.16ZM732 174.26C732 243.33 757.78 264 811.53 264C826.285 263.898 840.991 262.266 855.41 259.13C856.035 258.986 856.626 258.72 857.148 258.346C857.669 257.973 858.112 257.499 858.448 256.952C858.785 256.406 859.01 255.798 859.11 255.164C859.21 254.531 859.182 253.883 859.03 253.26L854.34 234.19C854.187 233.566 853.911 232.979 853.529 232.463C853.147 231.947 852.666 231.513 852.114 231.185C851.561 230.857 850.949 230.643 850.314 230.554C849.678 230.466 849.03 230.505 848.41 230.67C838.164 233.168 827.665 234.479 817.12 234.58C780.12 234.58 766.29 226.58 766.29 174.5C766.29 122.42 780.16 116.13 817.12 116.13C827.672 116.228 838.178 117.544 848.43 120.05C849.05 120.212 849.695 120.249 850.33 120.16C850.964 120.071 851.575 119.857 852.126 119.531C852.678 119.205 853.159 118.772 853.542 118.259C853.926 117.745 854.203 117.161 854.36 116.54L859 97.9397C859.162 97.3183 859.195 96.6703 859.097 96.0357C858.999 95.401 858.772 94.7932 858.43 94.2497C858.107 93.6981 857.674 93.219 857.158 92.8422C856.642 92.4654 856.053 92.199 855.43 92.0597C840.998 88.8314 826.267 87.1353 811.48 86.9997C757.73 86.9997 731.95 105 731.95 174.31L732 174.26ZM1011.51 91.0797H980.52C979.645 91.0674 978.785 91.2973 978.033 91.7438C977.281 92.1903 976.667 92.8361 976.26 93.6097C956.36 130.3 934.26 167.68 911.69 204.5C911.14 205.408 910.308 206.111 909.32 206.501C908.332 206.891 907.244 206.946 906.222 206.658C905.2 206.369 904.301 205.753 903.663 204.905C903.025 204.056 902.683 203.021 902.69 201.96V95.9597C902.69 94.6761 902.18 93.445 901.272 92.5373C900.364 91.6296 899.133 91.1197 897.85 91.1197H876C874.716 91.1197 873.485 91.6296 872.577 92.5373C871.67 93.445 871.16 94.6761 871.16 95.9597V255.76C871.16 257.043 871.67 258.274 872.577 259.182C873.485 260.09 874.716 260.6 876 260.6H910.58C911.395 260.613 912.199 260.414 912.914 260.023C913.629 259.632 914.231 259.063 914.66 258.37C935.66 225.48 956.48 189.87 975.9 154.64C976.418 153.698 977.234 152.956 978.221 152.53C979.207 152.104 980.307 152.019 981.348 152.287C982.388 152.555 983.31 153.162 983.967 154.011C984.625 154.861 984.981 155.905 984.98 156.98V255.76C984.98 257.043 985.49 258.274 986.397 259.182C987.305 260.09 988.536 260.6 989.82 260.6H1011.51C1012.79 260.6 1014.02 260.09 1014.93 259.182C1015.84 258.274 1016.35 257.043 1016.35 255.76V95.9197C1016.35 94.6361 1015.84 93.405 1014.93 92.4973C1014.02 91.5896 1012.79 91.0797 1011.51 91.0797Z" fill="#23BFCF"/>
</svg>
