<svg xmlns="http://www.w3.org/2000/svg" viewBox="0 0 1016.3 371"><defs><style>.cls-1{fill:#23bfcf;}.cls-2{fill:#68cbd8;}</style></defs><g id="&#x421;&#x43B;&#x43E;&#x439;_2" data-name="&#x421;&#x43B;&#x43E;&#x439; 2"><g id="&#x421;&#x43B;&#x43E;&#x439;_2-2" data-name="&#x421;&#x43B;&#x43E;&#x439; 2"><path class="cls-1" d="M185.5,23.08A162.42,162.42,0,1,0,347.92,185.5,162.42,162.42,0,0,0,185.5,23.08ZM289.11,268c18.11-87.6-17.5-149.27-59.44-145-43,4.33-38.83,49.51-32.88,68.12-14.14-10.42-54.59-33.75-74.94-6C84.9,235.6,178.68,305.73,233.77,315.66,170.73,307.22,94.05,265,62,202.75,31,142.41,83.63,97,131,92.81c-10.47,19.4-18.12,30.11-28.54,40.7C133.76,118.37,147.42,81.39,162.3,68s48.88-36.73,94.55,6.45C305.08,120.06,308.71,226.82,289.11,268ZM185.5,371A185.55,185.55,0,0,1,113.29,14.58,185.55,185.55,0,0,1,257.71,356.42,184.46,184.46,0,0,1,185.5,371Zm0-365C86.5,6,6,86.5,6,185.5S86.5,365,185.5,365,365,284.5,365,185.5,284.5,6,185.5,6Z"></path><path class="cls-2" d="M229.67,123c-43,4.33-38.83,49.51-32.88,68.12-14.14-10.42-54.59-33.75-74.94-6-18.86,25.75-3.67,56.62,23.05,82,53.59-28.91,95.89-68,127.82-121.84C261.14,129.55,245.88,121.33,229.67,123Z"></path><path class="cls-2" d="M6,185.5C6,86.5,86.5,6,185.5,6a178.91,178.91,0,0,1,126,51.74c.69-2.13,1.36-4.29,2-6.46A185.5,185.5,0,0,0,45,306.64l6.41-1.87A178.82,178.82,0,0,1,6,185.5Z"></path><path class="cls-2" d="M185.5,23.08a162.41,162.41,0,0,0-116,276.05,489.5,489.5,0,0,0,60-24.11C101.29,256.14,76.87,231.61,62,202.75,31,142.41,83.63,97,131,92.81c-10.47,19.4-18.12,30.11-28.54,40.7C133.76,118.37,147.42,81.39,162.3,68s48.88-36.73,94.55,6.45c12.68,12,22.27,28.22,29.18,46.36a438.1,438.1,0,0,0,19.22-45A162,162,0,0,0,185.5,23.08Z"></path><path class="cls-1" d="M444.42,91.08H422a4.84,4.84,0,0,0-4.84,4.84V255.76A4.84,4.84,0,0,0,422,260.6H545.6a4.85,4.85,0,0,1,4.84,4.84v27.77a4.84,4.84,0,0,0,4.84,4.84h18.66a4.84,4.84,0,0,0,4.83-4.45l4.57-56.71a4.85,4.85,0,0,0-4.83-5.23H558.2a4.85,4.85,0,0,1-4.84-4.84V95.92a4.85,4.85,0,0,0-4.84-4.84H526.58a4.84,4.84,0,0,0-4.84,4.84v130.9a4.86,4.86,0,0,1-4.84,4.84H454.1a4.86,4.86,0,0,1-4.84-4.84V95.92a4.84,4.84,0,0,0-4.84-4.84Zm239.74,99.35c-3,37.46-18.64,44.15-51,44.15a149.21,149.21,0,0,1-32.53-3.94,4.73,4.73,0,0,0-3.69.53,4.69,4.69,0,0,0-2.21,3l-4.69,19.08a4.86,4.86,0,0,0,3.63,5.87A226.23,226.23,0,0,0,638.76,264c53.75,0,80.75-20.67,80.75-89.74,0-69.32-27-87.31-80.75-87.31a224.16,224.16,0,0,0-45.08,5.11A4.85,4.85,0,0,0,590.07,98l4.66,18.61a4.83,4.83,0,0,0,5.89,3.51,149.46,149.46,0,0,1,32.55-3.94c30.66,0,46.25,4.59,50.48,36.35a4.84,4.84,0,0,1-4.8,5.48h-62A4.85,4.85,0,0,0,612,162.8v17.56a4.84,4.84,0,0,0,4.84,4.84h62.48a4.85,4.85,0,0,1,4.83,5.23ZM732,174.26c0,69.07,25.78,89.74,79.53,89.74a213.42,213.42,0,0,0,43.88-4.87,4.84,4.84,0,0,0,3.62-5.87l-4.69-19.07a4.83,4.83,0,0,0-5.93-3.52,137.63,137.63,0,0,1-31.29,3.91c-37,0-50.83-8-50.83-60.08s13.87-58.37,50.83-58.37a137.25,137.25,0,0,1,31.31,3.92,4.85,4.85,0,0,0,5.93-3.51L859,97.94a4.7,4.7,0,0,0-.57-3.69,4.65,4.65,0,0,0-3-2.19A210.15,210.15,0,0,0,811.48,87c-53.75,0-79.53,18-79.53,87.31Zm279.51-83.18H980.52a4.74,4.74,0,0,0-4.26,2.53c-19.9,36.69-42,74.07-64.57,110.89a4.85,4.85,0,0,1-9-2.54v-106a4.84,4.84,0,0,0-4.84-4.84H876a4.84,4.84,0,0,0-4.84,4.84V255.76A4.84,4.84,0,0,0,876,260.6h34.58a4.71,4.71,0,0,0,4.08-2.23c21-32.89,41.82-68.5,61.24-103.73a4.84,4.84,0,0,1,9.08,2.34v98.78a4.84,4.84,0,0,0,4.84,4.84h21.69a4.84,4.84,0,0,0,4.84-4.84V95.92a4.84,4.84,0,0,0-4.84-4.84Z"></path></g></g></svg>