<svg width="293" height="37" viewBox="0 0 293 37" fill="none" xmlns="http://www.w3.org/2000/svg">
<path d="M270.389 31.0001C270.469 27.5201 270.509 22.9201 270.509 19.3601C270.509 15.8001 270.509 11.5601 270.389 7.64014H282.789C289.109 7.64014 292.389 8.96014 292.389 13.5201C292.389 17.0801 290.709 18.5601 286.389 18.9201V19.3601C290.869 19.6401 292.989 21.1601 292.989 24.7601C292.989 29.5201 289.909 31.0001 283.269 31.0001H270.389ZM282.189 26.4401C284.749 26.4401 285.869 25.7601 285.869 23.8801C285.869 21.9601 284.749 21.3201 282.149 21.3201H277.589V25.0801V26.4401H282.189ZM281.789 17.2401C284.269 17.2401 285.389 16.6001 285.389 14.7201C285.389 12.8401 284.269 12.2401 281.669 12.2401H277.589V15.7201V17.2401H281.789Z" fill="#0290FC"/>
<path d="M254.738 31.4799C247.098 31.4799 242.858 27.3199 242.858 19.3199C242.858 11.2799 247.098 7.15991 254.738 7.15991C262.378 7.15991 266.618 11.2799 266.618 19.3199C266.618 27.3199 262.378 31.4799 254.738 31.4799ZM254.738 26.0799C256.418 26.0799 257.578 25.5599 258.338 24.4399C259.098 23.3199 259.458 21.6399 259.458 19.3199C259.458 14.5599 257.978 12.5199 254.738 12.5199C253.098 12.5199 251.898 13.0799 251.138 14.1999C250.378 15.3199 250.018 16.9599 250.018 19.3199C250.018 24.0399 251.538 26.0799 254.738 26.0799Z" fill="#0290FC"/>
<path d="M217.342 36.28C217.462 31.32 217.462 26.2 217.462 21.72C217.462 16.64 217.462 12.2 217.342 7.63995H224.782L224.142 11.84H224.582C225.982 8.55995 228.222 7.19995 231.782 7.19995C237.862 7.19995 240.742 11.32 240.742 19.36C240.742 27.36 237.862 31.52 231.782 31.52C228.222 31.52 225.982 30.12 224.582 26.84H224.142C224.502 30.16 224.662 31.52 224.662 33.2V36.28H217.342ZM229.102 26.12C230.742 26.12 231.902 25.56 232.622 24.36C233.342 23.24 233.662 21.6 233.662 19.36C233.662 14.72 232.222 12.56 229.102 12.56C227.462 12.56 226.262 13.12 225.542 14.32C224.862 15.44 224.542 17.08 224.542 19.36C224.542 24 225.982 26.12 229.102 26.12Z" fill="#0290FC"/>
<path d="M201.691 31.4799C194.051 31.4799 189.811 27.3199 189.811 19.3199C189.811 11.2799 194.051 7.15991 201.691 7.15991C209.331 7.15991 213.571 11.2799 213.571 19.3199C213.571 27.3199 209.331 31.4799 201.691 31.4799ZM201.691 26.0799C203.371 26.0799 204.531 25.5599 205.291 24.4399C206.051 23.3199 206.411 21.6399 206.411 19.3199C206.411 14.5599 204.931 12.5199 201.691 12.5199C200.051 12.5199 198.851 13.0799 198.091 14.1999C197.331 15.3199 196.971 16.9599 196.971 19.3199C196.971 24.0399 198.491 26.0799 201.691 26.0799Z" fill="#0290FC"/>
<path d="M168.54 12.8801V7.64014H187.5V12.8801C185.38 12.7601 183.54 12.7201 181.62 12.7201C181.5 19.1201 181.5 25.0801 181.62 31.0001H174.46C174.58 24.5201 174.58 18.8001 174.46 12.7201C172.5 12.7201 170.7 12.7601 168.54 12.8801Z" fill="#0290FC"/>
<path d="M145.154 31.0001L145.234 19.3601L145.154 7.64014H152.554L152.234 16.6801H153.954L159.394 7.64014H167.314L161.634 15.9201C160.474 17.8001 159.354 18.3201 157.714 18.7201V19.1601C159.394 19.5201 160.474 20.2001 161.674 22.1201L167.794 31.0001H159.714L153.994 21.0801H152.234L152.554 31.0001H145.154Z" fill="#0290FC"/>
<path d="M129.504 31.4799C121.864 31.4799 117.624 27.3199 117.624 19.3199C117.624 11.2799 121.864 7.15991 129.504 7.15991C137.144 7.15991 141.384 11.2799 141.384 19.3199C141.384 27.3199 137.144 31.4799 129.504 31.4799ZM129.504 26.0799C131.184 26.0799 132.344 25.5599 133.104 24.4399C133.864 23.3199 134.224 21.6399 134.224 19.3199C134.224 14.5599 132.744 12.5199 129.504 12.5199C127.864 12.5199 126.664 13.0799 125.904 14.1999C125.144 15.3199 124.784 16.9599 124.784 19.3199C124.784 24.0399 126.304 26.0799 129.504 26.0799Z" fill="#0290FC"/>
<path d="M83.9554 36.28C83.9554 31.64 83.9154 29.24 83.7554 25.68H87.0754C89.3954 23.04 89.7954 19.12 89.7954 15.04C89.7954 9.59998 89.7954 5.63998 89.5954 0.47998H110.955C110.795 4.67998 110.755 10.44 110.755 15.2L110.835 25.68H114.475C114.315 30.08 114.315 32.32 114.315 36.28H108.355L108.315 31H89.9554C89.9154 32.8 89.9154 34.48 89.9554 36.28H83.9554ZM103.675 25.68L103.755 15.64C103.755 12.72 103.755 9.19998 103.675 5.87998H94.7954V15.28C94.7954 19.64 93.9954 23.12 91.6754 25.44V25.68H103.675Z" fill="#0290FC"/>
<path d="M69.4645 31.4799C61.8245 31.4799 57.5845 27.3199 57.5845 19.3199C57.5845 11.2799 61.8245 7.15991 69.4645 7.15991C77.1045 7.15991 81.3445 11.2799 81.3445 19.3199C81.3445 27.3199 77.1045 31.4799 69.4645 31.4799ZM69.4645 26.0799C71.1445 26.0799 72.3045 25.5599 73.0645 24.4399C73.8245 23.3199 74.1845 21.6399 74.1845 19.3199C74.1845 14.5599 72.7045 12.5199 69.4645 12.5199C67.8245 12.5199 66.6245 13.0799 65.8645 14.1999C65.1045 15.3199 64.7445 16.9599 64.7445 19.3199C64.7445 24.0399 66.2645 26.0799 69.4645 26.0799Z" fill="#0290FC"/>
<path d="M32.0684 36.28C32.1884 31.32 32.1884 26.2 32.1884 21.72C32.1884 16.64 32.1884 12.2 32.0684 7.63995H39.5084L38.8684 11.84H39.3084C40.7084 8.55995 42.9484 7.19995 46.5084 7.19995C52.5884 7.19995 55.4684 11.32 55.4684 19.36C55.4684 27.36 52.5884 31.52 46.5084 31.52C42.9484 31.52 40.7084 30.12 39.3084 26.84H38.8684C39.2284 30.16 39.3884 31.52 39.3884 33.2V36.28H32.0684ZM43.8284 26.12C45.4684 26.12 46.6284 25.56 47.3484 24.36C48.0684 23.24 48.3884 21.6 48.3884 19.36C48.3884 14.72 46.9484 12.56 43.8284 12.56C42.1884 12.56 40.9884 13.12 40.2684 14.32C39.5884 15.44 39.2684 17.08 39.2684 19.36C39.2684 24 40.7084 26.12 43.8284 26.12Z" fill="#0290FC"/>
<path d="M0.160156 31C0.280156 25.92 0.360156 20.56 0.360156 15.76C0.360156 11.28 0.280156 5.87998 0.160156 0.47998H26.0002C25.8802 5.51998 25.8802 10.96 25.8802 15.76C25.8802 21.16 25.8802 26.28 26.0002 31H18.6802C18.8002 25.96 18.8402 20.52 18.8402 15.72L18.7602 5.83998H7.44016L7.40016 15.72L7.48016 31H0.160156Z" fill="#0290FC"/>
</svg>
