<svg width="210" height="71" viewBox="0 0 210 71" fill="none" xmlns="http://www.w3.org/2000/svg">
<path d="M186.634 64.7701C186.714 61.2901 186.754 56.6901 186.754 53.1301C186.754 49.5701 186.754 45.3301 186.634 41.4102H199.034C205.354 41.4102 208.634 42.7302 208.634 47.2901C208.634 50.8501 206.954 52.3301 202.634 52.6901V53.1301C207.114 53.4101 209.234 54.9301 209.234 58.5301C209.234 63.2901 206.154 64.7701 199.514 64.7701H186.634ZM198.434 60.2101C200.994 60.2101 202.114 59.5301 202.114 57.6501C202.114 55.7301 200.994 55.0901 198.394 55.0901H193.834V58.8501V60.2101H198.434ZM198.034 51.0101C200.514 51.0101 201.634 50.3701 201.634 48.4901C201.634 46.6101 200.514 46.0101 197.914 46.0101H193.834V49.4901V51.0101H198.034Z" fill="#0290FC"/>
<path d="M170.983 65.2499C163.343 65.2499 159.103 61.0899 159.103 53.0899C159.103 45.0499 163.343 40.9299 170.983 40.9299C178.623 40.9299 182.863 45.0499 182.863 53.0899C182.863 61.0899 178.623 65.2499 170.983 65.2499ZM170.983 59.8499C172.663 59.8499 173.823 59.3299 174.583 58.2099C175.343 57.0899 175.703 55.4099 175.703 53.0899C175.703 48.3299 174.223 46.2899 170.983 46.2899C169.343 46.2899 168.143 46.8499 167.383 47.9699C166.623 49.0899 166.263 50.7299 166.263 53.0899C166.263 57.8099 167.783 59.8499 170.983 59.8499Z" fill="#0290FC"/>
<path d="M133.586 70.05C133.706 65.09 133.706 59.97 133.706 55.49C133.706 50.41 133.706 45.97 133.586 41.41H141.026L140.386 45.61H140.826C142.226 42.33 144.466 40.97 148.026 40.97C154.106 40.97 156.986 45.09 156.986 53.13C156.986 61.13 154.106 65.29 148.026 65.29C144.466 65.29 142.226 63.89 140.826 60.61H140.386C140.746 63.93 140.906 65.29 140.906 66.97V70.05H133.586ZM145.346 59.89C146.986 59.89 148.146 59.33 148.866 58.13C149.586 57.01 149.906 55.37 149.906 53.13C149.906 48.49 148.466 46.33 145.346 46.33C143.706 46.33 142.506 46.89 141.786 48.09C141.106 49.21 140.786 50.85 140.786 53.13C140.786 57.77 142.226 59.89 145.346 59.89Z" fill="#0290FC"/>
<path d="M117.936 65.2499C110.296 65.2499 106.056 61.0899 106.056 53.0899C106.056 45.0499 110.296 40.9299 117.936 40.9299C125.576 40.9299 129.816 45.0499 129.816 53.0899C129.816 61.0899 125.576 65.2499 117.936 65.2499ZM117.936 59.8499C119.616 59.8499 120.776 59.3299 121.536 58.2099C122.296 57.0899 122.656 55.4099 122.656 53.0899C122.656 48.3299 121.176 46.2899 117.936 46.2899C116.296 46.2899 115.096 46.8499 114.336 47.9699C113.576 49.0899 113.216 50.7299 113.216 53.0899C113.216 57.8099 114.736 59.8499 117.936 59.8499Z" fill="#0290FC"/>
<path d="M84.7847 46.6501V41.4102H103.745V46.6501C101.625 46.5301 99.7847 46.4901 97.8647 46.4901C97.7447 52.8901 97.7447 58.8501 97.8647 64.7701H90.7047C90.8247 58.2901 90.8247 52.5701 90.7047 46.4901C88.7447 46.4901 86.9447 46.5301 84.7847 46.6501Z" fill="#0290FC"/>
<path d="M61.3984 64.7701L61.4784 53.1301L61.3984 41.4102H68.7984L68.4784 50.4501H70.1984L75.6384 41.4102H83.5584L77.8784 49.6901C76.7184 51.5701 75.5984 52.0901 73.9584 52.4901V52.9301C75.6384 53.2901 76.7184 53.9701 77.9184 55.8901L84.0384 64.7701H75.9584L70.2384 54.8501H68.4784L68.7984 64.7701H61.3984Z" fill="#0290FC"/>
<path d="M45.7486 65.2499C38.1086 65.2499 33.8687 61.0899 33.8687 53.0899C33.8687 45.0499 38.1086 40.9299 45.7486 40.9299C53.3886 40.9299 57.6287 45.0499 57.6287 53.0899C57.6287 61.0899 53.3886 65.2499 45.7486 65.2499ZM45.7486 59.8499C47.4286 59.8499 48.5887 59.3299 49.3487 58.2099C50.1087 57.0899 50.4687 55.4099 50.4687 53.0899C50.4687 48.3299 48.9886 46.2899 45.7486 46.2899C44.1086 46.2899 42.9087 46.8499 42.1487 47.9699C41.3887 49.0899 41.0286 50.7299 41.0286 53.0899C41.0286 57.8099 42.5486 59.8499 45.7486 59.8499Z" fill="#0290FC"/>
<path d="M0.199997 70.05C0.199997 65.41 0.16 63.01 0 59.45H3.32C5.64 56.81 6.04 52.89 6.04 48.81C6.04 43.37 6.04 39.41 5.84 34.25H27.1996C27.0396 38.45 26.9996 44.21 26.9996 48.97L27.0796 59.45H30.7196C30.5596 63.85 30.5596 66.09 30.5596 70.05H24.5996L24.5596 64.77H6.2C6.16 66.57 6.16 68.25 6.2 70.05H0.199997ZM19.9196 59.45L19.9996 49.41C19.9996 46.49 19.9996 42.97 19.9196 39.65H11.04V49.05C11.04 53.41 10.24 56.89 7.92 59.21V59.45H19.9196Z" fill="#0290FC"/>
<path d="M69.3043 30.9999C61.6643 30.9999 57.4243 26.8399 57.4243 18.8399C57.4243 10.7999 61.6643 6.67993 69.3043 6.67993C76.9443 6.67993 81.1843 10.7999 81.1843 18.8399C81.1843 26.8399 76.9443 30.9999 69.3043 30.9999ZM69.3043 25.5999C70.9843 25.5999 72.1443 25.0799 72.9043 23.9599C73.6643 22.8399 74.0243 21.1599 74.0243 18.8399C74.0243 14.0799 72.5443 12.0399 69.3043 12.0399C67.6643 12.0399 66.4643 12.5999 65.7043 13.7199C64.9443 14.8399 64.5843 16.4799 64.5843 18.8399C64.5843 23.5599 66.1043 25.5999 69.3043 25.5999Z" fill="#0290FC"/>
<path d="M31.9082 35.8C32.0282 30.84 32.0282 25.72 32.0282 21.24C32.0282 16.16 32.0282 11.72 31.9082 7.15997H39.3482L38.7082 11.36H39.1482C40.5482 8.07997 42.7882 6.71997 46.3482 6.71997C52.4282 6.71997 55.3082 10.84 55.3082 18.88C55.3082 26.88 52.4282 31.04 46.3482 31.04C42.7882 31.04 40.5482 29.64 39.1482 26.36H38.7082C39.0682 29.68 39.2282 31.04 39.2282 32.72V35.8H31.9082ZM43.6682 25.64C45.3082 25.64 46.4682 25.08 47.1882 23.88C47.9082 22.76 48.2282 21.12 48.2282 18.88C48.2282 14.24 46.7882 12.08 43.6682 12.08C42.0282 12.08 40.8282 12.64 40.1082 13.84C39.4282 14.96 39.1082 16.6 39.1082 18.88C39.1082 23.52 40.5482 25.64 43.6682 25.64Z" fill="#0290FC"/>
<path d="M0 30.52C0.12 25.44 0.2 20.08 0.2 15.28C0.2 10.8 0.12 5.4 0 0H25.84C25.72 5.04 25.72 10.48 25.72 15.28C25.72 20.68 25.72 25.8 25.84 30.52H18.52C18.64 25.48 18.68 20.04 18.68 15.24L18.6 5.36H7.28L7.24 15.24L7.32 30.52H0Z" fill="#0290FC"/>
</svg>
