<svg width="70" height="64" viewBox="0 0 70 64" fill="none" xmlns="http://www.w3.org/2000/svg">
<g clip-path="url(#clip0_2699_122)">
<path d="M33.1501 26.2876C33.4781 26.2876 33.7927 26.1573 34.0246 25.9254C34.2566 25.6935 34.3869 25.3789 34.3869 25.0509C34.3869 24.7229 34.2566 24.4083 34.0246 24.1764C33.7927 23.9445 33.4781 23.8142 33.1501 23.8142H15.851C15.523 23.8142 15.2084 23.9445 14.9765 24.1764C14.7446 24.4083 14.6143 24.7229 14.6143 25.0509C14.6143 25.3789 14.7446 25.6935 14.9765 25.9254C15.2084 26.1573 15.523 26.2876 15.851 26.2876H33.1501ZM15.8547 36.7267H37.2239C37.5519 36.7267 37.8664 36.5964 38.0984 36.3645C38.3303 36.1326 38.4606 35.818 38.4606 35.49C38.4606 35.162 38.3303 34.8475 38.0984 34.6155C37.8664 34.3836 37.5519 34.2533 37.2239 34.2533H15.8534C15.5254 34.2533 15.2109 34.3836 14.979 34.6155C14.747 34.8475 14.6167 35.162 14.6167 35.49C14.6167 35.818 14.747 36.1326 14.979 36.3645C15.2109 36.5964 15.5267 36.7267 15.8547 36.7267ZM15.8547 47.1658H41.7305C42.0585 47.1658 42.373 47.0355 42.605 46.8036C42.8369 46.5717 42.9672 46.2571 42.9672 45.9291C42.9672 45.6011 42.8369 45.2866 42.605 45.0546C42.373 44.8227 42.0585 44.6924 41.7305 44.6924H15.8547C15.5267 44.6924 15.2121 44.8227 14.9802 45.0546C14.7483 45.2866 14.618 45.6011 14.618 45.9291C14.618 46.2571 14.7483 46.5717 14.9802 46.8036C15.2121 47.0355 15.5267 47.1658 15.8547 47.1658ZM56.0726 16.8391C59.3722 13.9254 59.7074 10.7706 57.0175 8.02875C52.2463 4.40147 46.686 7.54396 46.4609 11.9368C46.4494 12.0988 46.4699 12.2615 46.5212 12.4155C46.5725 12.5696 46.6537 12.7121 46.7601 12.8348C46.8665 12.9575 46.9961 13.058 47.1413 13.1307C47.2866 13.2033 47.4447 13.2467 47.6067 13.2582C47.9339 13.2815 48.2569 13.1739 48.5047 12.959C48.6274 12.8526 48.728 12.723 48.8006 12.5778C48.8733 12.4325 48.9166 12.2744 48.9281 12.1124C48.9739 11.546 49.387 8.7411 52.9635 9.00081C54.3635 8.81283 57.0435 10.5343 56.1703 12.8099C55.7659 13.5889 55.2242 14.2886 54.5713 14.8752C53.7872 15.4927 53.1794 16.3056 52.8088 17.2323C52.4383 18.159 52.3181 19.1669 52.4602 20.1547C52.4602 20.4827 52.5905 20.7973 52.8224 21.0292C53.0544 21.2612 53.3689 21.3915 53.6969 21.3915C54.0249 21.3915 54.3395 21.2612 54.5714 21.0292C54.8033 20.7973 54.9336 20.4827 54.9336 20.1547C54.809 19.5508 54.8491 18.9245 55.0497 18.3413C55.2503 17.7582 55.604 17.2398 56.0739 16.8403L56.0726 16.8391ZM53.7971 22.9336C53.4274 22.9336 53.0729 23.0805 52.8115 23.3419C52.5502 23.6033 52.4033 23.9578 52.4033 24.3274C52.4033 24.6971 52.5502 25.0516 52.8115 25.313C53.0729 25.5744 53.4274 25.7212 53.7971 25.7212C54.1667 25.7212 54.5213 25.5744 54.7826 25.313C55.044 25.0516 55.1909 24.6971 55.1909 24.3274C55.1909 23.9578 55.044 23.6033 54.7826 23.3419C54.5213 23.0805 54.1667 22.9336 53.7971 22.9336Z" fill="black"/>
<path d="M69.256 16.7365C69.2543 14.4234 68.7711 12.136 67.8372 10.0199C66.9034 7.90369 65.5393 6.00506 63.8317 4.44477C63.5892 4.2237 63.2688 4.10804 62.9409 4.12323C62.6131 4.13842 62.3047 4.28322 62.0837 4.52577C61.8626 4.76833 61.7469 5.08876 61.7621 5.4166C61.7773 5.74443 61.9221 6.0528 62.1647 6.27387C71.6614 14.8443 65.4382 30.9575 52.6222 30.8969C29.7776 29.3201 37.1014 -4.04652 58.3444 3.78065C58.4928 3.84665 58.6528 3.88269 58.8151 3.88669C58.9775 3.89069 59.139 3.86258 59.2905 3.80398C59.442 3.74537 59.5803 3.65742 59.6977 3.54518C59.8151 3.43294 59.9091 3.29862 59.9744 3.14993C61.0269 0.719782 54.1433 0.107608 52.6234 0.102661C49.6487 0.105254 46.7291 0.905084 44.1685 2.4189C41.6078 3.93272 39.4997 6.10519 38.0636 8.7102C33.9067 7.22322 29.4565 6.74302 25.078 7.309C6.45312 9.39286 -5.03967 30.438 3.24261 47.2363C3.59511 47.9311 3.6809 48.731 3.48377 49.4847L0.0457054 62.3342C-0.00708208 62.5433 -0.00467962 62.7626 0.0526782 62.9706C0.110036 63.1786 0.220385 63.3681 0.372936 63.5207C0.525486 63.6732 0.715015 63.7836 0.922989 63.8409C1.13096 63.8983 1.35026 63.9007 1.55944 63.8479L14.4163 60.4074C15.1747 60.2212 15.9745 60.3088 16.6746 60.6547C20.8334 62.623 25.4119 63.5401 30.0079 63.3255C34.604 63.1108 39.0771 61.771 43.0343 59.4237C46.9916 57.0763 50.312 53.7933 52.7039 49.8628C55.0959 45.9323 56.4862 41.4747 56.7528 36.8813C56.7603 36.5572 56.6403 36.2432 56.4185 36.0067C56.1968 35.7702 55.891 35.6303 55.5671 35.617C55.2432 35.6037 54.927 35.7181 54.6867 35.9356C54.4463 36.1531 54.3009 36.4563 54.2818 36.7799C53.5645 54.5626 33.6806 66.3003 17.7307 58.415C16.4987 57.8188 15.0952 57.6785 13.7695 58.0193L2.98785 60.9033L5.87063 50.1303C6.22012 48.8057 6.07958 47.3995 5.47488 46.1703C-4.31742 25.8968 15.9251 3.46529 37.0433 10.9709C32.8842 21.4879 41.2815 33.5929 52.6222 33.3678C57.0317 33.3632 61.2593 31.6098 64.3777 28.4921C67.496 25.3745 69.2504 21.146 69.256 16.7365Z" fill="black"/>
</g>
<defs>
<clipPath id="clip0_2699_122">
<rect width="69.256" height="64" fill="white"/>
</clipPath>
</defs>
</svg>
