<svg width="64" height="64" viewBox="0 0 64 64" fill="none" xmlns="http://www.w3.org/2000/svg">
<rect width="64" height="64" fill="white"/>
<path d="M47.8155 19.6355L32.3939 12.0658C32.3048 12.0225 32.2071 12 32.108 12C32.009 12 31.9113 12.0225 31.8222 12.0658L16.3887 19.6137C16.278 19.6656 16.1837 19.747 16.1163 19.849C16.0489 19.951 16.011 20.0696 16.0068 20.1918V34.6329C16.0068 36.3904 16.5864 38.42 17.6049 40.3479C18.6245 42.2782 19.9976 43.8879 21.4535 44.8805L31.7329 51.888C31.8405 51.961 31.9675 52 32.0975 52C32.2275 52 32.3546 51.961 32.4622 51.888L42.7372 44.8805C44.1953 43.8867 45.5777 42.2798 46.5956 40.3564C47.614 38.4311 48.1946 36.3986 48.1946 34.633V20.2132C48.1907 20.0914 48.1532 19.9729 48.0864 19.871C48.0195 19.7691 47.9257 19.6876 47.8155 19.6355ZM46.9071 34.6331C46.9071 37.8713 44.7092 41.9913 42.0314 43.817L32.1101 50.577L22.1932 43.817C20.9073 42.9403 19.6691 41.4946 18.7455 39.7467C17.8236 38.0005 17.2943 36.1843 17.2943 34.6331V20.5933L32.1007 13.3608L46.9071 20.6143V34.6331Z" fill="#23BFCF"/>
<path d="M20.4216 31.9999C20.4216 38.4396 25.6606 43.679 32.1007 43.679C38.5404 43.679 43.7795 38.4396 43.7795 31.9999C43.7795 25.5601 38.5404 20.3207 32.1007 20.3207C25.6606 20.3207 20.4216 25.5601 20.4216 31.9999V31.9999ZM32.1007 21.6083C37.8395 21.6083 42.492 26.2608 42.492 31.9999C42.492 37.739 37.8395 42.3915 32.1007 42.3915C26.3616 42.3915 21.7091 37.739 21.7091 31.9999C21.7154 26.2636 26.3641 21.6149 32.1007 21.6083Z" fill="#23BFCF"/>
<path d="M28.7716 38.4623C28.8657 38.6155 29.0027 38.7376 29.1657 38.8134C29.3287 38.8893 29.5104 38.9155 29.6881 38.8888C29.866 38.8622 30.0321 38.7838 30.1657 38.6634C30.2994 38.543 30.3945 38.3859 30.4394 38.2117L30.6792 37.2832C30.9092 36.3936 31.3642 35.578 32.0004 34.915L32.012 34.9031L32.0372 34.9273C32.7332 35.593 33.2364 36.4344 33.4938 37.3625L33.7374 38.2407C33.7851 38.4126 33.8819 38.5668 34.016 38.6845C34.1501 38.8021 34.3156 38.8781 34.4922 38.903C34.6688 38.9279 34.8488 38.9007 35.0102 38.8248C35.1716 38.749 35.3074 38.6277 35.4009 38.4758C37.7439 34.6658 38.4314 31.0176 38.6329 29.1816C38.6911 28.6453 38.6306 28.1027 38.4558 27.5924C38.2809 27.082 37.996 26.6164 37.6211 26.2285C37.2462 25.8405 36.7906 25.5398 36.2866 25.3475C35.7825 25.1553 35.2424 25.0763 34.7044 25.116C34.1099 25.1603 31.8436 25.7261 31.1133 25.9112C30.9156 25.8092 30.7244 25.6948 30.541 25.5689C30.2151 25.3533 29.9069 25.1499 29.5014 25.1179C28.9616 25.0753 28.419 25.1522 27.9122 25.3432C27.4055 25.5342 26.9471 25.8345 26.5697 26.2228C26.1922 26.6112 25.905 27.0779 25.7285 27.5899C25.552 28.1018 25.4905 28.6464 25.5484 29.1848C25.7496 31.0176 26.436 34.6598 28.7716 38.4623ZM27.4885 27.1251C27.7341 26.871 28.0328 26.6744 28.3633 26.5493C28.6939 26.4243 29.0479 26.3739 29.4002 26.4019C29.4744 26.4075 29.6724 26.5386 29.8315 26.6433C30.4932 27.0805 31.6006 27.8122 34.0071 27.5115C34.1218 27.4972 34.2306 27.4523 34.3219 27.3814C34.4133 27.3106 34.4838 27.2164 34.5261 27.1088C34.5686 27.0013 34.5812 26.8843 34.5628 26.7702C34.5444 26.656 34.4955 26.549 34.4214 26.4603C34.5928 26.4273 34.7248 26.4056 34.7999 26.3999C35.1494 26.3742 35.5003 26.4256 35.8277 26.5505C36.1551 26.6754 36.4511 26.8707 36.6946 27.1227C36.9382 27.3747 37.1234 27.6771 37.2371 28.0086C37.3508 28.3401 37.3902 28.6925 37.3526 29.0409C37.0198 31.8572 36.1331 34.5799 34.7436 37.0521L34.7342 37.0181C34.4148 35.8666 33.7905 34.8227 32.9271 33.9965L32.8302 33.904C32.3566 33.4517 31.6063 33.4677 31.1517 33.9396L31.0712 34.0229C30.2819 34.8456 29.7174 35.8574 29.432 36.9612L29.4172 37.0185C28.0391 34.5559 27.1591 31.8462 26.8274 29.0438C26.7892 28.6951 26.8286 28.3421 26.9429 28.0104C27.0572 27.6787 27.2435 27.3763 27.4885 27.1251Z" fill="#23BFCF"/>
</svg>
