<svg width="96" height="98" viewBox="0 0 96 98" fill="none" xmlns="http://www.w3.org/2000/svg">
<path d="M22.8641 94.5H10.2529C8.44066 94.4981 6.70313 93.7601 5.42166 92.4477C4.14018 91.1353 3.41946 89.3559 3.41765 87.5V74.585C3.41765 74.1209 3.23761 73.6757 2.91714 73.3476C2.59668 73.0194 2.16203 72.835 1.70882 72.835C1.25562 72.835 0.82097 73.0194 0.500503 73.3476C0.180037 73.6757 0 74.1209 0 74.585V87.5C0.00316579 90.2838 1.0844 92.9526 3.00651 94.921C4.92863 96.8895 7.53466 97.9968 10.2529 98H22.8641C23.3173 98 23.7519 97.8156 24.0724 97.4874C24.3928 97.1593 24.5729 96.7141 24.5729 96.25C24.5729 95.7859 24.3928 95.3407 24.0724 95.0126C23.7519 94.6844 23.3173 94.5 22.8641 94.5ZM85.4412 0H72.8301C72.3768 0 71.9422 0.184375 71.6217 0.512563C71.3013 0.840752 71.1212 1.28587 71.1212 1.75C71.1212 2.21413 71.3013 2.65925 71.6217 2.98744C71.9422 3.31563 72.3768 3.5 72.8301 3.5H85.4412C87.2535 3.50185 88.991 4.23995 90.2725 5.5523C91.5539 6.86465 92.2747 8.64405 92.2765 10.5V23.415C92.2765 23.8791 92.4565 24.3242 92.777 24.6524C93.0974 24.9806 93.5321 25.165 93.9853 25.165C94.4385 25.165 94.8732 24.9806 95.1936 24.6524C95.5141 24.3242 95.6941 23.8791 95.6941 23.415V10.5C95.691 7.71622 94.6097 5.04739 92.6876 3.07896C90.7655 1.11053 88.1595 0.00324207 85.4412 0ZM93.9853 72.835C93.5321 72.835 93.0974 73.0194 92.777 73.3476C92.4565 73.6757 92.2765 74.1209 92.2765 74.585V87.5C92.2747 89.3559 91.5539 91.1353 90.2725 92.4477C88.991 93.7601 87.2535 94.4981 85.4412 94.5H72.8301C72.3768 94.5 71.9422 94.6844 71.6217 95.0126C71.3013 95.3407 71.1212 95.7859 71.1212 96.25C71.1212 96.7141 71.3013 97.1593 71.6217 97.4874C71.9422 97.8156 72.3768 98 72.8301 98H85.4412C88.1595 97.9968 90.7655 96.8895 92.6876 94.921C94.6097 92.9526 95.691 90.2838 95.6941 87.5V74.585C95.6941 74.1209 95.5141 73.6757 95.1936 73.3476C94.8732 73.0194 94.4385 72.835 93.9853 72.835ZM1.70882 25.165C2.16203 25.165 2.59668 24.9806 2.91714 24.6524C3.23761 24.3242 3.41765 23.8791 3.41765 23.415V10.5C3.41946 8.64405 4.14018 6.86465 5.42166 5.5523C6.70313 4.23995 8.44066 3.50185 10.2529 3.5H22.8641C23.3173 3.5 23.7519 3.31563 24.0724 2.98744C24.3928 2.65925 24.5729 2.21413 24.5729 1.75C24.5729 1.28587 24.3928 0.840752 24.0724 0.512563C23.7519 0.184375 23.3173 0 22.8641 0H10.2529C7.53466 0.00324207 4.92863 1.11053 3.00651 3.07896C1.0844 5.04739 0.00316579 7.71622 0 10.5V23.415C0 23.8791 0.180037 24.3242 0.500503 24.6524C0.82097 24.9806 1.25562 25.165 1.70882 25.165Z" fill="#23BFCF"/>
<mask id="path-2-outside-1_2706_184" maskUnits="userSpaceOnUse" x="12.8472" y="30.0507" width="70" height="22" fill="black">
<rect fill="white" x="12.8472" y="30.0507" width="70" height="22"/>
<path d="M15.0611 43.9827H16.3685C16.3331 45.0007 16.5022 46.0153 16.8656 46.9668C17.2291 47.9183 17.7797 48.7872 18.4847 49.5223C19.1898 50.2573 20.035 50.8436 20.9706 51.2463C21.9061 51.6491 22.9128 51.8603 23.9314 51.8673H31.4104C32.6746 51.8682 33.9187 51.5508 35.0279 50.9442C36.137 50.3376 37.0756 49.4615 37.7569 48.3966C38.5854 49.6298 39.741 50.6078 41.0942 51.2211C42.4474 51.8343 43.9446 52.0585 45.4181 51.8685C45.74 51.8685 46.0488 51.7406 46.2765 51.5129C46.5041 51.2853 46.632 50.9765 46.632 50.6545C46.632 50.3326 46.5041 50.0238 46.2765 49.7962C46.0488 49.5685 45.74 49.4406 45.4181 49.4406C41.877 49.8084 38.8749 47.735 38.9721 43.9827H43.4794V44.7099C43.4804 45.3535 43.7365 45.9705 44.1916 46.4256C44.6467 46.8807 45.2637 47.1368 45.9073 47.1378H49.7846C50.4282 47.1368 51.0452 46.8807 51.5003 46.4256C51.9554 45.9705 52.2115 45.3535 52.2125 44.7099V43.9815H56.7235C56.7599 44.6808 56.6544 45.3803 56.4132 46.0377C56.1721 46.6951 55.8004 47.297 55.3205 47.8069C54.8406 48.3169 54.2625 48.7244 53.6209 49.005C52.9793 49.2855 52.2875 49.4333 51.5873 49.4394H50.2763C49.9543 49.4394 49.6455 49.5673 49.4179 49.7949C49.1902 50.0226 49.0623 50.3314 49.0623 50.6533C49.0623 50.9753 49.1902 51.2841 49.4179 51.5117C49.6455 51.7394 49.9543 51.8673 50.2763 51.8673C51.7495 52.0551 53.246 51.83 54.5988 51.2169C55.9516 50.6039 57.1075 49.6271 57.9374 48.3954C58.6183 49.4592 59.5557 50.3346 60.6634 50.9413C61.7711 51.548 63.0136 51.8664 64.2766 51.8673H71.7569C72.7754 51.8601 73.7822 51.6488 74.7177 51.246C75.6532 50.8432 76.4985 50.257 77.2036 49.522C77.9087 48.787 78.4594 47.9181 78.823 46.9667C79.1867 46.0153 79.356 45.0007 79.321 43.9827H80.6332C80.9552 43.9827 81.264 43.8548 81.4916 43.6272C81.7193 43.3995 81.8472 43.0908 81.8472 42.7688C81.8472 42.4468 81.7193 42.1381 81.4916 41.9104C81.264 41.6828 80.9552 41.5549 80.6332 41.5549H79.3222V36.8836C79.3744 35.887 78.958 34.3878 77.6603 34.7277C77.3495 34.811 77.0846 35.0144 76.9237 35.293C76.7627 35.5716 76.719 35.9027 76.802 36.2135C77.0193 36.4806 76.8348 41.1373 76.8943 41.5549H72.3906V40.8326C72.3896 40.1887 72.1334 39.5716 71.678 39.1164C71.2226 38.6613 70.6053 38.4053 69.9615 38.4047H66.0842C65.4406 38.4056 64.8236 38.6618 64.3685 39.1169C63.9134 39.572 63.6573 40.1889 63.6563 40.8326V41.5536H59.1526V36.8836C59.1977 36.262 59.3766 35.6574 59.677 35.1113C59.8454 34.7267 60.1018 34.3871 60.4255 34.1199C60.7493 33.8527 61.1313 33.6654 61.5408 33.573C61.9503 33.4806 62.3757 33.4857 62.7829 33.5881C63.19 33.6904 63.5674 33.887 63.8845 34.162C64.8009 35.2306 66.0985 35.899 67.5006 36.0246C68.9028 36.1502 70.2985 35.7232 71.3903 34.8345C71.7448 34.3864 72.2054 34.0337 72.7303 33.8082C73.2553 33.5827 73.8282 33.4915 74.3972 33.5429C74.7124 33.609 75.0409 33.5473 75.3107 33.3714C75.5804 33.1954 75.7693 32.9196 75.8357 32.6045C76.0603 31.4622 74.8889 30.9863 73.9189 31.0676C73.1353 31.0961 72.3656 31.2828 71.656 31.6166C70.9465 31.9504 70.3119 32.4244 69.7903 33.0099C69.2941 33.4256 68.6676 33.6537 68.0202 33.6541C67.3729 33.6545 66.746 33.4274 66.2493 33.0124L65.493 32.3411C64.9511 31.8693 64.3158 31.517 63.6286 31.3073C62.9415 31.0975 62.2178 31.0349 61.5048 31.1235C60.7918 31.2122 60.1055 31.4501 59.4906 31.8218C58.8757 32.1934 58.3461 32.6905 57.9362 33.2806C57.4672 32.6276 56.8544 32.0911 56.1451 31.7125C55.4358 31.3339 54.649 31.1234 53.8454 31.0971C53.0419 31.0708 52.243 31.2295 51.5105 31.561C50.778 31.8924 50.1314 32.3878 49.6207 33.0087C49.123 33.4248 48.4948 33.6525 47.8461 33.652C47.1974 33.6516 46.5695 33.423 46.0724 33.0063C45.5649 32.3806 44.9193 31.881 44.1863 31.5466C43.4534 31.2122 42.6529 31.0522 41.8477 31.079C41.0425 31.1058 40.2544 31.3187 39.5453 31.7011C38.8362 32.0836 38.2253 32.625 37.7606 33.2831C37.2951 32.6247 36.6836 32.0832 35.9738 31.7008C35.264 31.3184 34.4753 31.1057 33.6695 31.0792C32.8637 31.0528 32.0627 31.2133 31.3294 31.5483C30.596 31.8833 29.9502 32.3836 29.4426 33.0099C28.9462 33.4264 28.3189 33.6546 27.6709 33.6546C27.0229 33.6546 26.3956 33.4264 25.8992 33.0099L25.1368 32.3386C21.4489 29.152 16.4037 32.3386 16.3697 36.8788V41.5536H15.0611C14.7392 41.5536 14.4304 41.6815 14.2027 41.9092C13.9751 42.1369 13.8472 42.4456 13.8472 42.7676C13.8472 43.0895 13.9751 43.3983 14.2027 43.626C14.4304 43.8536 14.7392 43.9827 15.0611 43.9827ZM34.8641 48.1028C33.9196 48.963 32.6879 49.4392 31.4104 49.4382H23.9301C23.2301 49.4324 22.5385 49.2849 21.8971 49.0046C21.2556 48.7243 20.6776 48.3169 20.1979 47.8071C19.7181 47.2973 19.3466 46.6957 19.1057 46.0384C18.8649 45.3811 18.7596 44.6818 18.7964 43.9827H23.3038V44.7099C23.3047 45.3535 23.5608 45.9705 24.0159 46.4256C24.471 46.8807 25.088 47.1368 25.7316 47.1378H29.609C30.2526 47.1368 30.8695 46.8807 31.3247 46.4256C31.7798 45.9705 32.0359 45.3535 32.0368 44.7099V43.9815H36.5418C36.5839 44.7498 36.4553 45.5178 36.1653 46.2304C35.8752 46.943 35.4308 47.5825 34.8641 48.1028ZM29.6102 44.7099H25.7316V40.8326H29.609L29.6102 44.7099ZM45.9073 44.7099V40.8326H49.7846L49.7858 44.7099H45.9073ZM69.9603 40.8326L69.9615 44.7099H66.083V40.8326H69.9603ZM63.6551 43.9827V44.7099C63.656 45.3535 63.9121 45.9705 64.3673 46.4256C64.8224 46.8807 65.4393 47.1368 66.083 47.1378H69.9603C70.6039 47.1368 71.2209 46.8807 71.676 46.4256C72.1311 45.9705 72.3872 45.3535 72.3882 44.7099V43.9815H76.8919C76.929 44.6809 76.8239 45.3805 76.5832 46.0382C76.3424 46.6958 75.9708 47.2979 75.4909 47.808C75.011 48.318 74.4327 48.7256 73.7909 49.006C73.1492 49.2864 72.4572 49.4338 71.7569 49.4394H64.2766C63.0013 49.4388 61.772 48.9627 60.829 48.1041C60.2629 47.5833 59.8191 46.9437 59.5292 46.2311C59.2394 45.5186 59.1108 44.7508 59.1526 43.9827H63.6551ZM39.4904 35.1186C39.6585 34.7323 39.9151 34.3911 40.2397 34.1226C40.5642 33.8542 40.9475 33.6659 41.3584 33.5732C41.7692 33.4805 42.1962 33.486 42.6045 33.5891C43.0129 33.6922 43.3913 33.8902 43.7089 34.1668L44.4712 34.8321C45.4159 35.6271 46.6108 36.0633 47.8455 36.0638C49.0802 36.0642 50.2755 35.6289 51.2207 34.8345C51.5321 34.4549 51.9159 34.1411 52.3499 33.9114C52.7838 33.6817 53.2591 33.5408 53.7481 33.4967C55.5387 33.453 56.6227 35.2934 56.7235 36.8836V41.5536H52.2125V40.8326C52.2115 40.1889 51.9554 39.572 51.5003 39.1169C51.0452 38.6618 50.4282 38.4056 49.7846 38.4047H45.9073C45.2637 38.4056 44.6467 38.6618 44.1916 39.1169C43.7365 39.572 43.4804 40.1889 43.4794 40.8326V41.5536H38.9708V36.8788C39.0168 36.2619 39.1947 35.6619 39.4904 35.1186ZM18.7964 36.8788C19.0756 33.674 21.9878 32.2597 24.2931 34.8345C25.3864 35.7244 26.7841 36.1522 28.1882 36.0265C29.5923 35.9009 30.8918 35.2319 31.8098 34.162C32.1274 33.8868 32.5052 33.6901 32.9128 33.5877C33.3204 33.4853 33.7463 33.4802 34.1562 33.5727C34.5661 33.6652 34.9486 33.8527 35.2727 34.1202C35.5968 34.3877 35.8536 34.7276 36.0222 35.1125C36.3211 35.6589 36.4983 36.2635 36.5418 36.8848V41.5536H32.038V40.8326C32.0371 40.1887 31.7808 39.5716 31.3254 39.1164C30.8701 38.6613 30.2528 38.4053 29.609 38.4047H25.7316C25.088 38.4056 24.471 38.6618 24.0159 39.1169C23.5608 39.572 23.3047 40.1889 23.3038 40.8326V41.5536H18.7952L18.7964 36.8788Z"/>
</mask>
<path d="M15.0611 43.9827H16.3685C16.3331 45.0007 16.5022 46.0153 16.8656 46.9668C17.2291 47.9183 17.7797 48.7872 18.4847 49.5223C19.1898 50.2573 20.035 50.8436 20.9706 51.2463C21.9061 51.6491 22.9128 51.8603 23.9314 51.8673H31.4104C32.6746 51.8682 33.9187 51.5508 35.0279 50.9442C36.137 50.3376 37.0756 49.4615 37.7569 48.3966C38.5854 49.6298 39.741 50.6078 41.0942 51.2211C42.4474 51.8343 43.9446 52.0585 45.4181 51.8685C45.74 51.8685 46.0488 51.7406 46.2765 51.5129C46.5041 51.2853 46.632 50.9765 46.632 50.6545C46.632 50.3326 46.5041 50.0238 46.2765 49.7962C46.0488 49.5685 45.74 49.4406 45.4181 49.4406C41.877 49.8084 38.8749 47.735 38.9721 43.9827H43.4794V44.7099C43.4804 45.3535 43.7365 45.9705 44.1916 46.4256C44.6467 46.8807 45.2637 47.1368 45.9073 47.1378H49.7846C50.4282 47.1368 51.0452 46.8807 51.5003 46.4256C51.9554 45.9705 52.2115 45.3535 52.2125 44.7099V43.9815H56.7235C56.7599 44.6808 56.6544 45.3803 56.4132 46.0377C56.1721 46.6951 55.8004 47.297 55.3205 47.8069C54.8406 48.3169 54.2625 48.7244 53.6209 49.005C52.9793 49.2855 52.2875 49.4333 51.5873 49.4394H50.2763C49.9543 49.4394 49.6455 49.5673 49.4179 49.7949C49.1902 50.0226 49.0623 50.3314 49.0623 50.6533C49.0623 50.9753 49.1902 51.2841 49.4179 51.5117C49.6455 51.7394 49.9543 51.8673 50.2763 51.8673C51.7495 52.0551 53.246 51.83 54.5988 51.2169C55.9516 50.6039 57.1075 49.6271 57.9374 48.3954C58.6183 49.4592 59.5557 50.3346 60.6634 50.9413C61.7711 51.548 63.0136 51.8664 64.2766 51.8673H71.7569C72.7754 51.8601 73.7822 51.6488 74.7177 51.246C75.6532 50.8432 76.4985 50.257 77.2036 49.522C77.9087 48.787 78.4594 47.9181 78.823 46.9667C79.1867 46.0153 79.356 45.0007 79.321 43.9827H80.6332C80.9552 43.9827 81.264 43.8548 81.4916 43.6272C81.7193 43.3995 81.8472 43.0908 81.8472 42.7688C81.8472 42.4468 81.7193 42.1381 81.4916 41.9104C81.264 41.6828 80.9552 41.5549 80.6332 41.5549H79.3222V36.8836C79.3744 35.887 78.958 34.3878 77.6603 34.7277C77.3495 34.811 77.0846 35.0144 76.9237 35.293C76.7627 35.5716 76.719 35.9027 76.802 36.2135C77.0193 36.4806 76.8348 41.1373 76.8943 41.5549H72.3906V40.8326C72.3896 40.1887 72.1334 39.5716 71.678 39.1164C71.2226 38.6613 70.6053 38.4053 69.9615 38.4047H66.0842C65.4406 38.4056 64.8236 38.6618 64.3685 39.1169C63.9134 39.572 63.6573 40.1889 63.6563 40.8326V41.5536H59.1526V36.8836C59.1977 36.262 59.3766 35.6574 59.677 35.1113C59.8454 34.7267 60.1018 34.3871 60.4255 34.1199C60.7493 33.8527 61.1313 33.6654 61.5408 33.573C61.9503 33.4806 62.3757 33.4857 62.7829 33.5881C63.19 33.6904 63.5674 33.887 63.8845 34.162C64.8009 35.2306 66.0985 35.899 67.5006 36.0246C68.9028 36.1502 70.2985 35.7232 71.3903 34.8345C71.7448 34.3864 72.2054 34.0337 72.7303 33.8082C73.2553 33.5827 73.8282 33.4915 74.3972 33.5429C74.7124 33.609 75.0409 33.5473 75.3107 33.3714C75.5804 33.1954 75.7693 32.9196 75.8357 32.6045C76.0603 31.4622 74.8889 30.9863 73.9189 31.0676C73.1353 31.0961 72.3656 31.2828 71.656 31.6166C70.9465 31.9504 70.3119 32.4244 69.7903 33.0099C69.2941 33.4256 68.6676 33.6537 68.0202 33.6541C67.3729 33.6545 66.746 33.4274 66.2493 33.0124L65.493 32.3411C64.9511 31.8693 64.3158 31.517 63.6286 31.3073C62.9415 31.0975 62.2178 31.0349 61.5048 31.1235C60.7918 31.2122 60.1055 31.4501 59.4906 31.8218C58.8757 32.1934 58.3461 32.6905 57.9362 33.2806C57.4672 32.6276 56.8544 32.0911 56.1451 31.7125C55.4358 31.3339 54.649 31.1234 53.8454 31.0971C53.0419 31.0708 52.243 31.2295 51.5105 31.561C50.778 31.8924 50.1314 32.3878 49.6207 33.0087C49.123 33.4248 48.4948 33.6525 47.8461 33.652C47.1974 33.6516 46.5695 33.423 46.0724 33.0063C45.5649 32.3806 44.9193 31.881 44.1863 31.5466C43.4534 31.2122 42.6529 31.0522 41.8477 31.079C41.0425 31.1058 40.2544 31.3187 39.5453 31.7011C38.8362 32.0836 38.2253 32.625 37.7606 33.2831C37.2951 32.6247 36.6836 32.0832 35.9738 31.7008C35.264 31.3184 34.4753 31.1057 33.6695 31.0792C32.8637 31.0528 32.0627 31.2133 31.3294 31.5483C30.596 31.8833 29.9502 32.3836 29.4426 33.0099C28.9462 33.4264 28.3189 33.6546 27.6709 33.6546C27.0229 33.6546 26.3956 33.4264 25.8992 33.0099L25.1368 32.3386C21.4489 29.152 16.4037 32.3386 16.3697 36.8788V41.5536H15.0611C14.7392 41.5536 14.4304 41.6815 14.2027 41.9092C13.9751 42.1369 13.8472 42.4456 13.8472 42.7676C13.8472 43.0895 13.9751 43.3983 14.2027 43.626C14.4304 43.8536 14.7392 43.9827 15.0611 43.9827ZM34.8641 48.1028C33.9196 48.963 32.6879 49.4392 31.4104 49.4382H23.9301C23.2301 49.4324 22.5385 49.2849 21.8971 49.0046C21.2556 48.7243 20.6776 48.3169 20.1979 47.8071C19.7181 47.2973 19.3466 46.6957 19.1057 46.0384C18.8649 45.3811 18.7596 44.6818 18.7964 43.9827H23.3038V44.7099C23.3047 45.3535 23.5608 45.9705 24.0159 46.4256C24.471 46.8807 25.088 47.1368 25.7316 47.1378H29.609C30.2526 47.1368 30.8695 46.8807 31.3247 46.4256C31.7798 45.9705 32.0359 45.3535 32.0368 44.7099V43.9815H36.5418C36.5839 44.7498 36.4553 45.5178 36.1653 46.2304C35.8752 46.943 35.4308 47.5825 34.8641 48.1028ZM29.6102 44.7099H25.7316V40.8326H29.609L29.6102 44.7099ZM45.9073 44.7099V40.8326H49.7846L49.7858 44.7099H45.9073ZM69.9603 40.8326L69.9615 44.7099H66.083V40.8326H69.9603ZM63.6551 43.9827V44.7099C63.656 45.3535 63.9121 45.9705 64.3673 46.4256C64.8224 46.8807 65.4393 47.1368 66.083 47.1378H69.9603C70.6039 47.1368 71.2209 46.8807 71.676 46.4256C72.1311 45.9705 72.3872 45.3535 72.3882 44.7099V43.9815H76.8919C76.929 44.6809 76.8239 45.3805 76.5832 46.0382C76.3424 46.6958 75.9708 47.2979 75.4909 47.808C75.011 48.318 74.4327 48.7256 73.7909 49.006C73.1492 49.2864 72.4572 49.4338 71.7569 49.4394H64.2766C63.0013 49.4388 61.772 48.9627 60.829 48.1041C60.2629 47.5833 59.8191 46.9437 59.5292 46.2311C59.2394 45.5186 59.1108 44.7508 59.1526 43.9827H63.6551ZM39.4904 35.1186C39.6585 34.7323 39.9151 34.3911 40.2397 34.1226C40.5642 33.8542 40.9475 33.6659 41.3584 33.5732C41.7692 33.4805 42.1962 33.486 42.6045 33.5891C43.0129 33.6922 43.3913 33.8902 43.7089 34.1668L44.4712 34.8321C45.4159 35.6271 46.6108 36.0633 47.8455 36.0638C49.0802 36.0642 50.2755 35.6289 51.2207 34.8345C51.5321 34.4549 51.9159 34.1411 52.3499 33.9114C52.7838 33.6817 53.2591 33.5408 53.7481 33.4967C55.5387 33.453 56.6227 35.2934 56.7235 36.8836V41.5536H52.2125V40.8326C52.2115 40.1889 51.9554 39.572 51.5003 39.1169C51.0452 38.6618 50.4282 38.4056 49.7846 38.4047H45.9073C45.2637 38.4056 44.6467 38.6618 44.1916 39.1169C43.7365 39.572 43.4804 40.1889 43.4794 40.8326V41.5536H38.9708V36.8788C39.0168 36.2619 39.1947 35.6619 39.4904 35.1186ZM18.7964 36.8788C19.0756 33.674 21.9878 32.2597 24.2931 34.8345C25.3864 35.7244 26.7841 36.1522 28.1882 36.0265C29.5923 35.9009 30.8918 35.2319 31.8098 34.162C32.1274 33.8868 32.5052 33.6901 32.9128 33.5877C33.3204 33.4853 33.7463 33.4802 34.1562 33.5727C34.5661 33.6652 34.9486 33.8527 35.2727 34.1202C35.5968 34.3877 35.8536 34.7276 36.0222 35.1125C36.3211 35.6589 36.4983 36.2635 36.5418 36.8848V41.5536H32.038V40.8326C32.0371 40.1887 31.7808 39.5716 31.3254 39.1164C30.8701 38.6613 30.2528 38.4053 29.609 38.4047H25.7316C25.088 38.4056 24.471 38.6618 24.0159 39.1169C23.5608 39.572 23.3047 40.1889 23.3038 40.8326V41.5536H18.7952L18.7964 36.8788Z" fill="#1C3542"/>
<path d="M15.0611 43.9827H16.3685C16.3331 45.0007 16.5022 46.0153 16.8656 46.9668C17.2291 47.9183 17.7797 48.7872 18.4847 49.5223C19.1898 50.2573 20.035 50.8436 20.9706 51.2463C21.9061 51.6491 22.9128 51.8603 23.9314 51.8673H31.4104C32.6746 51.8682 33.9187 51.5508 35.0279 50.9442C36.137 50.3376 37.0756 49.4615 37.7569 48.3966C38.5854 49.6298 39.741 50.6078 41.0942 51.2211C42.4474 51.8343 43.9446 52.0585 45.4181 51.8685C45.74 51.8685 46.0488 51.7406 46.2765 51.5129C46.5041 51.2853 46.632 50.9765 46.632 50.6545C46.632 50.3326 46.5041 50.0238 46.2765 49.7962C46.0488 49.5685 45.74 49.4406 45.4181 49.4406C41.877 49.8084 38.8749 47.735 38.9721 43.9827H43.4794V44.7099C43.4804 45.3535 43.7365 45.9705 44.1916 46.4256C44.6467 46.8807 45.2637 47.1368 45.9073 47.1378H49.7846C50.4282 47.1368 51.0452 46.8807 51.5003 46.4256C51.9554 45.9705 52.2115 45.3535 52.2125 44.7099V43.9815H56.7235C56.7599 44.6808 56.6544 45.3803 56.4132 46.0377C56.1721 46.6951 55.8004 47.297 55.3205 47.8069C54.8406 48.3169 54.2625 48.7244 53.6209 49.005C52.9793 49.2855 52.2875 49.4333 51.5873 49.4394H50.2763C49.9543 49.4394 49.6455 49.5673 49.4179 49.7949C49.1902 50.0226 49.0623 50.3314 49.0623 50.6533C49.0623 50.9753 49.1902 51.2841 49.4179 51.5117C49.6455 51.7394 49.9543 51.8673 50.2763 51.8673C51.7495 52.0551 53.246 51.83 54.5988 51.2169C55.9516 50.6039 57.1075 49.6271 57.9374 48.3954C58.6183 49.4592 59.5557 50.3346 60.6634 50.9413C61.7711 51.548 63.0136 51.8664 64.2766 51.8673H71.7569C72.7754 51.8601 73.7822 51.6488 74.7177 51.246C75.6532 50.8432 76.4985 50.257 77.2036 49.522C77.9087 48.787 78.4594 47.9181 78.823 46.9667C79.1867 46.0153 79.356 45.0007 79.321 43.9827H80.6332C80.9552 43.9827 81.264 43.8548 81.4916 43.6272C81.7193 43.3995 81.8472 43.0908 81.8472 42.7688C81.8472 42.4468 81.7193 42.1381 81.4916 41.9104C81.264 41.6828 80.9552 41.5549 80.6332 41.5549H79.3222V36.8836C79.3744 35.887 78.958 34.3878 77.6603 34.7277C77.3495 34.811 77.0846 35.0144 76.9237 35.293C76.7627 35.5716 76.719 35.9027 76.802 36.2135C77.0193 36.4806 76.8348 41.1373 76.8943 41.5549H72.3906V40.8326C72.3896 40.1887 72.1334 39.5716 71.678 39.1164C71.2226 38.6613 70.6053 38.4053 69.9615 38.4047H66.0842C65.4406 38.4056 64.8236 38.6618 64.3685 39.1169C63.9134 39.572 63.6573 40.1889 63.6563 40.8326V41.5536H59.1526V36.8836C59.1977 36.262 59.3766 35.6574 59.677 35.1113C59.8454 34.7267 60.1018 34.3871 60.4255 34.1199C60.7493 33.8527 61.1313 33.6654 61.5408 33.573C61.9503 33.4806 62.3757 33.4857 62.7829 33.5881C63.19 33.6904 63.5674 33.887 63.8845 34.162C64.8009 35.2306 66.0985 35.899 67.5006 36.0246C68.9028 36.1502 70.2985 35.7232 71.3903 34.8345C71.7448 34.3864 72.2054 34.0337 72.7303 33.8082C73.2553 33.5827 73.8282 33.4915 74.3972 33.5429C74.7124 33.609 75.0409 33.5473 75.3107 33.3714C75.5804 33.1954 75.7693 32.9196 75.8357 32.6045C76.0603 31.4622 74.8889 30.9863 73.9189 31.0676C73.1353 31.0961 72.3656 31.2828 71.656 31.6166C70.9465 31.9504 70.3119 32.4244 69.7903 33.0099C69.2941 33.4256 68.6676 33.6537 68.0202 33.6541C67.3729 33.6545 66.746 33.4274 66.2493 33.0124L65.493 32.3411C64.9511 31.8693 64.3158 31.517 63.6286 31.3073C62.9415 31.0975 62.2178 31.0349 61.5048 31.1235C60.7918 31.2122 60.1055 31.4501 59.4906 31.8218C58.8757 32.1934 58.3461 32.6905 57.9362 33.2806C57.4672 32.6276 56.8544 32.0911 56.1451 31.7125C55.4358 31.3339 54.649 31.1234 53.8454 31.0971C53.0419 31.0708 52.243 31.2295 51.5105 31.561C50.778 31.8924 50.1314 32.3878 49.6207 33.0087C49.123 33.4248 48.4948 33.6525 47.8461 33.652C47.1974 33.6516 46.5695 33.423 46.0724 33.0063C45.5649 32.3806 44.9193 31.881 44.1863 31.5466C43.4534 31.2122 42.6529 31.0522 41.8477 31.079C41.0425 31.1058 40.2544 31.3187 39.5453 31.7011C38.8362 32.0836 38.2253 32.625 37.7606 33.2831C37.2951 32.6247 36.6836 32.0832 35.9738 31.7008C35.264 31.3184 34.4753 31.1057 33.6695 31.0792C32.8637 31.0528 32.0627 31.2133 31.3294 31.5483C30.596 31.8833 29.9502 32.3836 29.4426 33.0099C28.9462 33.4264 28.3189 33.6546 27.6709 33.6546C27.0229 33.6546 26.3956 33.4264 25.8992 33.0099L25.1368 32.3386C21.4489 29.152 16.4037 32.3386 16.3697 36.8788V41.5536H15.0611C14.7392 41.5536 14.4304 41.6815 14.2027 41.9092C13.9751 42.1369 13.8472 42.4456 13.8472 42.7676C13.8472 43.0895 13.9751 43.3983 14.2027 43.626C14.4304 43.8536 14.7392 43.9827 15.0611 43.9827ZM34.8641 48.1028C33.9196 48.963 32.6879 49.4392 31.4104 49.4382H23.9301C23.2301 49.4324 22.5385 49.2849 21.8971 49.0046C21.2556 48.7243 20.6776 48.3169 20.1979 47.8071C19.7181 47.2973 19.3466 46.6957 19.1057 46.0384C18.8649 45.3811 18.7596 44.6818 18.7964 43.9827H23.3038V44.7099C23.3047 45.3535 23.5608 45.9705 24.0159 46.4256C24.471 46.8807 25.088 47.1368 25.7316 47.1378H29.609C30.2526 47.1368 30.8695 46.8807 31.3247 46.4256C31.7798 45.9705 32.0359 45.3535 32.0368 44.7099V43.9815H36.5418C36.5839 44.7498 36.4553 45.5178 36.1653 46.2304C35.8752 46.943 35.4308 47.5825 34.8641 48.1028ZM29.6102 44.7099H25.7316V40.8326H29.609L29.6102 44.7099ZM45.9073 44.7099V40.8326H49.7846L49.7858 44.7099H45.9073ZM69.9603 40.8326L69.9615 44.7099H66.083V40.8326H69.9603ZM63.6551 43.9827V44.7099C63.656 45.3535 63.9121 45.9705 64.3673 46.4256C64.8224 46.8807 65.4393 47.1368 66.083 47.1378H69.9603C70.6039 47.1368 71.2209 46.8807 71.676 46.4256C72.1311 45.9705 72.3872 45.3535 72.3882 44.7099V43.9815H76.8919C76.929 44.6809 76.8239 45.3805 76.5832 46.0382C76.3424 46.6958 75.9708 47.2979 75.4909 47.808C75.011 48.318 74.4327 48.7256 73.7909 49.006C73.1492 49.2864 72.4572 49.4338 71.7569 49.4394H64.2766C63.0013 49.4388 61.772 48.9627 60.829 48.1041C60.2629 47.5833 59.8191 46.9437 59.5292 46.2311C59.2394 45.5186 59.1108 44.7508 59.1526 43.9827H63.6551ZM39.4904 35.1186C39.6585 34.7323 39.9151 34.3911 40.2397 34.1226C40.5642 33.8542 40.9475 33.6659 41.3584 33.5732C41.7692 33.4805 42.1962 33.486 42.6045 33.5891C43.0129 33.6922 43.3913 33.8902 43.7089 34.1668L44.4712 34.8321C45.4159 35.6271 46.6108 36.0633 47.8455 36.0638C49.0802 36.0642 50.2755 35.6289 51.2207 34.8345C51.5321 34.4549 51.9159 34.1411 52.3499 33.9114C52.7838 33.6817 53.2591 33.5408 53.7481 33.4967C55.5387 33.453 56.6227 35.2934 56.7235 36.8836V41.5536H52.2125V40.8326C52.2115 40.1889 51.9554 39.572 51.5003 39.1169C51.0452 38.6618 50.4282 38.4056 49.7846 38.4047H45.9073C45.2637 38.4056 44.6467 38.6618 44.1916 39.1169C43.7365 39.572 43.4804 40.1889 43.4794 40.8326V41.5536H38.9708V36.8788C39.0168 36.2619 39.1947 35.6619 39.4904 35.1186ZM18.7964 36.8788C19.0756 33.674 21.9878 32.2597 24.2931 34.8345C25.3864 35.7244 26.7841 36.1522 28.1882 36.0265C29.5923 35.9009 30.8918 35.2319 31.8098 34.162C32.1274 33.8868 32.5052 33.6901 32.9128 33.5877C33.3204 33.4853 33.7463 33.4802 34.1562 33.5727C34.5661 33.6652 34.9486 33.8527 35.2727 34.1202C35.5968 34.3877 35.8536 34.7276 36.0222 35.1125C36.3211 35.6589 36.4983 36.2635 36.5418 36.8848V41.5536H32.038V40.8326C32.0371 40.1887 31.7808 39.5716 31.3254 39.1164C30.8701 38.6613 30.2528 38.4053 29.609 38.4047H25.7316C25.088 38.4056 24.471 38.6618 24.0159 39.1169C23.5608 39.572 23.3047 40.1889 23.3038 40.8326V41.5536H18.7952L18.7964 36.8788Z" stroke="#1C3542" stroke-width="0.1" mask="url(#path-2-outside-1_2706_184)"/>
<path d="M16.0566 51.4515C16.3824 51.4078 16.7124 51.4952 16.9736 51.6946C17.2348 51.8941 17.4065 52.1892 17.4502 52.515C17.4938 52.8404 17.4062 53.1699 17.207 53.431C16.8593 53.8872 16.6214 54.4183 16.5137 54.9818C16.4059 55.5452 16.4311 56.1266 16.5859 56.679L18.2988 63.0677C18.3669 63.3202 18.5162 63.5432 18.7236 63.7025C18.9312 63.8617 19.1856 63.9482 19.4473 63.9485H76.2471C76.5089 63.9484 76.7639 63.8627 76.9717 63.7034C77.1795 63.5442 77.3293 63.3205 77.3975 63.0677L79.1084 56.6839C79.2638 56.1309 79.2893 55.5489 79.1816 54.9847C79.0739 54.4203 78.8366 53.8879 78.4883 53.431C78.3894 53.3017 78.3163 53.1546 78.2744 52.9974C78.2325 52.84 78.2225 52.6754 78.2441 52.514C78.2658 52.3526 78.3186 52.1968 78.4004 52.056C78.4822 51.9152 78.5913 51.7924 78.7207 51.6937L78.7236 51.6917C79.027 51.5143 79.3105 51.4437 79.5732 51.4612C79.836 51.4789 80.0757 51.5845 80.291 51.7552C80.7209 52.0961 81.057 52.6982 81.2939 53.39C81.5312 54.0825 81.6704 54.8686 81.707 55.5804C81.7436 56.2913 81.6778 56.9327 81.5 57.3333L79.791 63.7093C79.5812 64.4888 79.12 65.1779 78.4795 65.6693C77.839 66.1605 77.0543 66.4273 76.2471 66.428H19.4473C18.64 66.4273 17.8553 66.1606 17.2148 65.6693C16.5744 65.1779 16.1141 64.4888 15.9043 63.7093H15.9033L14.1924 57.3245C13.937 56.4055 13.8979 55.4397 14.0791 54.5032C14.2604 53.5667 14.6565 52.6845 15.2363 51.9271C15.4357 51.666 15.7311 51.4952 16.0566 51.4515Z" fill="#1C3542" stroke="#1C3542" stroke-width="0.05"/>
</svg>
