<svg width="64" height="64" viewBox="0 0 64 64" fill="none" xmlns="http://www.w3.org/2000/svg">
<rect width="64" height="64" fill="white"/>
<path d="M49.3049 29.5961C49.6273 28.4577 49.8564 27.2948 49.9899 26.1191C50.0487 25.577 49.9875 25.0286 49.8107 24.5128C49.6339 23.9971 49.3458 23.5265 48.9667 23.1345C48.5879 22.7424 48.1274 22.4384 47.6179 22.2441C47.1085 22.0498 46.5625 21.9699 46.0187 22.0101C45.4212 22.055 43.1496 22.6216 42.4084 22.8096C42.212 22.7076 42.022 22.5937 41.8395 22.4685C41.5095 22.2507 41.1976 22.0448 40.7854 22.012C40.2384 21.9683 39.6885 22.0463 39.1752 22.2404C38.6619 22.4344 38.198 22.7398 37.8167 23.1345C37.6817 23.2744 37.5576 23.4245 37.4456 23.5835C37.0762 23.0563 36.5761 22.6341 35.9944 22.3584C35.4127 22.0826 34.7694 21.9627 34.1274 22.0105C33.5295 22.0549 31.2585 22.6216 30.5171 22.8096C30.3205 22.7078 30.1305 22.5939 29.9481 22.4685C29.618 22.2507 29.3061 22.0448 28.894 22.012C28.2488 21.9614 27.6016 22.0797 27.016 22.3552C26.4304 22.6308 25.9267 23.0541 25.5544 23.5835C25.185 23.0563 24.685 22.6341 24.1033 22.3584C23.5216 22.0826 22.8782 21.9627 22.2362 22.0105C21.6384 22.0549 19.3671 22.6216 18.6259 22.8096C18.4292 22.7079 18.2391 22.594 18.0566 22.4685C17.7269 22.2507 17.415 22.0449 17.0026 22.0121C16.457 21.9691 15.9086 22.0469 15.3965 22.2399C14.8844 22.433 14.4211 22.7366 14.0397 23.1291C13.6582 23.5215 13.3678 23.9931 13.1894 24.5105C13.0109 25.0279 12.9487 25.5783 13.0072 26.1224C13.1405 27.2972 13.3692 28.4592 13.6912 29.5969C12.112 29.9898 11.003 31.4065 11 33.034V40.4389C11.0005 40.5259 11.0182 40.6119 11.0521 40.692C11.0859 40.7722 11.1353 40.8448 11.1973 40.9058C11.2593 40.9668 11.3327 41.015 11.4134 41.0476C11.494 41.0802 11.5803 41.0965 11.6673 41.0956H51.3327C51.4197 41.0965 51.506 41.0802 51.5867 41.0476C51.6673 41.015 51.7408 40.9668 51.8028 40.9058C51.8648 40.8448 51.9141 40.7721 51.9479 40.692C51.9818 40.6118 51.9995 40.5258 52 40.4388V33.034C51.9971 31.4052 50.8857 29.9878 49.3049 29.5961ZM14.8778 28.8952H17.7227V29.4247C17.7187 29.508 17.732 29.5914 17.7619 29.6693C17.7918 29.7473 17.8375 29.8182 17.8961 29.8776C17.9548 29.9369 18.025 29.9835 18.1025 30.0145C18.18 30.0454 18.2631 30.0599 18.3465 30.0572H20.6431C20.7278 30.0604 20.8122 30.0463 20.8913 30.0159C20.9704 29.9854 21.0424 29.9393 21.1031 29.8801C21.1637 29.821 21.2117 29.7501 21.2441 29.6718C21.2765 29.5935 21.2926 29.5094 21.2915 29.4247V28.8952H24.3365C23.8683 30.6747 23.1782 32.3882 22.2823 33.9953C21.9598 32.8352 21.3305 31.7835 20.4605 30.951L20.363 30.8577C19.8796 30.3966 19.1145 30.4131 18.6508 30.8943L18.5705 30.9779C17.7742 31.8077 17.2047 32.8283 16.9167 33.9417L16.9118 33.9602C16.0257 32.3631 15.3424 30.6616 14.8778 28.8952ZM19.0506 28.7292V27.7333H19.9636V28.7292H19.0506ZM25.5528 29.4833L25.5554 29.4927H25.5499L25.5528 29.4833ZM26.7692 28.8952H29.6741V29.4247C29.6741 29.7913 29.985 30.0572 30.3517 30.0572H32.6483C33.015 30.0572 33.3259 29.7916 33.3259 29.4247V28.8952H36.2274C35.7594 30.6747 35.0694 32.3881 34.1737 33.9953C33.851 32.8353 33.2216 31.7836 32.3517 30.951L32.2544 30.8577C31.7707 30.3966 31.0059 30.4128 30.5422 30.8939L30.4616 30.9779C29.6653 31.8076 29.0959 32.8282 28.8081 33.9415L28.8033 33.96C27.9172 32.3629 27.2339 30.6615 26.7692 28.8952ZM31.002 28.7292V27.7333H31.998V28.7292H31.002ZM37.4439 29.4833L37.4465 29.4927H37.4413L37.4439 29.4833ZM39.0082 30.0805C38.9984 29.9948 38.972 29.9119 38.9304 29.8364C38.8329 29.5248 38.7428 29.211 38.6601 28.8952H41.7085V29.4247C41.7074 29.5094 41.7235 29.5935 41.7559 29.6718C41.7883 29.7501 41.8363 29.821 41.8969 29.8801C41.9576 29.9393 42.0297 29.9855 42.1088 30.0159C42.1878 30.0463 42.2723 30.0604 42.3569 30.0572H44.6535C44.7369 30.0599 44.82 30.0454 44.8975 30.0145C44.975 29.9835 45.0452 29.9369 45.1039 29.8776C45.1625 29.8182 45.2082 29.7473 45.2381 29.6693C45.268 29.5914 45.2813 29.508 45.2773 29.4247V28.8952H48.1186C47.6506 30.6747 46.9606 32.3881 46.0648 33.9953C45.7422 32.8352 45.1128 31.7835 44.2428 30.951L44.1455 30.8577C43.6621 30.3966 42.897 30.4128 42.4334 30.8939L42.353 30.9779C41.5568 31.8077 40.9873 32.8283 40.6993 33.9417L40.6944 33.9602C40.0084 32.7244 39.4437 31.4251 39.0082 30.0805ZM43.0364 28.7294V27.7335H43.9494V28.7294H43.0364ZM38.7706 24.0592C39.016 23.8051 39.3146 23.6085 39.645 23.4835C39.9754 23.3585 40.3293 23.3082 40.6814 23.3362C40.7518 23.3417 40.9493 23.472 41.1074 23.5768C41.7753 24.0181 42.8925 24.7562 45.3205 24.4531C45.4365 24.4386 45.5467 24.3938 45.6398 24.323C45.7329 24.2523 45.8057 24.1583 45.8508 24.0504C45.8959 23.9425 45.9117 23.8246 45.8966 23.7087C45.8816 23.5927 45.8361 23.4828 45.7649 23.39C45.9235 23.3596 46.0463 23.3401 46.1177 23.3346C46.467 23.309 46.8177 23.3604 47.145 23.4853C47.4723 23.6101 47.7681 23.8054 48.0116 24.0572C48.2551 24.3091 48.4401 24.6114 48.5538 24.9427C48.6674 25.2741 48.7068 25.6264 48.6691 25.9746C48.6218 26.407 48.5453 26.9465 48.4237 27.5677H45.2773V27.0432C45.2855 26.8743 45.2229 26.7092 45.1045 26.5884C44.9862 26.4675 44.8228 26.4012 44.6535 26.4054H42.3569C42.272 26.4028 42.1874 26.4175 42.1083 26.4484C42.0292 26.4794 41.9571 26.5261 41.8966 26.5857C41.8359 26.6452 41.7879 26.7165 41.7556 26.7951C41.7233 26.8737 41.7073 26.9581 41.7085 27.0431V27.5673H38.3556C38.2518 27.041 38.1699 26.5106 38.1102 25.9774V25.9725C38.1222 25.8007 38.1222 25.6283 38.1102 25.4561C38.1688 24.93 38.4012 24.4384 38.7706 24.0592ZM26.8791 24.0592C27.1246 23.8051 27.4233 23.6085 27.7537 23.4835C28.0841 23.3584 28.4381 23.308 28.7903 23.3359C28.8606 23.3417 29.0578 23.4717 29.2163 23.5768C29.8842 24.0181 31.0024 24.7562 33.4293 24.4531C33.5454 24.4386 33.6556 24.3937 33.7487 24.323C33.8419 24.2523 33.9147 24.1582 33.9598 24.0502C34.0049 23.9423 34.0207 23.8244 34.0056 23.7084C33.9905 23.5924 33.9451 23.4825 33.8738 23.3897C34.0324 23.3596 34.1549 23.3401 34.2263 23.3346C35.5091 23.2405 36.6364 24.1775 36.7784 25.4559C36.7661 25.628 36.7661 25.8008 36.7784 25.9729V25.9746C36.7187 26.5087 36.6367 27.0401 36.5326 27.5674H33.3259V27.0432C33.3239 26.9566 33.3046 26.8714 33.2693 26.7923C33.234 26.7133 33.1834 26.6421 33.1203 26.5828C33.0573 26.5234 32.9832 26.4772 32.9021 26.4467C32.8211 26.4163 32.7348 26.4022 32.6483 26.4054H30.3517C30.2652 26.4022 30.1789 26.4163 30.0979 26.4467C30.0168 26.4772 29.9427 26.5234 29.8797 26.5828C29.8166 26.6421 29.766 26.7133 29.7307 26.7923C29.6954 26.8713 29.6761 26.9566 29.6741 27.0431V27.5673H26.4641C26.3425 26.9474 26.2664 26.4089 26.2191 25.9774V25.9733C26.2311 25.8007 26.2311 25.6279 26.2191 25.4558C26.2775 24.9298 26.5097 24.4383 26.8789 24.0591L26.8791 24.0592ZM14.988 24.0592C15.2335 23.8051 15.5322 23.6085 15.8626 23.4835C16.193 23.3584 16.547 23.308 16.8992 23.3359C16.9696 23.3417 17.1667 23.4717 17.3252 23.5768C17.9931 24.0181 19.1096 24.7562 21.5379 24.4531C21.6539 24.4386 21.7641 24.3936 21.8572 24.3229C21.9503 24.2521 22.0231 24.158 22.0682 24.0501C22.1133 23.9422 22.1291 23.8244 22.114 23.7084C22.0989 23.5924 22.0535 23.4825 21.9824 23.3897C22.1412 23.3596 22.2637 23.3401 22.3351 23.3346C23.617 23.2337 24.7445 24.1759 24.8736 25.4551C24.8617 25.6267 24.8607 25.7998 24.8607 25.9733V25.9746C24.8607 26.4068 24.7631 26.9465 24.6411 27.5674H21.2915V27.0432C21.2928 26.9582 21.2767 26.8738 21.2444 26.7951C21.2121 26.7165 21.1641 26.6452 21.1034 26.5857C21.0429 26.5261 20.9708 26.4794 20.8917 26.4484C20.8126 26.4175 20.7281 26.4028 20.6431 26.4054H18.3465C18.2628 26.4032 18.1795 26.4183 18.1019 26.4497C18.0243 26.4812 17.954 26.5283 17.8954 26.5882C17.8369 26.648 17.7913 26.7193 17.7616 26.7976C17.7319 26.8759 17.7186 26.9595 17.7227 27.0431V27.5673H14.573C14.4515 26.9474 14.3753 26.4089 14.328 25.9774C14.2894 25.6288 14.3286 25.276 14.4426 24.9443C14.5567 24.6126 14.7429 24.3103 14.9877 24.0591L14.988 24.0592ZM50.6721 39.7678H12.3279V33.034C12.3298 31.9868 13.0635 31.0839 14.088 30.8677C14.6388 32.4747 15.3648 34.0163 16.2527 35.4645C16.3492 35.6214 16.4896 35.7465 16.6566 35.8242C16.8236 35.9019 17.0098 35.9288 17.1919 35.9016C17.374 35.8741 17.544 35.7938 17.6808 35.6705C17.8176 35.5472 17.9151 35.3864 17.9613 35.2082L18.2025 34.2735C18.4333 33.3808 18.8898 32.5626 19.5282 31.8974L19.5421 31.9106C20.2403 32.5786 20.7451 33.4227 21.0033 34.3539L21.2483 35.2379C21.2969 35.4145 21.3962 35.5729 21.534 35.6935C21.6717 35.8142 21.8419 35.8917 22.0233 35.9164C22.2048 35.9412 22.3895 35.9121 22.5545 35.8328C22.7196 35.7535 22.8577 35.6274 22.9517 35.4703C23.8625 34.0065 24.5971 32.4403 25.1404 30.8041H25.9649C26.5216 32.429 27.2525 33.9888 28.1448 35.4565C28.2403 35.614 28.3801 35.7398 28.5468 35.8183C28.7135 35.8967 28.8996 35.9242 29.0818 35.8974C29.264 35.8707 29.4343 35.7909 29.5715 35.668C29.7086 35.545 29.8064 35.3844 29.8527 35.2062L30.094 34.2728C30.3247 33.3804 30.7811 32.5624 31.4192 31.8974H31.4199L31.4335 31.911C32.1318 32.5789 32.6368 33.423 32.8951 34.3542L33.1402 35.2383C33.1885 35.4149 33.2877 35.5735 33.4255 35.6942C33.5632 35.8149 33.7334 35.8925 33.9149 35.9172C34.0964 35.942 34.2811 35.9129 34.4462 35.8335C34.6112 35.7541 34.7493 35.6279 34.8432 35.4707C35.7539 34.0068 36.4884 32.4404 37.0315 30.8041H37.8557C38.4126 32.4288 39.1436 33.9886 40.036 35.4561C40.2311 35.7781 40.6003 35.9519 40.9729 35.8974C41.3455 35.8428 41.6492 35.5706 41.7439 35.2062L41.9847 34.2728C42.2155 33.3804 42.6719 32.5624 43.3101 31.8974H43.3107L43.3247 31.911C44.0227 32.579 44.5275 33.4231 44.7858 34.3542L45.0309 35.2379C45.0796 35.414 45.1787 35.5721 45.3159 35.6927C45.4532 35.8133 45.6226 35.8912 45.8035 35.9169C45.9845 35.9424 46.169 35.9145 46.3344 35.8366C46.4997 35.7587 46.6387 35.6343 46.7343 35.4785C47.6264 34.0263 48.3554 32.48 48.9081 30.8677C49.9341 31.0823 50.6698 31.9858 50.6721 33.034V39.7678Z" fill="#23BFCF"/>
</svg>
