<svg width="96" height="98" viewBox="0 0 96 98" fill="none" xmlns="http://www.w3.org/2000/svg">
<path d="M22.8641 94.5H10.2529C8.44066 94.4981 6.70313 93.7601 5.42166 92.4477C4.14018 91.1353 3.41946 89.3559 3.41765 87.5V74.585C3.41765 74.1209 3.23761 73.6757 2.91714 73.3476C2.59668 73.0194 2.16203 72.835 1.70882 72.835C1.25562 72.835 0.82097 73.0194 0.500503 73.3476C0.180037 73.6757 0 74.1209 0 74.585V87.5C0.00316579 90.2838 1.0844 92.9526 3.00651 94.921C4.92863 96.8895 7.53466 97.9968 10.2529 98H22.8641C23.3173 98 23.7519 97.8156 24.0724 97.4874C24.3928 97.1593 24.5729 96.7141 24.5729 96.25C24.5729 95.7859 24.3928 95.3407 24.0724 95.0126C23.7519 94.6844 23.3173 94.5 22.8641 94.5ZM85.4412 0H72.8301C72.3768 0 71.9422 0.184375 71.6217 0.512563C71.3013 0.840752 71.1212 1.28587 71.1212 1.75C71.1212 2.21413 71.3013 2.65925 71.6217 2.98744C71.9422 3.31563 72.3768 3.5 72.8301 3.5H85.4412C87.2535 3.50185 88.991 4.23995 90.2725 5.5523C91.5539 6.86465 92.2747 8.64405 92.2765 10.5V23.415C92.2765 23.8791 92.4565 24.3242 92.777 24.6524C93.0974 24.9806 93.5321 25.165 93.9853 25.165C94.4385 25.165 94.8732 24.9806 95.1936 24.6524C95.5141 24.3242 95.6941 23.8791 95.6941 23.415V10.5C95.691 7.71622 94.6097 5.04739 92.6876 3.07896C90.7655 1.11053 88.1595 0.00324207 85.4412 0ZM93.9853 72.835C93.5321 72.835 93.0974 73.0194 92.777 73.3476C92.4565 73.6757 92.2765 74.1209 92.2765 74.585V87.5C92.2747 89.3559 91.5539 91.1353 90.2725 92.4477C88.991 93.7601 87.2535 94.4981 85.4412 94.5H72.8301C72.3768 94.5 71.9422 94.6844 71.6217 95.0126C71.3013 95.3407 71.1212 95.7859 71.1212 96.25C71.1212 96.7141 71.3013 97.1593 71.6217 97.4874C71.9422 97.8156 72.3768 98 72.8301 98H85.4412C88.1595 97.9968 90.7655 96.8895 92.6876 94.921C94.6097 92.9526 95.691 90.2838 95.6941 87.5V74.585C95.6941 74.1209 95.5141 73.6757 95.1936 73.3476C94.8732 73.0194 94.4385 72.835 93.9853 72.835ZM1.70882 25.165C2.16203 25.165 2.59668 24.9806 2.91714 24.6524C3.23761 24.3242 3.41765 23.8791 3.41765 23.415V10.5C3.41946 8.64405 4.14018 6.86465 5.42166 5.5523C6.70313 4.23995 8.44066 3.50185 10.2529 3.5H22.8641C23.3173 3.5 23.7519 3.31563 24.0724 2.98744C24.3928 2.65925 24.5729 2.21413 24.5729 1.75C24.5729 1.28587 24.3928 0.840752 24.0724 0.512563C23.7519 0.184375 23.3173 0 22.8641 0H10.2529C7.53466 0.00324207 4.92863 1.11053 3.00651 3.07896C1.0844 5.04739 0.00316579 7.71622 0 10.5V23.415C0 23.8791 0.180037 24.3242 0.500503 24.6524C0.82097 24.9806 1.25562 25.165 1.70882 25.165Z" fill="#23BFCF"/>
<path d="M25.6021 42.301C25.9215 42.228 26.2569 42.2826 26.5366 42.4533C26.7817 42.6029 26.9672 42.8311 27.064 43.0988L27.1001 43.215L27.1011 43.2199C27.2113 43.7622 27.6829 45.1968 28.3403 47.2473C28.9962 49.2928 29.8336 51.9417 30.6694 54.9006C32.3402 60.8151 34.0081 67.977 34.2104 74.0471L34.2671 74.59C34.3436 75.1708 34.4853 75.8494 34.7437 76.4953C35.0862 77.3515 35.6298 78.1399 36.4878 78.5744C36.7937 78.6189 37.803 78.6942 39.0161 78.0158C40.2474 77.3272 41.7024 75.856 42.8433 72.758V72.756L47.3022 61.2599V61.258C47.3895 61.041 47.8201 60.0185 48.5776 59.048C49.3328 58.0808 50.4301 57.1441 51.853 57.1418C51.4971 56.5331 51.1543 56.0263 50.8442 55.6652C50.674 55.467 50.5167 55.3147 50.3765 55.2131C50.2342 55.1101 50.1196 55.0666 50.0337 55.0666C49.7005 55.0665 49.3807 54.9341 49.145 54.6984C48.9095 54.4627 48.7769 54.143 48.7769 53.8098C48.7769 53.4765 48.9094 53.1567 49.145 52.9211C49.3807 52.6854 49.7005 52.553 50.0337 52.5529C50.8688 52.5538 51.6449 52.9892 52.3433 53.6545C53.0423 54.3205 53.6745 55.2263 54.2241 56.1906C55.3219 58.1167 56.1019 60.2963 56.439 61.3224L58.1587 65.7473L58.1597 65.7492C58.269 66.0572 58.2547 66.3964 58.1187 66.6935C57.9826 66.9906 57.7356 67.2225 57.4312 67.341C57.1266 67.4595 56.7879 67.4553 56.4868 67.3283C56.1869 67.2017 55.9478 66.9635 55.8198 66.6642L55.6724 66.3195C55.5167 65.9355 55.3377 65.4392 55.1392 64.8937C54.8734 64.1635 54.5696 63.3406 54.23 62.5656C53.89 61.7897 53.5161 61.0673 53.1128 60.5353C52.7062 59.9992 52.2871 59.679 51.8599 59.6613C51.6643 59.6595 51.4506 59.7492 51.229 59.9133C51.0075 60.0773 50.7872 60.3091 50.5806 60.5724C50.167 61.0994 49.8201 61.7408 49.6411 62.1828L49.6401 62.1818L45.1958 73.6476C43.8768 77.1227 42.1719 79.1075 40.4438 80.1418C38.7151 81.1764 36.9733 81.2532 35.5952 80.9318L35.5874 80.9299L35.5796 80.9269C33.3598 80.0184 32.4211 77.9558 31.9507 75.6252C31.7153 74.4589 31.5961 73.218 31.4937 72.0109C31.4039 70.9528 31.3267 69.922 31.1978 68.9826L31.1392 68.5861C29.827 60.6565 28.4417 55.6502 27.2671 52.0314C26.168 48.6456 25.2457 46.455 24.7446 44.2228L24.6499 43.7756C24.5849 43.4543 24.648 43.1204 24.8257 42.8449C25.0034 42.5694 25.2824 42.3741 25.6021 42.301ZM70.3179 44.4767C70.6184 44.3325 70.9643 44.3135 71.2788 44.424C71.5931 44.5345 71.8504 44.7654 71.9946 45.0656C72.1389 45.3661 72.1579 45.7121 72.0474 46.0266C71.7457 46.883 71.3554 48.0244 70.9058 49.423C70.8552 49.5799 70.7741 49.7251 70.6675 49.8508C70.5606 49.9766 70.4296 50.0801 70.2827 50.1555C69.9861 50.3076 69.6411 50.3357 69.3237 50.2336C69.1667 50.183 69.0207 50.1021 68.895 49.9953C68.7694 49.8885 68.6656 49.7582 68.5903 49.6115C68.5151 49.4648 68.47 49.3042 68.4565 49.1398C68.4432 48.9753 68.4626 48.8096 68.5132 48.6525C68.9716 47.2287 69.3697 46.0664 69.6753 45.1935C69.7858 44.8789 70.0176 44.6209 70.3179 44.4767ZM71.0093 25.5275C71.2979 25.3804 71.6326 25.3501 71.9429 25.4435C72.2143 25.5254 72.4487 25.6965 72.6099 25.9269L72.6743 26.0295L72.6763 26.0324C73.601 27.8199 74.5799 31.1072 74.1772 36.2824V36.2834C74.073 37.5306 73.9046 38.7719 73.6743 40.0021V40.0041C73.6077 40.3261 73.4179 40.6097 73.145 40.7932C72.8721 40.9766 72.5377 41.0455 72.2144 40.9855C71.891 40.9255 71.6035 40.7411 71.4146 40.4719C71.2256 40.2026 71.1501 39.8697 71.2036 39.5451V39.5432C71.4204 38.3992 71.575 37.2439 71.6655 36.0832C72.0598 31.1934 71.0606 28.3968 70.439 27.174L70.437 27.1701C70.3023 26.8756 70.2867 26.5405 70.3931 26.2346C70.4996 25.9284 70.7205 25.6748 71.0093 25.5275Z" fill="#1C3542" stroke="#1C3542" stroke-width="0.2"/>
<path d="M56.0146 20.0459C61.7722 16.7819 69.1889 15.2777 75.0586 19.4229H75.0576C75.0745 19.4321 75.0948 19.4426 75.1143 19.4561C75.1428 19.4759 75.178 19.5029 75.2197 19.5361C75.3035 19.6027 75.4142 19.6979 75.5459 19.8223C75.8093 20.0711 76.1585 20.4395 76.5488 20.9385C77.3299 21.9369 78.276 23.459 79.0273 25.5977C80.5304 29.8764 81.2528 36.6136 78.334 46.543L78.332 46.5498C75.6758 53.6836 73.7503 61.0689 72.5869 68.5918V68.5928C72.4136 69.6373 72.326 70.8103 72.2227 72.0166C72.1195 73.2207 72.0015 74.4568 71.7676 75.6191C71.3001 77.9421 70.3641 79.998 68.1309 80.9209L68.123 80.9248L68.1143 80.9268C66.7267 81.2391 64.9926 81.1658 63.2715 80.1348C61.6585 79.1684 60.0665 77.3663 58.7812 74.2725L58.5283 73.6367L57.4941 70.9717V70.9707C57.3781 70.6608 57.389 70.3176 57.5244 70.0156C57.6598 69.7138 57.9083 69.4769 58.2168 69.3574C58.5254 69.238 58.8694 69.2459 59.1729 69.3779C59.4381 69.4935 59.654 69.6965 59.7861 69.9512L59.8379 70.0635V70.0645L60.8789 72.748L60.8799 72.75C62.0243 75.8614 63.4816 77.3316 64.7119 78.0166C65.9215 78.6901 66.9249 78.6105 67.2246 78.5674C68.1035 78.1193 68.6526 77.347 68.9961 76.458C69.3419 75.5627 69.477 74.5562 69.5322 73.666C69.6669 68.7972 71.1692 61.9048 72.6895 56.1826C73.4501 53.3195 74.216 50.7461 74.8193 48.8623C75.1208 47.9209 75.3815 47.1509 75.5811 46.6025C75.6808 46.3285 75.766 46.1086 75.833 45.9502C75.8664 45.8713 75.8957 45.8062 75.9209 45.7568C75.9371 45.7251 75.9559 45.6934 75.9746 45.668C78.5802 36.5562 77.9798 30.5042 76.7256 26.7275C76.0979 24.8376 75.3061 23.5151 74.668 22.6631C74.3489 22.2372 74.0678 21.9289 73.8652 21.7256C73.764 21.624 73.6823 21.5486 73.625 21.498C73.5965 21.4729 73.5743 21.4535 73.5586 21.4404C73.5509 21.4341 73.5444 21.4293 73.54 21.4258C73.5378 21.424 73.5354 21.4219 73.5342 21.4209C73.5332 21.4201 73.5322 21.4199 73.5322 21.4199L73.5312 21.4189C70.9404 19.3764 67.3002 19.3024 64.6865 19.6025L64.6816 19.6035V19.6025C63.25 19.6917 61.6924 20.1857 60.1152 20.8535C58.624 21.485 57.1213 22.2683 55.6963 23.0078C57.3776 23.3832 59.087 23.6192 60.8076 23.71H60.8066C61.1391 23.7183 61.4549 23.858 61.6846 24.0986C61.9147 24.3398 62.04 24.6629 62.0322 24.9961C62.0244 25.3294 61.8838 25.6458 61.6426 25.876C61.4013 26.1061 61.0784 26.2315 60.7451 26.2236H60.7432C57.5803 26.0614 54.4543 25.4633 51.4551 24.4463V24.4453C49.3441 23.7713 47.2411 22.6099 45.1729 21.5967C43.0974 20.5799 41.0543 19.7116 39.04 19.6006H39.0352C36.4057 19.3143 32.7523 19.3958 30.2207 21.4004L30.2217 21.4014C29.2519 22.2579 28.4664 23.3025 27.9121 24.4717L27.9092 24.4766C27.7528 24.7661 27.4892 24.9828 27.1748 25.0801C26.8602 25.1773 26.5192 25.1471 26.2266 24.9961C25.9341 24.8451 25.7124 24.5851 25.6094 24.2725C25.5065 23.9599 25.5304 23.6194 25.6758 23.3242L25.8701 22.9385C27.9303 19.0236 31.5369 17.252 35.5098 16.9609C39.6066 16.6608 44.0985 17.9337 47.7129 20.0537L48.2168 20.3291C49.3875 20.9531 50.6067 21.482 51.8623 21.9121C53.1152 21.4706 54.3342 20.9389 55.5088 20.3193L56.0146 20.0459Z" fill="#1C3542" stroke="#1C3542" stroke-width="0.2"/>
<path d="M36.3853 30.0396C36.6342 30.0396 36.8776 30.113 37.0845 30.2515C37.2913 30.3899 37.4525 30.5868 37.5474 30.8169L38.9146 34.1226V34.1235C39.0528 34.4615 39.2569 34.7687 39.5151 35.0269C39.7088 35.2204 39.9303 35.3835 40.1714 35.5112L40.4194 35.6265V35.6274L43.7134 36.9829L43.7144 36.9839C43.941 37.0818 44.1344 37.2434 44.27 37.4497C44.4057 37.6561 44.478 37.8981 44.478 38.145C44.478 38.3918 44.4056 38.6331 44.27 38.8394C44.1343 39.0457 43.9411 39.2083 43.7144 39.3062L43.7134 39.3071L40.4136 40.6675C39.8182 40.9151 39.3302 41.361 39.0278 41.9243L38.9097 42.1724L37.5483 45.4712C37.4537 45.7017 37.2925 45.8988 37.0854 46.0376C36.8786 46.1763 36.6353 46.2504 36.3862 46.2505C36.137 46.2505 35.893 46.1764 35.686 46.0376C35.4791 45.8988 35.3178 45.7017 35.2231 45.4712L33.8677 42.1792C33.7294 41.8411 33.5252 41.5334 33.2671 41.2749C33.0734 41.081 32.8519 40.9178 32.6108 40.7896L32.3638 40.6733L29.0571 39.3071L29.0562 39.3062C28.8294 39.2086 28.6356 39.0479 28.4995 38.8413C28.3636 38.6348 28.2915 38.3923 28.2915 38.145C28.2916 37.8979 28.3636 37.6561 28.4995 37.4497C28.6354 37.2433 28.8291 37.0816 29.0562 36.9839L29.0571 36.9829L32.3579 35.6226L32.606 35.5044C33.1693 35.2016 33.6142 34.7124 33.8618 34.1167L35.2231 30.8169L35.3071 30.6509C35.4021 30.4921 35.531 30.3552 35.686 30.2515C35.8929 30.113 36.1364 30.0396 36.3853 30.0396ZM36.3882 34.6431C36.1465 35.3251 35.7772 35.9564 35.2974 36.5005C34.7509 37.1201 34.0756 37.6125 33.3188 37.9438L33.3169 37.9448L32.853 38.1362C33.6687 38.4247 34.4119 38.8898 35.0259 39.5024C35.6332 40.1085 36.0963 40.8414 36.3872 41.646C36.6791 40.8431 37.1428 40.1121 37.7485 39.5063C38.3546 38.9003 39.0859 38.4369 39.8892 38.145C39.0854 37.8524 38.3536 37.3886 37.7476 36.7817C37.1428 36.176 36.6797 35.4453 36.3882 34.6431ZM22.1567 25.7896C22.4034 25.7896 22.6449 25.8613 22.8511 25.9966C23.0057 26.0981 23.1353 26.2322 23.2319 26.3882L23.3179 26.5513V26.5532L24.4272 29.2358H24.4282C24.5288 29.4806 24.6766 29.7031 24.8638 29.8901C25.0512 30.0774 25.2749 30.2262 25.52 30.3267L28.1919 31.4263L28.1938 31.4272C28.4209 31.5247 28.6145 31.6868 28.7505 31.8931C28.8865 32.0994 28.9585 32.3412 28.9585 32.5884C28.9585 32.8355 28.8864 33.0773 28.7505 33.2837C28.6145 33.49 28.4208 33.652 28.1938 33.7495L28.1919 33.7505L25.5151 34.855C25.0221 35.0606 24.6303 35.4534 24.4253 35.9468L23.3208 38.6245L23.3198 38.6255C23.2221 38.8525 23.0604 39.0462 22.854 39.1821C22.6475 39.3181 22.405 39.3901 22.1577 39.3901C21.9106 39.39 21.6688 39.318 21.4624 39.1821C21.256 39.0462 21.0943 38.8525 20.9966 38.6255L20.9956 38.6245L19.894 35.9517C19.6894 35.4583 19.298 35.0659 18.8052 34.8599L16.1216 33.7515H16.1206C15.8935 33.6537 15.6999 33.4912 15.564 33.2847C15.4281 33.0782 15.356 32.8365 15.356 32.5894C15.356 32.3421 15.428 32.0996 15.564 31.8931C15.6999 31.6867 15.8936 31.5249 16.1206 31.4272L16.1216 31.4263L18.7993 30.3228C19.2932 30.1178 19.6862 29.7258 19.8911 29.2319L20.9956 26.5532L20.9966 26.5513C21.0946 26.325 21.2563 26.132 21.4624 25.9966C21.6685 25.8612 21.9101 25.7896 22.1567 25.7896ZM22.1567 30.3159C21.9239 30.8304 21.5998 31.2991 21.1958 31.6948C20.8155 32.0673 20.3727 32.3688 19.8892 32.5884C20.3874 32.8143 20.8419 33.1287 21.23 33.5161C21.6177 33.9032 21.9319 34.3566 22.1587 34.854C22.3778 34.371 22.6803 33.9292 23.0522 33.5493C23.4464 33.1468 23.912 32.8219 24.4243 32.5894C23.9273 32.3663 23.4736 32.0558 23.0874 31.6704C22.6961 31.2798 22.3813 30.8203 22.1567 30.3159Z" fill="#1C3542" stroke="#1C3542" stroke-width="0.2"/>
</svg>
