<svg width="96" height="98" viewBox="0 0 96 98" fill="none" xmlns="http://www.w3.org/2000/svg">
<path d="M22.8641 94.5H10.2529C8.44066 94.4981 6.70313 93.7601 5.42166 92.4477C4.14018 91.1353 3.41946 89.3559 3.41765 87.5V74.585C3.41765 74.1209 3.23761 73.6757 2.91714 73.3476C2.59668 73.0194 2.16203 72.835 1.70882 72.835C1.25562 72.835 0.82097 73.0194 0.500503 73.3476C0.180037 73.6757 0 74.1209 0 74.585V87.5C0.00316579 90.2838 1.0844 92.9526 3.00651 94.921C4.92863 96.8895 7.53466 97.9968 10.2529 98H22.8641C23.3173 98 23.7519 97.8156 24.0724 97.4874C24.3928 97.1593 24.5729 96.7141 24.5729 96.25C24.5729 95.7859 24.3928 95.3407 24.0724 95.0126C23.7519 94.6844 23.3173 94.5 22.8641 94.5ZM85.4412 0H72.8301C72.3768 0 71.9422 0.184375 71.6217 0.512563C71.3013 0.840752 71.1212 1.28587 71.1212 1.75C71.1212 2.21413 71.3013 2.65925 71.6217 2.98744C71.9422 3.31563 72.3768 3.5 72.8301 3.5H85.4412C87.2535 3.50185 88.991 4.23995 90.2725 5.5523C91.5539 6.86465 92.2747 8.64405 92.2765 10.5V23.415C92.2765 23.8791 92.4565 24.3242 92.777 24.6524C93.0974 24.9806 93.5321 25.165 93.9853 25.165C94.4385 25.165 94.8732 24.9806 95.1936 24.6524C95.5141 24.3242 95.6941 23.8791 95.6941 23.415V10.5C95.691 7.71622 94.6097 5.04739 92.6876 3.07896C90.7655 1.11053 88.1595 0.00324207 85.4412 0ZM93.9853 72.835C93.5321 72.835 93.0974 73.0194 92.777 73.3476C92.4565 73.6757 92.2765 74.1209 92.2765 74.585V87.5C92.2747 89.3559 91.5539 91.1353 90.2725 92.4477C88.991 93.7601 87.2535 94.4981 85.4412 94.5H72.8301C72.3768 94.5 71.9422 94.6844 71.6217 95.0126C71.3013 95.3407 71.1212 95.7859 71.1212 96.25C71.1212 96.7141 71.3013 97.1593 71.6217 97.4874C71.9422 97.8156 72.3768 98 72.8301 98H85.4412C88.1595 97.9968 90.7655 96.8895 92.6876 94.921C94.6097 92.9526 95.691 90.2838 95.6941 87.5V74.585C95.6941 74.1209 95.5141 73.6757 95.1936 73.3476C94.8732 73.0194 94.4385 72.835 93.9853 72.835ZM1.70882 25.165C2.16203 25.165 2.59668 24.9806 2.91714 24.6524C3.23761 24.3242 3.41765 23.8791 3.41765 23.415V10.5C3.41946 8.64405 4.14018 6.86465 5.42166 5.5523C6.70313 4.23995 8.44066 3.50185 10.2529 3.5H22.8641C23.3173 3.5 23.7519 3.31563 24.0724 2.98744C24.3928 2.65925 24.5729 2.21413 24.5729 1.75C24.5729 1.28587 24.3928 0.840752 24.0724 0.512563C23.7519 0.184375 23.3173 0 22.8641 0H10.2529C7.53466 0.00324207 4.92863 1.11053 3.00651 3.07896C1.0844 5.04739 0.00316579 7.71622 0 10.5V23.415C0 23.8791 0.180037 24.3242 0.500503 24.6524C0.82097 24.9806 1.25562 25.165 1.70882 25.165Z" fill="#23BFCF"/>
<path d="M30.876 22.8134C31.2242 22.8523 31.5429 23.028 31.7617 23.3017C31.9805 23.5754 32.0817 23.9251 32.043 24.2734C32.0041 24.6216 31.8283 24.9403 31.5547 25.1591C30.0712 26.3485 28.6752 27.6432 27.3799 29.0351L27.3809 29.0361L23.9775 33.2704L27.4961 34.8427L27.5039 34.8466C28.4544 35.3442 29.5002 35.6333 30.5713 35.6943C31.6423 35.7553 32.7141 35.5866 33.7148 35.2001C33.7176 35.1991 33.7198 35.1985 33.7207 35.1982C33.7225 35.1976 33.7243 35.1966 33.7256 35.1962C33.7282 35.1954 33.7317 35.1941 33.7344 35.1933C33.7399 35.1916 33.7474 35.1899 33.7559 35.1874C33.7732 35.1825 33.7981 35.1756 33.8291 35.1669C33.8913 35.1496 33.9804 35.1246 34.0928 35.0937C34.3183 35.0315 34.6382 34.9441 35.0195 34.8398C35.7822 34.6312 36.7938 34.3551 37.8037 34.08C38.8138 33.8049 39.8223 33.5308 40.5781 33.3251C40.956 33.2223 41.2709 33.136 41.4912 33.0761C41.6013 33.0462 41.6881 33.0228 41.7471 33.0068C41.7764 32.9988 41.7993 32.9923 41.8145 32.9882C41.8216 32.9863 41.8273 32.9853 41.8311 32.9843C41.833 32.9838 41.835 32.9826 41.8359 32.9824H41.8369C41.837 32.9823 41.8376 32.9821 41.877 33.1269L41.8389 32.9824C42.1754 32.8944 42.5267 32.8772 42.8701 32.9326C43.2135 32.9879 43.5421 33.1144 43.834 33.3036C44.1257 33.4929 44.3748 33.7413 44.5654 34.0322C44.7084 34.2503 44.8168 34.4887 44.8857 34.7392L44.9414 34.9931V34.9941C45.3693 37.6714 47.0576 44.1427 53.4824 47.1972L53.792 47.3398L53.7959 47.3417C54.1062 47.4912 54.3457 47.7556 54.4639 48.079C54.582 48.4024 54.5695 48.759 54.4287 49.0732C54.2878 49.3873 54.03 49.6347 53.71 49.7617C53.3898 49.8886 53.0318 49.8852 52.7139 49.7529L52.7109 49.7519C44.9785 46.2882 42.9027 38.7954 42.3594 35.5673L34.6758 37.663C32.4796 38.5575 30.0352 38.6151 27.8008 37.831C27.1671 40.0651 26.9224 42.392 27.0771 44.7099C27.1575 45.4003 27.0447 46.0994 26.751 46.7294L26.75 46.7314L22.9307 54.7226C22.8285 54.9402 22.7822 55.1799 22.7969 55.4199C22.8116 55.6602 22.8873 55.8929 23.0156 56.0966C23.1439 56.3003 23.3209 56.4688 23.5312 56.5859C23.7416 56.7029 23.9781 56.7649 24.2188 56.7665H29.082C29.4322 56.7666 29.768 56.9057 30.0156 57.1533C30.2633 57.401 30.4033 57.7375 30.4033 58.0878C30.4032 58.438 30.2633 58.7738 30.0156 59.0214C29.7679 59.269 29.4323 59.4081 29.082 59.4081H27.9111L28.4385 66.6913L28.4395 66.6992C28.4469 67.1115 28.3558 67.4924 28.2334 67.8613C28.1723 68.0454 28.1031 68.2288 28.0332 68.4111C27.963 68.5943 27.8918 68.777 27.8271 68.9648C27.5717 69.7076 27.4101 70.5225 27.7764 71.6103C27.9525 71.9895 28.2076 72.3267 28.5244 72.5995C28.843 72.8739 29.2165 73.0766 29.6201 73.1943C29.6206 73.1944 29.6272 73.1968 29.6289 73.1972C29.6358 73.1991 29.6465 73.2015 29.6602 73.205C29.6876 73.212 29.7289 73.2221 29.7842 73.2343C29.8955 73.2588 30.064 73.2915 30.2881 73.3242C30.7363 73.3894 31.4098 73.4542 32.3057 73.4482C34.0977 73.4361 36.7814 73.1422 40.3369 72.0126L40.3408 72.0117C41.1599 71.7747 42.6669 71.2261 44.0771 70.4453C44.782 70.0549 45.4587 69.6084 46.0127 69.1171C46.5658 68.6266 46.9879 68.098 47.1992 67.5429C47.5049 66.4848 48.0838 64.6511 48.835 62.9638C49.2111 62.1189 49.6331 61.3067 50.0879 60.6454C50.5402 59.9877 51.0366 59.462 51.5693 59.2148C51.8872 59.0673 52.251 59.0523 52.5801 59.1728C52.9091 59.2933 53.1767 59.5395 53.3242 59.8574C53.4717 60.1753 53.4867 60.539 53.3662 60.8681C53.2469 61.1938 53.0037 61.458 52.6904 61.6064L52.6914 61.6074C52.6325 61.6402 52.5508 61.7136 52.4492 61.8388C52.3498 61.9614 52.2387 62.1237 52.1191 62.3222C51.8799 62.7195 51.611 63.2521 51.332 63.8779C50.7744 65.1289 50.1808 66.743 49.7061 68.3749L49.7031 68.3867C48.9359 70.4165 46.9467 71.9033 45.0898 72.9033C43.2337 73.9029 41.4756 74.4323 41.1045 74.539L41.1055 74.54C41.0141 74.5696 40.9198 74.5959 40.8301 74.622C40.8097 74.9556 40.8111 75.5568 40.7979 76.2919C40.7833 77.0988 40.7493 78.0529 40.6387 78.9404C40.5287 79.8227 40.3412 80.6606 40.0098 81.2216C39.8429 81.5039 39.632 81.7288 39.3643 81.8466C39.0925 81.966 38.7818 81.9671 38.4375 81.8388C38.2749 81.7782 38.126 81.6856 37.999 81.5673C37.872 81.4489 37.7693 81.3064 37.6973 81.1484C37.6253 80.9904 37.5851 80.8199 37.5791 80.6464C37.5732 80.4763 37.5997 80.3062 37.6582 80.1464C38.0356 78.575 38.2133 76.963 38.1904 75.3476C35.1132 76.153 31.8959 76.2726 28.7666 75.6933L28.7568 75.6913L28.7461 75.6884C26.5248 74.9487 25.4347 73.3829 25.085 71.666C24.7406 69.9746 25.1136 68.1394 25.8115 66.7949L25.2637 59.4081H24.2168C23.5318 59.4013 22.8588 59.2225 22.2607 58.8886C21.6629 58.5547 21.1581 58.0764 20.793 57.497C20.4278 56.9176 20.2141 56.2557 20.1709 55.5722C20.1277 54.8886 20.2565 54.2048 20.5459 53.5839L20.5469 53.5829L24.3633 45.5966C24.4463 45.4069 24.477 45.1984 24.4502 44.9931L24.4482 44.9833V44.9824C24.2525 42.2138 24.5585 39.4332 25.3486 36.7734L21.335 34.9833V34.9824C21.1507 34.8997 20.9874 34.7764 20.8584 34.621C20.7294 34.4656 20.6372 34.2823 20.5898 34.0859C20.5426 33.8897 20.541 33.6851 20.585 33.4882C20.629 33.2911 20.7183 33.1067 20.8447 32.9492V32.9482L25.377 27.3154L25.3838 27.3076C26.7847 25.7942 28.2954 24.3859 29.9033 23.0947H29.9043C30.178 22.8758 30.5277 22.7747 30.876 22.8134Z" fill="#1C3542" stroke="#1C3542" stroke-width="0.3"/>
<path d="M33.9131 20.2682C39.7175 16.2644 46.0198 15.6633 51.1689 16.2624C56.3144 16.861 60.3248 18.6596 61.5605 19.4763H61.5596C65.1357 21.693 68.2171 24.6228 70.6113 28.0827C73.0062 31.5435 74.6624 35.4604 75.4766 39.5895L75.4795 39.6022H75.4785C76.5597 49.2201 73.676 53.925 73.2061 54.6198C70.6044 59.5874 66.5766 63.6615 61.6416 66.322C61.7183 69.6465 62.1921 73.7497 63.8438 76.4352C64.0275 76.7335 64.0859 77.0934 64.0049 77.4343C63.9238 77.7749 63.7102 78.0689 63.4121 78.2526C63.1139 78.4363 62.7549 78.4947 62.4141 78.4138C62.0732 78.3328 61.7785 78.1193 61.5947 77.821C59.7739 74.8611 59.1669 70.6831 59.0176 67.2077C58.8681 63.728 59.1761 60.9248 59.2031 60.6921V60.6901C59.2471 60.3458 59.4251 60.0324 59.6982 59.8181C59.9714 59.6038 60.3181 59.5054 60.6631 59.5446C61.008 59.5839 61.3239 59.7578 61.542 60.028C61.7599 60.2982 61.8626 60.6436 61.8281 60.989V60.9899C61.8247 61.0217 61.7302 61.9035 61.6719 63.2634C65.5674 60.7992 68.7576 57.3652 70.9219 53.2917V53.2907C70.9339 53.2683 70.9576 53.2315 70.9834 53.1901C71.0113 53.1453 71.0474 53.0865 71.0908 53.0134C71.1775 52.8671 71.293 52.6616 71.4248 52.3932C71.6885 51.8564 72.0187 51.0666 72.3135 49.9938C72.9028 47.8492 73.3526 44.5708 72.8545 39.9216C72.0654 36.1962 70.5372 32.6663 68.3604 29.5417C66.1814 26.4142 63.3969 23.756 60.1719 21.7243L60.1699 21.7233C59.1765 21.0837 55.5627 19.4629 50.8916 18.9128C46.2244 18.3631 40.5186 18.8837 35.3232 22.5007L35.3135 22.5075C35.0169 22.6812 34.6638 22.7321 34.3301 22.6501C33.9964 22.568 33.7076 22.3594 33.5254 22.0681C33.3432 21.7767 33.2822 21.4255 33.3545 21.0895C33.4178 20.7956 33.5787 20.5331 33.8096 20.3444L33.9131 20.2682Z" fill="#1C3542" stroke="#1C3542" stroke-width="0.3"/>
</svg>
