<svg width="64" height="64" viewBox="0 0 64 64" fill="none" xmlns="http://www.w3.org/2000/svg">
<rect width="64" height="64" fill="white"/>
<rect width="64" height="64" fill="white"/>
<g clip-path="url(#clip0_2561_103)">
<path d="M37.6232 21.493C36.2721 21.5935 30.5513 23.0244 29.113 23.3945C28.5277 23.1129 27.9653 22.7858 27.4312 22.4161C26.732 21.9542 26.1281 21.5551 25.3912 21.4971C24.2525 21.4072 23.1079 21.5694 22.039 21.9721C20.9701 22.3748 20.0031 23.0082 19.2068 23.8272C18.4104 24.6461 17.8044 25.6305 17.4318 26.7103C17.0591 27.7901 16.9291 28.9387 17.0509 30.0745C17.5124 34.2732 19.0855 42.6182 24.4392 51.3349C24.5759 51.5571 24.7749 51.7343 25.0115 51.8443C25.2481 51.9542 25.5118 51.9922 25.7698 51.9535C26.0278 51.9148 26.2687 51.801 26.4625 51.6264C26.6564 51.4518 26.7946 51.224 26.86 50.9715L27.4177 48.8101C27.9879 46.606 29.1152 44.5855 30.6913 42.9425L30.8774 42.749C30.9824 42.6398 31.1265 42.5766 31.278 42.5733C31.4295 42.57 31.5762 42.6268 31.6859 42.7314L31.9115 42.947C33.6355 44.5968 34.8821 46.6813 35.52 48.9807L36.0871 51.0251C36.1542 51.2756 36.294 51.5006 36.4889 51.6717C36.6838 51.8427 36.925 51.9522 37.1821 51.9863C37.2462 51.9954 37.3111 51.9998 37.3759 51.9998C37.6023 52.0004 37.825 51.9423 38.0223 51.8312C38.2196 51.72 38.3847 51.5597 38.5015 51.3658C43.8725 42.6322 45.448 34.2732 45.9096 30.067C46.0323 28.9359 45.9047 27.7916 45.5358 26.7152C45.1669 25.6389 44.5658 24.6569 43.7751 23.8387C42.9845 23.0206 42.0236 22.3863 40.9605 21.981C39.8974 21.5756 38.7582 21.409 37.6236 21.493H37.6232ZM44.5266 29.9155C44.0801 33.9858 42.5592 42.0589 37.3895 50.5174L36.86 48.6087C36.1553 46.0681 34.7778 43.7647 32.8729 41.9417L32.6474 41.7264C31.8643 40.9792 30.6251 41.0057 29.8741 41.7852L29.6881 41.9787C27.9464 43.7942 26.7009 46.027 26.0711 48.4628L25.5495 50.4838C20.3984 42.0433 18.8804 33.9855 18.4338 29.9223C18.3344 28.99 18.4417 28.0473 18.7479 27.1612C19.0542 26.275 19.5519 25.4673 20.2057 24.7953C20.8595 24.1234 21.6533 23.6037 22.5307 23.2733C23.4081 22.9429 24.3476 22.8099 25.2822 22.8837C25.6608 22.9135 26.1041 23.2062 26.6644 23.5768C28.2059 24.595 30.5354 26.1341 35.8416 25.4708C35.9331 25.4606 36.0217 25.4323 36.1022 25.3875C36.1827 25.3428 36.2536 25.2825 36.3106 25.2102C36.3676 25.1378 36.4097 25.0549 36.4344 24.9662C36.4591 24.8774 36.466 24.7847 36.4545 24.6933C36.4431 24.6019 36.4136 24.5137 36.3678 24.4338C36.322 24.3538 36.2608 24.2838 36.1877 24.2277C36.1147 24.1717 36.0312 24.1307 35.9421 24.1071C35.8531 24.0836 35.7602 24.078 35.669 24.0906C34.1204 24.2842 32.8651 24.2784 31.8253 24.149C34.0953 23.5955 36.9368 22.939 37.7268 22.8799C38.6578 22.8111 39.5926 22.9478 40.4649 23.2805C41.3372 23.6131 42.1257 24.1335 42.7746 24.8048C43.4234 25.4761 43.9166 26.2818 44.2194 27.1649C44.5222 28.0481 44.6271 28.987 44.5266 29.9151V29.9155ZM39.2455 15.5646C39.0611 15.5646 38.8842 15.6379 38.7537 15.7683C38.6233 15.8988 38.55 16.0757 38.55 16.2602V17.1296H37.7675C37.5831 17.1296 37.4061 17.2029 37.2757 17.3333C37.1453 17.4637 37.072 17.6407 37.072 17.8251C37.072 18.0096 37.1453 18.1865 37.2757 18.3169C37.4061 18.4474 37.5831 18.5207 37.7675 18.5207H38.55V19.3031C38.55 19.4876 38.6233 19.6645 38.7537 19.795C38.8842 19.9254 39.0611 19.9987 39.2455 19.9987C39.43 19.9987 39.6069 19.9254 39.7374 19.795C39.8678 19.6645 39.9411 19.4876 39.9411 19.3031V18.5207H40.8105C41.195 18.5207 41.506 18.2092 41.506 17.8251C41.506 17.441 41.195 17.1296 40.8105 17.1296H39.9411V16.2602C39.9411 15.8761 39.63 15.5646 39.2455 15.5646ZM46.027 13.565H45.1576V12.6955C45.1576 12.5111 45.0843 12.3342 44.9539 12.2037C44.8235 12.0733 44.6465 12 44.4621 12C44.2776 12 44.1007 12.0733 43.9703 12.2037C43.8398 12.3342 43.7665 12.5111 43.7665 12.6955V13.565H42.9841C42.7996 13.565 42.6227 13.6382 42.4922 13.7687C42.3618 13.8991 42.2885 14.076 42.2885 14.2605C42.2885 14.445 42.3618 14.6219 42.4922 14.7523C42.6227 14.8828 42.7996 14.956 42.9841 14.956H43.7665V15.7385C43.7665 15.923 43.8398 16.0999 43.9703 16.2303C44.1007 16.3608 44.2776 16.4341 44.4621 16.4341C44.6465 16.4341 44.8235 16.3608 44.9539 16.2303C45.0843 16.0999 45.1576 15.923 45.1576 15.7385V14.956H46.027C46.4115 14.956 46.7226 14.6446 46.7226 14.2605C46.7226 13.8764 46.4115 13.565 46.027 13.565ZM46.027 19.7379H45.1576V18.8684C45.1576 18.684 45.0843 18.5071 44.9539 18.3766C44.8235 18.2462 44.6465 18.1729 44.4621 18.1729C44.2776 18.1729 44.1007 18.2462 43.9703 18.3766C43.8398 18.5071 43.7665 18.684 43.7665 18.8684V19.7379H42.9841C42.7996 19.7379 42.6227 19.8111 42.4922 19.9416C42.3618 20.072 42.2885 20.2489 42.2885 20.4334C42.2885 20.6179 42.3618 20.7948 42.4922 20.9252C42.6227 21.0556 42.7996 21.1289 42.9841 21.1289H43.7665V21.9114C43.7665 22.0959 43.8398 22.2728 43.9703 22.4032C44.1007 22.5337 44.2776 22.6069 44.4621 22.6069C44.6465 22.6069 44.8235 22.5337 44.9539 22.4032C45.0843 22.2728 45.1576 22.0959 45.1576 21.9114V21.1289H46.027C46.4115 21.1289 46.7226 20.8175 46.7226 20.4334C46.7226 20.0493 46.4115 19.7379 46.027 19.7379Z" fill="#23BFCF"/>
</g>
<defs>
<clipPath id="clip0_2561_103">
<rect width="30" height="40" fill="white" transform="translate(17 12)"/>
</clipPath>
</defs>
</svg>
