<svg width="64" height="64" viewBox="0 0 64 64" fill="none" xmlns="http://www.w3.org/2000/svg">
<rect width="64" height="64" fill="white"/>
<g clip-path="url(#clip0_2561_102)">
<path d="M36.4083 14.014C35.529 14.0797 32.0642 14.9495 31.0996 15.195C30.7751 15.0325 30.4623 14.8476 30.1635 14.6418C29.71 14.3422 29.2822 14.0591 28.7451 14.0168C27.9865 13.957 27.224 14.0651 26.5119 14.3335C25.7998 14.6018 25.1555 15.0238 24.6251 15.5694C24.0947 16.1151 23.691 16.771 23.4429 17.4903C23.1948 18.2097 23.1083 18.9749 23.1895 19.7316C23.4828 22.4001 24.4825 27.7036 27.8835 33.2416C27.9984 33.4287 28.1658 33.5778 28.3649 33.6704C28.564 33.763 28.7859 33.795 29.003 33.7624C29.2201 33.7299 29.4229 33.6341 29.586 33.4872C29.7491 33.3402 29.8654 33.1485 29.9204 32.9359L30.272 31.5741C30.6188 30.2322 31.305 29.0021 32.2647 28.0021L32.3821 27.8798C32.3967 27.8648 32.4167 27.8561 32.4377 27.8557C32.4586 27.8553 32.4789 27.8632 32.4941 27.8777L32.636 28.0133C33.6854 29.0178 34.4443 30.2868 34.8328 31.6865L35.1897 32.9746C35.2481 33.1845 35.3664 33.3728 35.5302 33.5164C35.694 33.66 35.8961 33.7527 36.1118 33.7832C36.3275 33.8137 36.5474 33.7805 36.7445 33.6878C36.9417 33.595 37.1074 33.4468 37.2215 33.2612C40.634 27.7123 41.6355 22.3998 41.9284 19.7267C42.0101 18.9731 41.9251 18.2108 41.6793 17.4937C41.4336 16.7767 41.0332 16.1224 40.5065 15.5773C39.9798 15.0322 39.3397 14.6096 38.6314 14.3395C37.9232 14.0693 37.1642 13.9582 36.4083 14.014ZM39.4738 16.5787C39.8544 16.9711 40.1437 17.4427 40.3209 17.9599C40.498 18.4771 40.5588 19.027 40.4987 19.5704C40.2301 22.0211 39.3371 26.7962 36.3777 31.872L36.2196 31.3026C35.7621 29.6529 34.8677 28.1574 33.6307 26.9739L33.4889 26.838C32.8837 26.2606 31.9254 26.2809 31.3448 26.883L31.2274 27.0053C30.0967 28.1839 29.2882 29.6335 28.8795 31.2148L28.7195 31.8347C25.778 26.7765 24.8889 22.018 24.6202 19.5742C24.5621 19.0281 24.625 18.4759 24.8044 17.9569C24.9839 17.4379 25.2755 16.9648 25.6586 16.5713C26.0415 16.1776 26.5065 15.8731 27.0205 15.6795C27.5345 15.4859 28.0848 15.4079 28.6323 15.4511C28.7985 15.4644 29.0637 15.6394 29.3703 15.8421C30.376 16.5066 31.8956 17.5105 35.3411 17.0799C35.513 17.0588 35.6715 16.9764 35.7875 16.8479C35.9035 16.7193 35.9692 16.5532 35.9727 16.3801C35.9761 16.207 35.9169 16.0384 35.8061 15.9054C35.6952 15.7723 35.5401 15.6837 35.3692 15.6559C35.7475 15.5678 36.1299 15.4988 36.515 15.449C37.061 15.4079 37.6092 15.4878 38.1207 15.6831C38.6321 15.8784 39.0942 16.1842 39.4738 16.5787Z" fill="#23BFCF"/>
<path d="M46.6501 32.6725L41.4096 36.5909C40.8745 35.9396 40.1761 35.4419 39.3859 35.1487C38.5956 34.8554 37.7417 34.7771 36.9112 34.9216L31.5549 35.8584C30.7015 36.0063 29.8258 35.9607 28.9924 35.725L28.3935 35.554C26.8771 35.1184 25.2776 35.0584 23.7328 35.3791C22.1881 35.6997 20.7446 36.3914 19.5269 37.3945L19.3013 36.1048C19.285 36.0117 19.2506 35.9228 19.2 35.8431C19.1493 35.7633 19.0835 35.6944 19.0062 35.6401C18.9289 35.5858 18.8416 35.5473 18.7495 35.5267C18.6573 35.5062 18.5619 35.504 18.4689 35.5202L12.5953 36.5481C12.5022 36.5643 12.4133 36.5988 12.3336 36.6494C12.2539 36.7001 12.1849 36.7659 12.1306 36.8432C12.0763 36.9205 12.0378 37.0078 12.0173 37.0999C11.9967 37.1921 11.9945 37.2875 12.0108 37.3805L14.2652 50.2694C14.2813 50.3626 14.3157 50.4516 14.3663 50.5314C14.4169 50.6112 14.4829 50.6803 14.5603 50.7345C14.6376 50.7888 14.7248 50.8273 14.8171 50.8478C14.9093 50.8683 15.0046 50.8704 15.0977 50.8539L20.9712 49.8268C21.1591 49.7938 21.3263 49.6876 21.4359 49.5314C21.5455 49.3752 21.5886 49.1819 21.5557 48.994L21.4447 48.3589L22.8115 47.2257C23.3483 46.7792 24.0376 46.5587 24.7339 46.6106L34.3122 47.3108C34.328 47.3121 34.3441 47.3128 34.3603 47.3128H34.419C36.5325 47.3082 38.5903 46.6345 40.2973 45.3883C40.3247 45.3682 40.3507 45.3461 40.375 45.3222L51.7837 34.1517C51.9147 34.0234 51.9918 33.85 51.9992 33.6668C52.0066 33.4836 51.9439 33.3045 51.8237 33.166C50.5072 31.6464 48.2297 31.4294 46.65 32.6725H46.6501ZM15.5586 49.3129L13.5519 37.8414L18.008 37.0616L20.0148 48.5335L15.5586 49.3129ZM39.4056 44.2361C37.9516 45.2772 36.2071 45.8351 34.4187 45.8309H34.3917L24.8384 45.1543C23.77 45.0781 22.7139 45.4198 21.8927 46.1073L21.1589 46.7213L19.8202 39.0676C20.8672 38.0117 22.1789 37.2567 23.6179 36.8817C25.0568 36.5068 26.5702 36.5257 27.9994 36.9365L28.5986 37.1076C29.6407 37.4027 30.7357 37.4599 31.8029 37.2748L37.1593 36.3379C38.694 36.0717 40.2082 36.9056 40.8043 38.3447L32.7856 39.7476C32.6926 39.7639 32.6036 39.7983 32.5238 39.8489C32.4441 39.8996 32.3751 39.9654 32.3208 40.0427C32.2665 40.1201 32.2279 40.2073 32.2074 40.2995C32.1868 40.3917 32.1846 40.4871 32.2009 40.5802C32.2338 40.7681 32.34 40.9352 32.496 41.0449C32.6521 41.1545 32.8454 41.1977 33.0333 41.165L41.8381 39.6247C41.9311 39.6084 42.02 39.574 42.0998 39.5234C42.1795 39.4727 42.2485 39.4068 42.3028 39.3295C42.357 39.2522 42.3956 39.165 42.4161 39.0728C42.4367 38.9806 42.4389 38.8853 42.4226 38.7922C42.3651 38.4644 42.2735 38.1435 42.1493 37.8347L47.5184 33.8197L47.5335 33.8081C47.9107 33.5072 48.372 33.3308 48.8538 33.3035C49.3356 33.2761 49.814 33.399 50.2228 33.6553L39.4056 44.2361Z" fill="#23BFCF"/>
</g>
<defs>
<clipPath id="clip0_2561_102">
<rect width="40" height="37" fill="white" transform="translate(12 14)"/>
</clipPath>
</defs>
</svg>
