<svg width="96" height="98" viewBox="0 0 96 98" fill="none" xmlns="http://www.w3.org/2000/svg">
<path d="M22.8641 94.5H10.2529C8.44066 94.4981 6.70313 93.7601 5.42166 92.4477C4.14018 91.1353 3.41946 89.3559 3.41765 87.5V74.585C3.41765 74.1209 3.23761 73.6757 2.91714 73.3476C2.59668 73.0194 2.16203 72.835 1.70882 72.835C1.25562 72.835 0.82097 73.0194 0.500503 73.3476C0.180037 73.6757 0 74.1209 0 74.585V87.5C0.00316579 90.2838 1.0844 92.9526 3.00651 94.921C4.92863 96.8895 7.53466 97.9968 10.2529 98H22.8641C23.3173 98 23.7519 97.8156 24.0724 97.4874C24.3928 97.1593 24.5729 96.7141 24.5729 96.25C24.5729 95.7859 24.3928 95.3407 24.0724 95.0126C23.7519 94.6844 23.3173 94.5 22.8641 94.5ZM85.4412 0H72.8301C72.3768 0 71.9422 0.184375 71.6217 0.512563C71.3013 0.840752 71.1212 1.28587 71.1212 1.75C71.1212 2.21413 71.3013 2.65925 71.6217 2.98744C71.9422 3.31563 72.3768 3.5 72.8301 3.5H85.4412C87.2535 3.50185 88.991 4.23995 90.2725 5.5523C91.5539 6.86465 92.2747 8.64405 92.2765 10.5V23.415C92.2765 23.8791 92.4565 24.3242 92.777 24.6524C93.0974 24.9806 93.5321 25.165 93.9853 25.165C94.4385 25.165 94.8732 24.9806 95.1936 24.6524C95.5141 24.3242 95.6941 23.8791 95.6941 23.415V10.5C95.691 7.71622 94.6097 5.04739 92.6876 3.07896C90.7655 1.11053 88.1595 0.00324207 85.4412 0ZM93.9853 72.835C93.5321 72.835 93.0974 73.0194 92.777 73.3476C92.4565 73.6757 92.2765 74.1209 92.2765 74.585V87.5C92.2747 89.3559 91.5539 91.1353 90.2725 92.4477C88.991 93.7601 87.2535 94.4981 85.4412 94.5H72.8301C72.3768 94.5 71.9422 94.6844 71.6217 95.0126C71.3013 95.3407 71.1212 95.7859 71.1212 96.25C71.1212 96.7141 71.3013 97.1593 71.6217 97.4874C71.9422 97.8156 72.3768 98 72.8301 98H85.4412C88.1595 97.9968 90.7655 96.8895 92.6876 94.921C94.6097 92.9526 95.691 90.2838 95.6941 87.5V74.585C95.6941 74.1209 95.5141 73.6757 95.1936 73.3476C94.8732 73.0194 94.4385 72.835 93.9853 72.835ZM1.70882 25.165C2.16203 25.165 2.59668 24.9806 2.91714 24.6524C3.23761 24.3242 3.41765 23.8791 3.41765 23.415V10.5C3.41946 8.64405 4.14018 6.86465 5.42166 5.5523C6.70313 4.23995 8.44066 3.50185 10.2529 3.5H22.8641C23.3173 3.5 23.7519 3.31563 24.0724 2.98744C24.3928 2.65925 24.5729 2.21413 24.5729 1.75C24.5729 1.28587 24.3928 0.840752 24.0724 0.512563C23.7519 0.184375 23.3173 0 22.8641 0H10.2529C7.53466 0.00324207 4.92863 1.11053 3.00651 3.07896C1.0844 5.04739 0.00316579 7.71622 0 10.5V23.415C0 23.8791 0.180037 24.3242 0.500503 24.6524C0.82097 24.9806 1.25562 25.165 1.70882 25.165Z" fill="#23BFCF"/>
<path d="M46.0024 77.7793L46.1323 77.7979L46.1362 77.7988L49.6157 78.5449C49.7877 78.5818 49.9527 78.6526 50.0981 78.7529C50.2431 78.853 50.3668 78.981 50.4624 79.1289C50.5581 79.2769 50.624 79.4428 50.6558 79.6162C50.6874 79.7895 50.6849 79.9674 50.6479 80.1396C50.611 80.3119 50.54 80.4751 50.4399 80.6201C50.3398 80.7652 50.212 80.8897 50.064 80.9854C49.916 81.081 49.75 81.146 49.5767 81.1777C49.4034 81.2094 49.2255 81.2069 49.0532 81.1699L45.5728 80.4219L45.5688 80.4209C45.2269 80.3403 44.9304 80.1289 44.7427 79.832C44.555 79.5351 44.4912 79.1764 44.5649 78.833C44.6388 78.4897 44.8442 78.1887 45.1372 77.9951C45.3936 77.8258 45.6991 77.7507 46.0024 77.7793ZM44.3345 72.3164C44.6336 72.1235 44.9973 72.0567 45.3452 72.1318L50.4097 73.2266H50.4136V73.2275C50.732 73.3028 51.0125 73.4909 51.2017 73.7578C51.3909 74.0248 51.4755 74.3523 51.4409 74.6777C51.4063 75.003 51.2542 75.3042 51.0132 75.5254C50.7721 75.7467 50.4585 75.8723 50.1313 75.8789H50.1284C50.033 75.8791 49.9375 75.8693 49.8442 75.8496H49.8433L44.7788 74.7559C44.4309 74.6808 44.127 74.47 43.9341 74.1709C43.7414 73.8719 43.6755 73.5088 43.7505 73.1611C43.8256 72.8133 44.0355 72.5093 44.3345 72.3164ZM42.5503 66.4375C42.8445 66.2447 43.2033 66.1755 43.5483 66.2441H43.5513L52.2026 68.1279H52.2036C52.3793 68.1629 52.5459 68.2339 52.6929 68.333C52.8405 68.4327 52.9663 68.561 53.064 68.71C53.1617 68.859 53.2288 69.0259 53.2612 69.2012C53.2936 69.3764 53.2913 69.5563 53.2534 69.7305C53.2155 69.9046 53.1428 70.0699 53.0405 70.2158C52.9384 70.3615 52.8082 70.4852 52.6577 70.5801C52.5069 70.6751 52.3384 70.7392 52.1626 70.7686C51.988 70.7977 51.8096 70.7912 51.6372 70.751V70.752L42.981 68.8662H42.978C42.6357 68.7854 42.3384 68.573 42.1509 68.2754C41.9633 67.9778 41.9003 67.6182 41.9751 67.2744C42.0499 66.9309 42.2562 66.6303 42.5503 66.4375ZM41.8315 60.4014L41.9604 60.4199L41.9653 60.4209L53.6812 62.9414L53.6851 62.9385L53.7935 62.9648C54.1119 63.04 54.3923 63.2282 54.5815 63.4951C54.7708 63.7621 54.8563 64.0896 54.8218 64.415C54.7872 64.7402 54.6349 65.0415 54.394 65.2627C54.153 65.4839 53.8393 65.6095 53.5122 65.6162L53.5083 65.6172C53.4607 65.6173 53.413 65.6143 53.3657 65.6094L53.2241 65.5869L41.4009 63.0439L41.397 63.043C41.0552 62.9623 40.7585 62.7509 40.5708 62.4541C40.3831 62.1572 40.3193 61.7985 40.3931 61.4551C40.4668 61.1117 40.6723 60.8108 40.9653 60.6172C41.2219 60.4477 41.528 60.3726 41.8315 60.4014ZM37.772 54.418C38.0712 54.2253 38.4349 54.1591 38.7827 54.2344L56.9712 58.166C57.3191 58.2411 57.623 58.4519 57.8159 58.751C58.0086 59.0499 58.0745 59.413 57.9995 59.7607C57.9244 60.1086 57.7145 60.4126 57.4155 60.6055C57.1164 60.7984 56.7527 60.8651 56.4048 60.79L38.2153 56.8584C37.8675 56.7831 37.5634 56.5725 37.3706 56.2734C37.1779 55.9743 37.1118 55.6105 37.187 55.2627C37.2623 54.9148 37.4728 54.6107 37.772 54.418ZM26.3892 34.1006C26.7323 34.0244 27.0918 34.0865 27.3901 34.2725C27.6884 34.4585 27.9023 34.754 27.9849 35.0957V35.0967C29.4085 41.0752 32.9248 46.3454 37.896 49.9561C39.1445 49.869 42.4223 49.727 46.3442 50.2158C50.3448 50.7144 55.0322 51.8708 58.9194 54.4238L58.9233 54.4268C59.2121 54.6263 59.4101 54.9308 59.4771 55.2744C59.5439 55.6183 59.4732 55.9748 59.2808 56.2676C59.0883 56.5604 58.7891 56.7668 58.4468 56.8418C58.1044 56.9168 57.746 56.8546 57.4487 56.6689L57.4448 56.666C53.5781 54.1262 48.6607 53.1203 44.6792 52.7539C40.7102 52.3887 37.6957 52.6599 37.6313 52.666L37.6323 52.667C37.3047 52.7 36.9761 52.6107 36.7104 52.416V52.415C31.0107 48.4127 26.9748 42.4611 25.3667 35.6846L25.3647 35.6777C25.2949 35.3334 25.363 34.9754 25.5542 34.6807C25.7457 34.3857 26.0459 34.1769 26.3892 34.1006ZM36.5503 16.8506C37.9149 16.7293 39.2379 16.8221 40.354 17.1699C41.4679 17.5171 42.3893 18.1236 42.9263 19.0371C44.0945 20.8958 46.3841 22.2555 48.4224 23.1553C49.4366 23.603 50.3795 23.9324 51.0728 24.1514C51.4192 24.2608 51.7038 24.3428 51.9028 24.3975C52.0021 24.4247 52.0802 24.4451 52.1343 24.459C52.1611 24.4659 52.1821 24.471 52.1968 24.4746C52.2041 24.4764 52.2103 24.4785 52.2144 24.4795C52.2164 24.48 52.2181 24.4802 52.2192 24.4805H52.2202L52.2251 24.4814C52.5654 24.5689 52.8578 24.7872 53.0396 25.0879C53.2212 25.3886 53.2776 25.7489 53.1968 26.0908C53.1158 26.4326 52.904 26.7295 52.6069 26.917C52.3099 27.1043 51.9511 27.1678 51.6079 27.0938L51.604 27.0928C51.4368 27.053 49.4419 26.5691 47.1226 25.5146C44.8117 24.464 42.1461 22.8318 40.6636 20.4785V20.4795C40.4757 20.2121 40.2288 19.9915 39.9419 19.835C39.6548 19.6784 39.3351 19.5903 39.0083 19.5771L39.0024 19.5762C37.0381 19.4365 33.4034 19.5524 30.8296 21.8955C28.781 23.7608 27.6803 26.7584 27.5952 30.8506C27.5878 31.2015 27.4427 31.5357 27.1919 31.7812C26.9411 32.0268 26.6043 32.165 26.2534 32.165C26.0748 32.1651 25.8976 32.1288 25.7329 32.0596C25.5684 31.9904 25.4193 31.8892 25.2944 31.7617C25.1694 31.6341 25.0711 31.4825 25.0054 31.3164C24.9397 31.1505 24.9079 30.9733 24.9116 30.7949C25.0128 25.9878 26.3843 22.3126 29.0229 19.9102L29.3843 19.5957C31.2511 18.0604 33.9956 17.0777 36.5503 16.8506Z" fill="#1C3542" stroke="#1C3542" stroke-width="0.4"/>
<path d="M52.1558 18.8582C54.7894 17.0064 58.3793 16.765 61.6245 17.5642C64.768 18.3384 67.6398 20.1028 69.0444 22.4041L69.1763 22.6287V22.6296C71.2506 26.0573 71.2593 31.3225 69.5376 36.7537C67.8122 42.1962 64.3371 47.8488 59.3804 52.072L59.3716 52.0798L59.3706 52.0789C59.0925 52.29 58.7436 52.3849 58.397 52.3425C58.0503 52.3002 57.7333 52.1243 57.5142 51.8523C57.2952 51.5803 57.1907 51.2331 57.2231 50.8855C57.2556 50.5389 57.4219 50.2185 57.686 49.9919L58.2026 49.5251C63.4889 44.6307 67.3022 37.6062 68.0366 31.6111C68.4155 28.5186 67.9728 25.7226 66.5181 23.6306C65.0675 21.5448 62.5874 20.1256 58.8188 19.8289H58.8149V19.8279C56.993 19.6448 55.1632 20.0943 53.6333 21.1003L53.6294 21.1033C52.0657 22.0809 50.2644 22.6112 48.4204 22.6394L48.4214 22.6404L48.4194 22.6394V22.6404L48.4185 22.6394C48.2434 22.6433 48.0692 22.6145 47.9058 22.5515C47.7414 22.4881 47.591 22.3927 47.4634 22.2712C47.3357 22.1497 47.233 22.0037 47.1616 21.8425C47.0903 21.6815 47.0517 21.5079 47.0474 21.3318C47.0431 21.1557 47.0729 20.9805 47.1362 20.8162C47.1997 20.6517 47.295 20.5005 47.4165 20.3728C47.538 20.2452 47.6841 20.1434 47.8452 20.072C48.0063 20.0006 48.1798 19.9611 48.356 19.9568H48.3589C49.7008 19.9412 51.0126 19.5609 52.1558 18.8582Z" fill="#1C3542" stroke="#1C3542" stroke-width="0.4"/>
</svg>
