<svg width="64" height="64" viewBox="0 0 64 64" fill="none" xmlns="http://www.w3.org/2000/svg">
<rect width="64" height="64" fill="white"/>
<path d="M24.3217 35.2216C24.383 35.315 24.4665 35.3917 24.5648 35.4449C24.663 35.4981 24.7729 35.5261 24.8846 35.5263L25.284 35.527L25.59 38.2904L24.8435 38.4377C24.6679 38.4724 24.5133 38.5754 24.4136 38.7241C24.314 38.8728 24.2775 39.055 24.3121 39.2306C24.3842 39.596 24.7391 39.8342 25.1047 39.7617L25.7396 39.6359L25.8802 40.9046L24.8438 41.1091C24.6701 41.1456 24.5178 41.2492 24.4198 41.3972C24.3219 41.5453 24.2863 41.726 24.3207 41.9002C24.355 42.0743 24.4566 42.2279 24.6034 42.3277C24.7503 42.4275 24.9305 42.4654 25.1051 42.4332L26.0298 42.2507L26.1702 43.5194L24.8438 43.7806C24.6703 43.8174 24.5182 43.921 24.4204 44.0691C24.3227 44.2171 24.2872 44.3977 24.3216 44.5718C24.3559 44.7458 24.4575 44.8993 24.6042 44.9991C24.7508 45.0989 24.9309 45.1369 25.1054 45.1049L26.3197 44.8652L26.4604 46.1335L24.8445 46.4527C24.7575 46.4699 24.6748 46.504 24.6011 46.5531C24.5273 46.6022 24.464 46.6654 24.4146 46.739C24.3653 46.8126 24.3309 46.8952 24.3135 46.9821C24.2961 47.069 24.296 47.1584 24.3131 47.2454C24.3303 47.3323 24.3644 47.415 24.4135 47.4888C24.4626 47.5625 24.5258 47.6259 24.5994 47.6752C24.673 47.7246 24.7556 47.759 24.8425 47.7764C24.9294 47.7938 25.0188 47.7939 25.1058 47.7768L26.6099 47.4799L26.7503 48.7483L24.8445 49.1245C24.6689 49.1592 24.5142 49.2623 24.4146 49.411C24.3149 49.5597 24.2785 49.7419 24.3131 49.9175C24.3303 50.0045 24.3644 50.0872 24.4135 50.1609C24.4626 50.2347 24.5257 50.298 24.5994 50.3474C24.673 50.3967 24.7556 50.431 24.8425 50.4484C24.9294 50.4658 25.0188 50.4658 25.1058 50.4486L26.8996 50.0944L27.0472 51.4119C27.0661 51.5754 27.145 51.7261 27.2687 51.8348C27.3924 51.9434 27.552 52.0023 27.7166 51.9999H36.1266C36.2915 52.0025 36.4515 51.9438 36.5754 51.8351C36.6994 51.7263 36.7785 51.5754 36.7974 51.4116L37.1693 48.0611L38.9994 47.703C39.0862 47.6858 39.1688 47.6517 39.2424 47.6027C39.3161 47.5536 39.3793 47.4905 39.4285 47.417C39.4777 47.3435 39.512 47.2609 39.5293 47.1742C39.5467 47.0874 39.5467 46.9981 39.5295 46.9113C39.5124 46.8245 39.4783 46.742 39.4292 46.6684C39.3802 46.5948 39.3171 46.5315 39.2436 46.4823C39.1702 46.4331 39.0877 46.3988 39.001 46.3815C38.9142 46.3641 38.8249 46.3641 38.7382 46.3812L37.3248 46.6606L37.4718 45.3356L38.9994 45.0341C39.175 44.9994 39.3296 44.8964 39.4292 44.7478C39.5288 44.5992 39.5654 44.4171 39.5308 44.2415C39.496 44.0659 39.393 43.9113 39.2443 43.8117C39.0956 43.7121 38.9134 43.6755 38.7378 43.7102L37.6273 43.9292L37.7745 42.6048L38.9998 42.363C39.1742 42.3271 39.3274 42.2238 39.4259 42.0755C39.5245 41.9271 39.5604 41.7459 39.5259 41.5712C39.4914 41.3965 39.3892 41.2425 39.2416 41.1428C39.0941 41.0431 38.9131 41.0058 38.7382 41.0389L37.9304 41.1984L38.0773 39.873L38.9994 39.6909C39.0864 39.6737 39.1691 39.6396 39.2428 39.5905C39.3166 39.5414 39.3799 39.4782 39.4293 39.4046C39.4786 39.331 39.513 39.2484 39.5304 39.1615C39.5478 39.0746 39.5479 38.9852 39.5308 38.8983C39.4961 38.7226 39.393 38.568 39.2443 38.4683C39.0956 38.3687 38.9134 38.3322 38.7378 38.3668L38.2331 38.4666L38.3797 37.1413L38.9994 37.019C39.175 36.9843 39.3295 36.8813 39.4291 36.7327C39.5287 36.5841 39.5652 36.402 39.5305 36.2264C39.5134 36.1395 39.4793 36.0568 39.4301 35.983C39.381 35.9093 39.3178 35.8459 39.2442 35.7966C39.1706 35.7472 39.088 35.7129 39.0011 35.6955C38.9142 35.678 38.8248 35.6779 38.7378 35.6951L38.5356 35.7349L38.5553 35.554H38.9374C39.0493 35.5541 39.1594 35.5264 39.2578 35.4734C39.3563 35.4204 39.44 35.3437 39.5015 35.2503C44.283 27.9652 45.2678 25.1208 45.7999 20.2703C45.9178 19.1819 45.795 18.0809 45.44 17.0452C45.085 16.0096 44.5066 15.0646 43.7457 14.2775C42.985 13.4902 42.0604 12.8799 41.0375 12.4898C40.0146 12.0998 38.9184 11.9395 37.8266 12.0204C36.5276 12.1173 31.0318 13.4918 29.6458 13.8485C29.0842 13.5781 28.5447 13.264 28.0322 12.9092C27.3592 12.4645 26.778 12.0804 26.0676 12.0247C24.9719 11.9381 23.8706 12.0941 22.8421 12.4816C21.8135 12.8691 20.883 13.4785 20.1168 14.2666C19.3506 15.0546 18.7675 16.0018 18.409 17.0408C18.0505 18.0798 17.9254 19.1851 18.0427 20.2779C18.5738 25.1146 19.5559 27.9521 24.3217 35.2216ZM35.5228 50.6504H28.3205L28.2269 49.8199L35.7814 48.3229L35.5228 50.6504ZM35.9372 46.935L28.0783 48.486L27.9377 47.2176L36.0845 45.6096L35.9372 46.935ZM36.24 44.2035L27.7881 45.8716L27.6475 44.6036L36.387 42.8786L36.24 44.2035ZM36.5431 41.4721L27.4985 43.257L27.3578 41.989L36.6897 40.147L36.5431 41.4721ZM36.8459 38.7406L27.2086 40.6425L27.0679 39.3745L36.9924 37.4153L36.8459 38.7406ZM37.1486 36.0089L26.9186 38.0281L26.6418 35.53L37.1992 35.5524L37.1486 36.0089ZM21.0729 15.219C21.7007 14.569 22.4647 14.0661 23.3099 13.7464C24.1552 13.4267 25.0607 13.2981 25.9615 13.3698C26.3242 13.3985 26.7499 13.6795 27.2882 14.0352C28.771 15.0151 31.0116 16.4956 36.1157 15.8571C36.2338 15.8432 36.3462 15.7982 36.4414 15.7268C36.5366 15.6555 36.6112 15.5602 36.6577 15.4507C36.7042 15.3411 36.7209 15.2213 36.7061 15.1032C36.6914 14.9852 36.6457 14.8731 36.5736 14.7784C36.5016 14.6837 36.4057 14.6098 36.2959 14.5641C36.186 14.5184 36.066 14.5026 35.948 14.5182C34.476 14.7021 33.2795 14.6985 32.2865 14.5782C34.4636 14.0478 37.1726 13.4229 37.9279 13.3665C38.8222 13.3004 39.7201 13.4318 40.558 13.7513C41.3958 14.0708 42.1532 14.5706 42.7764 15.2154C43.3996 15.8602 43.8733 16.6342 44.1641 17.4825C44.4549 18.3307 44.5557 19.2326 44.4592 20.1241C43.9974 24.3358 43.2937 26.9723 38.574 34.2056L25.2512 34.1776C20.5475 26.9601 19.8453 24.3301 19.3838 20.1307C19.2854 19.2381 19.3858 18.3347 19.6778 17.4855C19.9699 16.6363 20.4463 15.8623 21.0729 15.219Z" fill="#23BFCF"/>
</svg>
