<svg width="96" height="98" viewBox="0 0 96 98" fill="none" xmlns="http://www.w3.org/2000/svg">
<path d="M22.8641 94.5H10.2529C8.44066 94.4981 6.70313 93.7601 5.42166 92.4477C4.14018 91.1353 3.41946 89.3559 3.41765 87.5V74.585C3.41765 74.1209 3.23761 73.6757 2.91714 73.3476C2.59668 73.0194 2.16203 72.835 1.70882 72.835C1.25562 72.835 0.82097 73.0194 0.500503 73.3476C0.180037 73.6757 0 74.1209 0 74.585V87.5C0.00316579 90.2838 1.0844 92.9526 3.00651 94.921C4.92863 96.8895 7.53466 97.9968 10.2529 98H22.8641C23.3173 98 23.7519 97.8156 24.0724 97.4874C24.3928 97.1593 24.5729 96.7141 24.5729 96.25C24.5729 95.7859 24.3928 95.3407 24.0724 95.0126C23.7519 94.6844 23.3173 94.5 22.8641 94.5ZM85.4412 0H72.8301C72.3768 0 71.9422 0.184375 71.6217 0.512563C71.3013 0.840752 71.1212 1.28587 71.1212 1.75C71.1212 2.21413 71.3013 2.65925 71.6217 2.98744C71.9422 3.31563 72.3768 3.5 72.8301 3.5H85.4412C87.2535 3.50185 88.991 4.23995 90.2725 5.5523C91.5539 6.86465 92.2747 8.64405 92.2765 10.5V23.415C92.2765 23.8791 92.4565 24.3242 92.777 24.6524C93.0974 24.9806 93.5321 25.165 93.9853 25.165C94.4385 25.165 94.8732 24.9806 95.1936 24.6524C95.5141 24.3242 95.6941 23.8791 95.6941 23.415V10.5C95.691 7.71622 94.6097 5.04739 92.6876 3.07896C90.7655 1.11053 88.1595 0.00324207 85.4412 0ZM93.9853 72.835C93.5321 72.835 93.0974 73.0194 92.777 73.3476C92.4565 73.6757 92.2765 74.1209 92.2765 74.585V87.5C92.2747 89.3559 91.5539 91.1353 90.2725 92.4477C88.991 93.7601 87.2535 94.4981 85.4412 94.5H72.8301C72.3768 94.5 71.9422 94.6844 71.6217 95.0126C71.3013 95.3407 71.1212 95.7859 71.1212 96.25C71.1212 96.7141 71.3013 97.1593 71.6217 97.4874C71.9422 97.8156 72.3768 98 72.8301 98H85.4412C88.1595 97.9968 90.7655 96.8895 92.6876 94.921C94.6097 92.9526 95.691 90.2838 95.6941 87.5V74.585C95.6941 74.1209 95.5141 73.6757 95.1936 73.3476C94.8732 73.0194 94.4385 72.835 93.9853 72.835ZM1.70882 25.165C2.16203 25.165 2.59668 24.9806 2.91714 24.6524C3.23761 24.3242 3.41765 23.8791 3.41765 23.415V10.5C3.41946 8.64405 4.14018 6.86465 5.42166 5.5523C6.70313 4.23995 8.44066 3.50185 10.2529 3.5H22.8641C23.3173 3.5 23.7519 3.31563 24.0724 2.98744C24.3928 2.65925 24.5729 2.21413 24.5729 1.75C24.5729 1.28587 24.3928 0.840752 24.0724 0.512563C23.7519 0.184375 23.3173 0 22.8641 0H10.2529C7.53466 0.00324207 4.92863 1.11053 3.00651 3.07896C1.0844 5.04739 0.00316579 7.71622 0 10.5V23.415C0 23.8791 0.180037 24.3242 0.500503 24.6524C0.82097 24.9806 1.25562 25.165 1.70882 25.165Z" fill="#23BFCF"/>
<path d="M83.1396 69.6777L78.6891 65.2285C76.2573 62.7787 74.8893 59.469 74.8818 56.0172C74.8708 55.6715 74.7258 55.3436 74.4774 55.1029C74.229 54.8622 73.8966 54.7276 73.5507 54.7276C73.2048 54.7276 72.8725 54.8622 72.6241 55.1029C72.3757 55.3436 72.2307 55.6715 72.2197 56.0172C72.2293 60.1743 73.8772 64.1601 76.8061 67.1102L81.2566 71.5607C85.0919 75.6983 78.7384 81.0624 75.1881 76.6917C75.4549 76.4325 75.667 76.1225 75.8121 75.78C75.9572 75.4374 76.0321 75.0693 76.0326 74.6973C76.0331 74.3253 75.9591 73.957 75.815 73.6141C75.6709 73.2712 75.4595 72.9606 75.1934 72.7007L73.0973 70.8816C73.2753 70.4132 73.3078 69.902 73.1904 69.4149C73.073 68.9278 72.8113 68.4875 72.4394 68.1516C70.3553 66.174 47.7152 47.0336 46.7777 45.2065C43.5877 41.5485 41.0572 37.3643 39.299 32.8405L40.9289 32.092C41.7563 31.7108 42.4172 31.0422 42.7887 30.2104C43.1603 29.3786 43.2173 28.4402 42.9491 27.5696C42.4698 26.0395 42.2251 24.4456 42.2233 22.8421C42.226 21.0936 42.9784 18.8004 41.1713 17.6046C40.729 17.2771 40.2071 17.0742 39.6597 17.0168C39.1124 16.9594 38.5597 17.0497 38.0591 17.2783L34.0401 19.1294C33.7318 19.2844 33.4957 19.5531 33.3817 19.8788C33.2676 20.2045 33.2844 20.5618 33.4286 20.8753C33.5728 21.1889 33.833 21.4342 34.1545 21.5596C34.476 21.6851 34.8337 21.6808 35.1521 21.5477L39.1698 19.6967C39.2394 19.6645 39.3164 19.652 39.3926 19.6604C39.4688 19.6689 39.5412 19.698 39.6021 19.7446C39.6629 19.7912 39.7099 19.8535 39.7379 19.9249C39.7659 19.9962 39.7739 20.0739 39.761 20.1494C39.3522 22.9 39.5726 25.7075 40.4056 28.3606C40.4829 28.6135 40.4659 28.8858 40.3576 29.127C40.2494 29.3683 40.0573 29.562 39.817 29.6724L26.9049 35.6011C25.9421 36.0924 25.0365 35.0617 24.4772 34.4558C22.9418 32.7726 22.1371 30.5488 22.24 28.2728C22.2542 28.027 22.3344 27.7897 22.4722 27.5858C22.61 27.3819 22.8003 27.219 23.023 27.1142L30.3047 23.7716C30.613 23.6166 30.8491 23.3479 30.9631 23.0222C31.0772 22.6965 31.0604 22.3392 30.9162 22.0256C30.772 21.7121 30.5118 21.4668 30.1903 21.3413C29.8688 21.2159 29.5111 21.2202 29.1927 21.3533L21.8991 24.6998C21.0996 25.0827 20.4438 25.7115 20.0278 26.4942C19.6117 27.2769 19.4573 28.1723 19.5872 29.0491C17.089 30.2343 14.652 30.6578 15.6361 34.1801L11.3148 36.1644C11.0035 36.3176 10.7644 36.5862 10.6482 36.9131C10.532 37.24 10.548 37.5993 10.6927 37.9146C10.8374 38.2299 11.0995 38.4763 11.4231 38.6013C11.7467 38.7263 12.1063 38.7201 12.4254 38.584L16.7481 36.5998C18.7722 39.6228 20.6539 38.094 23.2028 36.9527C23.7922 37.6159 24.5762 38.0759 25.4426 38.267C26.3091 38.4581 27.2138 38.3705 28.0275 38.0167L30.5577 36.8542C33.2477 44.285 36.8433 51.8117 42.7254 57.2544L54.2552 67.3845C54.522 67.6033 54.8634 67.71 55.2073 67.6821C55.5512 67.6542 55.8709 67.4939 56.099 67.2349C56.327 66.976 56.4457 66.6386 56.4299 66.2939C56.4141 65.9492 56.2651 65.624 56.0144 65.387L53.0527 62.7849C54.7592 61.6657 56.2067 60.1946 57.2981 58.4702L70.5817 70.0666L70.4712 70.3063C69.5823 72.12 68.083 73.5627 66.2364 74.3813L60.0068 68.9013C59.7398 68.6822 59.3982 68.5753 59.054 68.6033C58.7097 68.6312 58.3898 68.7918 58.1617 69.0512C57.9337 69.3105 57.8153 69.6483 57.8315 69.9933C57.8478 70.3383 57.9975 70.6635 58.2489 70.9002L64.5545 76.448C64.9204 76.7702 65.3725 76.9784 65.8551 77.047C66.3378 77.1156 66.83 77.0417 67.2711 76.8342L69.5217 78.8291C70.0783 79.2475 70.7664 79.4523 71.4612 79.4063C72.1559 79.3604 72.8111 79.0667 73.3077 78.5788C79.4481 85.3611 89.3812 76.4374 83.1369 69.6791L83.1396 69.6777ZM19.486 35.7276C18.6481 34.9213 18.1506 33.8249 18.0957 32.6633L20.0107 31.7844C20.3239 32.8676 20.7974 33.8977 21.4157 34.8407L19.486 35.7276ZM41.0248 51.4549C37.5674 46.6518 34.8573 41.3528 32.9867 35.7382L36.8766 33.9511C39.8058 41.3292 44.6011 47.82 50.7928 52.7879C49.7592 54.552 48.2799 56.0133 46.5034 57.0253C44.4554 55.4014 42.6161 53.5304 41.0275 51.4549H41.0248ZM50.9659 60.9498L48.5862 58.8591C50.2854 57.7411 51.7268 56.2739 52.8143 54.555L55.2713 56.7004C54.236 58.4717 52.7506 59.9378 50.9659 60.9498ZM69.6655 75.396C70.4637 74.7857 71.1743 74.0688 71.7776 73.2653L73.3437 74.6263C72.8708 75.5458 72.115 76.289 71.1877 76.7463L69.6655 75.396Z" fill="#1C3542"/>
</svg>
