<svg width="96" height="98" viewBox="0 0 96 98" fill="none" xmlns="http://www.w3.org/2000/svg">
<path d="M22.8641 94.5H10.2529C8.44066 94.4981 6.70313 93.7601 5.42166 92.4477C4.14018 91.1353 3.41946 89.3559 3.41765 87.5V74.585C3.41765 74.1209 3.23761 73.6757 2.91714 73.3476C2.59668 73.0194 2.16203 72.835 1.70882 72.835C1.25562 72.835 0.82097 73.0194 0.500503 73.3476C0.180037 73.6757 0 74.1209 0 74.585V87.5C0.00316579 90.2838 1.0844 92.9526 3.00651 94.921C4.92863 96.8895 7.53466 97.9968 10.2529 98H22.8641C23.3173 98 23.7519 97.8156 24.0724 97.4874C24.3928 97.1593 24.5729 96.7141 24.5729 96.25C24.5729 95.7859 24.3928 95.3407 24.0724 95.0126C23.7519 94.6844 23.3173 94.5 22.8641 94.5ZM85.4412 0H72.8301C72.3768 0 71.9422 0.184375 71.6217 0.512563C71.3013 0.840752 71.1212 1.28587 71.1212 1.75C71.1212 2.21413 71.3013 2.65925 71.6217 2.98744C71.9422 3.31563 72.3768 3.5 72.8301 3.5H85.4412C87.2535 3.50185 88.991 4.23995 90.2725 5.5523C91.5539 6.86465 92.2747 8.64405 92.2765 10.5V23.415C92.2765 23.8791 92.4565 24.3242 92.777 24.6524C93.0974 24.9806 93.5321 25.165 93.9853 25.165C94.4385 25.165 94.8732 24.9806 95.1936 24.6524C95.5141 24.3242 95.6941 23.8791 95.6941 23.415V10.5C95.691 7.71622 94.6097 5.04739 92.6876 3.07896C90.7655 1.11053 88.1595 0.00324207 85.4412 0ZM93.9853 72.835C93.5321 72.835 93.0974 73.0194 92.777 73.3476C92.4565 73.6757 92.2765 74.1209 92.2765 74.585V87.5C92.2747 89.3559 91.5539 91.1353 90.2725 92.4477C88.991 93.7601 87.2535 94.4981 85.4412 94.5H72.8301C72.3768 94.5 71.9422 94.6844 71.6217 95.0126C71.3013 95.3407 71.1212 95.7859 71.1212 96.25C71.1212 96.7141 71.3013 97.1593 71.6217 97.4874C71.9422 97.8156 72.3768 98 72.8301 98H85.4412C88.1595 97.9968 90.7655 96.8895 92.6876 94.921C94.6097 92.9526 95.691 90.2838 95.6941 87.5V74.585C95.6941 74.1209 95.5141 73.6757 95.1936 73.3476C94.8732 73.0194 94.4385 72.835 93.9853 72.835ZM1.70882 25.165C2.16203 25.165 2.59668 24.9806 2.91714 24.6524C3.23761 24.3242 3.41765 23.8791 3.41765 23.415V10.5C3.41946 8.64405 4.14018 6.86465 5.42166 5.5523C6.70313 4.23995 8.44066 3.50185 10.2529 3.5H22.8641C23.3173 3.5 23.7519 3.31563 24.0724 2.98744C24.3928 2.65925 24.5729 2.21413 24.5729 1.75C24.5729 1.28587 24.3928 0.840752 24.0724 0.512563C23.7519 0.184375 23.3173 0 22.8641 0H10.2529C7.53466 0.00324207 4.92863 1.11053 3.00651 3.07896C1.0844 5.04739 0.00316579 7.71622 0 10.5V23.415C0 23.8791 0.180037 24.3242 0.500503 24.6524C0.82097 24.9806 1.25562 25.165 1.70882 25.165Z" fill="#23BFCF"/>
<mask id="path-2-outside-1_2706_191" maskUnits="userSpaceOnUse" x="13.188" y="32.6277" width="70" height="46" fill="black">
<rect fill="white" x="13.188" y="32.6277" width="70" height="46"/>
<path d="M82.0972 59.3868C82.0261 58.4744 81.6129 57.6225 80.9403 57.0019C80.2676 56.3813 79.3853 56.0378 78.4701 56.0403C78.3148 56.0399 78.1597 56.0521 78.0063 56.0767H75.0799L75.3325 54.656C75.3763 54.3378 75.3518 54.014 75.2606 53.706C75.1694 53.3981 75.0136 53.1131 74.8035 52.8702C74.5934 52.6273 74.334 52.4319 74.0424 52.2972C73.7509 52.1625 73.4339 52.0915 73.1128 52.089H68.2496C67.9278 52.0892 67.6097 52.1586 67.317 52.2925C67.0244 52.4263 66.7639 52.6216 66.5533 52.8649C66.3141 53.0884 66.3274 53.5109 65.934 53.3749H59.8578C59.4991 53.3747 59.1447 53.4517 58.8184 53.6007C58.4922 53.7497 58.2019 53.9671 57.9671 54.2383C57.6089 54.7908 57.6563 54.724 57.0273 54.6608H49.7307C49.1792 54.6641 48.6414 54.8334 48.1874 55.1465C47.7337 54.8336 47.1964 54.6644 46.6452 54.6608H39.3499C38.7415 54.7349 38.7476 54.7713 38.41 54.2383C38.1752 53.9674 37.8848 53.7501 37.5586 53.6014C37.2324 53.4526 36.878 53.3758 36.5194 53.3761H30.442C30.0583 53.5146 30.0534 53.0847 29.8227 52.8649C29.6121 52.6216 29.3516 52.4263 29.0589 52.2925C28.7662 52.1586 28.4482 52.0892 28.1264 52.089H23.2632C22.9387 52.0908 22.6185 52.1627 22.3244 52.2997C22.0303 52.4367 21.7692 52.6356 21.559 52.8828C21.3488 53.13 21.1945 53.4196 21.1066 53.7319C21.0187 54.0443 20.9992 54.3719 21.0496 54.6924L21.2948 56.0767H18.3684C18.2155 56.0522 18.0607 56.04 17.9058 56.0403C16.9903 56.0381 16.1078 56.3821 15.4352 57.0031C14.7626 57.6242 14.3495 58.4765 14.2788 59.3892C13.7943 65.174 14.8519 72.3419 27.4354 76.4619C28.4955 76.7618 30.2829 77.6179 30.714 76.0491C31.0248 74.5239 29.1731 74.5191 28.1834 74.1512C17.3181 70.5933 16.2423 65.0514 16.6976 59.5944C16.7212 59.4171 16.7815 59.2466 16.8746 59.0938C16.9677 58.941 17.0915 58.8093 17.2383 58.707C17.385 58.6046 17.5515 58.534 17.727 58.4995C17.9026 58.4649 18.0834 58.4673 18.2579 58.5064H21.7259L22.0562 60.3716C22.1744 61.1237 22.5223 61.8209 23.0522 62.3677C23.5821 62.9144 24.2681 63.2839 25.0162 63.4255C25.7644 63.5671 26.5379 63.4739 27.231 63.1587C27.9241 62.8435 28.5028 62.3217 28.8877 61.6648L29.2338 63.7048C29.3833 64.6897 29.8711 65.5918 30.6134 66.2563C31.3556 66.9208 32.306 67.3061 33.3014 67.3462C34.2969 67.3863 35.2752 67.0786 36.0684 66.4759C36.8617 65.8733 37.4204 65.0133 37.6487 64.0435L38.1417 67.0367C38.3222 68.1926 38.9092 69.2461 39.7971 70.0078C40.6849 70.7696 41.8154 71.1896 42.9853 71.1924C44.1551 71.1952 45.2876 70.7805 46.1791 70.023C47.0706 69.2655 47.6625 68.2148 47.8486 67.0598L48.1886 65.0016L48.5225 67.0367C48.7031 68.1926 49.29 69.2461 50.1779 70.0078C51.0658 70.7696 52.1963 71.1896 53.3661 71.1924C54.536 71.1952 55.6684 70.7805 56.5599 70.023C57.4514 69.2655 58.0434 68.2148 58.2294 67.0598L58.7273 64.0363C58.9545 65.0034 59.5105 65.8616 60.3001 66.4643C61.0898 67.0671 62.0643 67.377 63.0571 67.3412C64.0499 67.3054 64.9994 66.926 65.7436 66.2679C66.4878 65.6097 66.9804 64.7137 67.1373 63.7327L67.4895 61.6563C67.8708 62.3114 68.4449 62.8331 69.1334 63.1502C69.8219 63.4673 70.5915 63.5644 71.3372 63.4283C72.083 63.2923 72.7686 62.9296 73.3008 62.3898C73.833 61.85 74.1858 61.1592 74.3113 60.4116L74.6488 58.5052H78.1168C78.2916 58.4583 78.4745 58.4501 78.6527 58.4813C78.831 58.5124 79.0003 58.5821 79.1488 58.6855C79.2973 58.7889 79.4214 58.9235 79.5125 59.0799C79.6035 59.2362 79.6593 59.4106 79.6759 59.5908C80.1325 65.0514 79.0566 70.5933 68.195 74.1499C65.9531 74.8461 63.616 75.1865 61.2687 75.159H35.1072C34.2329 75.0594 33.1984 75.2416 33.1401 76.3028C33.1246 76.6245 33.2373 76.9392 33.4536 77.1778C33.6699 77.4164 33.972 77.5594 34.2936 77.5754C34.5559 77.5875 34.8304 77.5888 35.1072 77.5888H61.27C63.8734 77.6165 66.465 77.2355 68.9502 76.4595C81.524 72.3431 82.5817 65.174 82.0972 59.3868ZM26.9291 60.0243C26.8802 60.3198 26.7268 60.588 26.4968 60.7801C26.2669 60.9721 25.9757 61.0752 25.6761 61.0706C25.3766 61.0661 25.0886 60.9541 24.8646 60.7552C24.6406 60.5563 24.4955 60.2836 24.4556 59.9866L23.4854 54.5188H27.9054L26.9291 60.0243ZM35.3246 63.3563C35.2549 63.7976 35.0291 64.1992 34.6883 64.4881C34.3475 64.777 33.9143 64.934 33.4675 64.9304C33.0208 64.9269 32.5901 64.7631 32.2539 64.4689C31.9177 64.1746 31.6983 63.7695 31.6356 63.3271L30.4432 55.8047L36.5959 55.8569L35.3246 63.3563ZM45.4492 66.687C45.3551 67.2717 45.0551 67.8035 44.6034 68.1865C44.1517 68.5694 43.5781 68.7784 42.9859 68.7756C42.3937 68.7728 41.822 68.5585 41.3739 68.1713C40.9258 67.7841 40.6309 67.2495 40.5423 66.6639L39.0245 57.4658C39.0208 57.2302 39.1095 57.1234 39.3523 57.0906H46.6452C46.6908 57.0891 46.7361 57.0975 46.7782 57.115C46.8203 57.1325 46.8581 57.1588 46.8892 57.1922C46.9202 57.2255 46.9438 57.2652 46.9583 57.3084C46.9727 57.3516 46.9778 57.3974 46.9731 57.4427L45.4492 66.687ZM55.8312 66.687C55.7371 67.2717 55.4372 67.8035 54.9855 68.1865C54.5338 68.5694 53.9601 68.7784 53.3679 68.7756C52.7757 68.7728 52.204 68.5585 51.756 68.1713C51.3079 67.7841 51.0129 67.2495 50.9243 66.6639L49.4065 57.4658C49.4016 57.2302 49.4915 57.1234 49.7319 57.0906H57.0261C57.0717 57.089 57.1172 57.0972 57.1594 57.1146C57.2016 57.132 57.2396 57.1583 57.2708 57.1917C57.302 57.2251 57.3257 57.2648 57.3402 57.3081C57.3548 57.3514 57.3599 57.3973 57.3551 57.4427L55.8312 66.687ZM64.7391 63.3563C64.6703 63.7984 64.4448 64.2011 64.1038 64.4908C63.7628 64.7806 63.3289 64.938 62.8815 64.9345C62.434 64.931 62.0027 64.7667 61.6663 64.4716C61.3299 64.1765 61.1108 63.7703 61.049 63.3271L59.8565 55.8047L66.0105 55.8569L64.7391 63.3563ZM70.6818 61.0916C70.3766 61.0879 70.0831 60.9741 69.8552 60.771C69.6274 60.5679 69.4807 60.2894 69.442 59.9866L68.4706 54.5188H72.8906L71.9143 60.0255C71.8702 60.3212 71.7216 60.5913 71.4955 60.7869C71.2694 60.9824 70.9807 61.0906 70.6818 61.0916ZM70.6818 36.1577C69.8981 36.1616 69.1359 36.4147 68.5056 36.8806C67.8754 37.3465 67.4098 38.0009 67.1762 38.749L67.1422 38.5462C66.9833 37.537 66.4702 36.6174 65.6948 35.9522C64.9193 35.287 63.9323 34.9197 62.9107 34.9162C61.8891 34.9127 60.8996 35.2732 60.1196 35.933C59.3397 36.5929 58.8202 37.509 58.6544 38.5171L58.5026 39.4096L58.2355 37.7873C58.0557 36.6306 57.469 35.5761 56.581 34.8136C55.6929 34.0511 54.5618 33.6305 53.3913 33.6278C52.2208 33.625 51.0877 34.0401 50.196 34.7984C49.3043 35.5567 48.7126 36.6084 48.5274 37.7642L48.1886 39.8224L47.8547 37.7873C47.6741 36.6314 47.0871 35.5779 46.1993 34.8162C45.3114 34.0544 44.1809 33.6344 43.0111 33.6316C41.8412 33.6288 40.7087 34.0435 39.8173 34.801C38.9258 35.5585 38.3338 36.6092 38.1478 37.7642L37.8758 39.412C37.6208 33.938 30.3582 33.1597 29.2398 38.5171L29.201 38.7514C28.9501 37.9646 28.4417 37.285 27.7578 36.8221C27.0738 36.3592 26.2539 36.1399 25.4302 36.1995C24.6065 36.2591 23.8267 36.5941 23.2165 37.1506C22.6062 37.7071 22.201 38.4527 22.0659 39.2675L21.0459 45.0231C21.002 45.3412 21.0265 45.665 21.1178 45.9729C21.209 46.2808 21.3648 46.5657 21.5749 46.8085C21.785 47.0514 22.0445 47.2466 22.3361 47.3812C22.6276 47.5157 22.9445 47.5866 23.2656 47.5889H28.1288C28.1701 47.5889 28.2101 47.578 28.2502 47.5768C28.4662 47.9699 28.7838 48.2978 29.1697 48.5263C29.5557 48.7549 29.9959 48.8756 30.4444 48.876H36.5218C36.9991 48.8105 37.01 48.8129 37.2662 49.2075C37.525 49.5071 37.8453 49.7474 38.2052 49.9121C38.5652 50.0768 38.9565 50.162 39.3523 50.162H46.6465C47.198 50.1587 47.7358 49.9894 48.1898 49.6762C48.6435 49.9892 49.1808 50.1584 49.7319 50.162H57.0273C57.4231 50.162 57.8144 50.0768 58.1744 49.9121C58.5343 49.7474 58.8546 49.5071 59.1134 49.2075C59.3623 48.7995 59.4012 48.819 59.8578 48.8748H65.9352C66.3836 48.8745 66.8236 48.7537 67.2094 48.5251C67.5952 48.2966 67.9125 47.9686 68.1282 47.5756C68.1695 47.578 68.2095 47.5889 68.2508 47.5889H73.114C73.4383 47.587 73.7584 47.5152 74.0525 47.3783C74.3465 47.2413 74.6075 47.0426 74.8176 46.7955C75.0278 46.5485 75.1821 46.259 75.2702 45.9468C75.3582 45.6346 75.3778 45.3072 75.3276 44.9867L74.3198 39.3063C74.1893 38.4338 73.7509 37.6367 73.0839 37.0592C72.4169 36.4817 71.5653 36.162 70.683 36.1577H70.6818ZM23.4866 45.1604L24.4629 39.6536C24.5067 39.3577 24.6552 39.0874 24.8813 38.8915C25.1074 38.6957 25.3962 38.5874 25.6954 38.5863C26.0005 38.59 26.2941 38.7038 26.5219 38.9069C26.7498 39.11 26.8965 39.3885 26.9351 39.6913L27.9066 45.1604H23.4866ZM30.3667 46.3941L31.638 38.8947C31.7012 38.4481 31.9244 38.0396 32.2661 37.7451C32.6078 37.4507 33.0448 37.2904 33.4959 37.2939C33.9469 37.2975 34.3814 37.4647 34.7184 37.7645C35.0554 38.0643 35.2721 38.4763 35.3282 38.9239L36.5206 46.4463L30.3667 46.3941ZM46.893 47.6181C46.8625 47.654 46.8245 47.6828 46.7817 47.7026C46.7389 47.7223 46.6924 47.7324 46.6452 47.7322H39.3511C39.3054 47.7338 39.26 47.7256 39.2178 47.7082C39.1755 47.6908 39.1375 47.6645 39.1063 47.6311C39.0752 47.5977 39.0515 47.558 39.0369 47.5147C39.0224 47.4714 39.0173 47.4255 39.022 47.3801L40.5459 38.1358C40.6313 37.5441 40.9277 37.0032 41.3806 36.6129C41.8334 36.2227 42.4121 36.0093 43.01 36.0123C43.6078 36.0153 44.1843 36.2343 44.6333 36.629C45.0823 37.0238 45.3734 37.5676 45.4528 38.1601L46.9707 47.357C46.9779 47.4035 46.9747 47.4511 46.9613 47.4963C46.9478 47.5415 46.9245 47.5831 46.893 47.6181ZM57.275 47.6181C57.2443 47.6541 57.2062 47.683 57.1632 47.7027C57.1202 47.7224 57.0734 47.7325 57.0261 47.7322H49.7307C49.6852 47.7336 49.6398 47.7253 49.5977 47.7078C49.5557 47.6903 49.5178 47.664 49.4868 47.6306C49.4557 47.5973 49.4322 47.5576 49.4177 47.5144C49.4032 47.4712 49.3982 47.4254 49.4029 47.3801L50.9268 38.1358C51.0121 37.5441 51.3086 37.0032 51.7614 36.6129C52.2143 36.2227 52.793 36.0093 53.3908 36.0123C53.9886 36.0153 54.5652 36.2343 55.0141 36.629C55.4631 37.0238 55.7542 37.5676 55.8337 38.1601L57.3515 47.357C57.3588 47.4035 57.3556 47.4511 57.3421 47.4963C57.3287 47.5415 57.3053 47.5831 57.2738 47.6181H57.275ZM59.7813 46.3941L61.0526 38.8947C61.1167 38.449 61.3403 38.0417 61.6817 37.7482C62.0232 37.4546 62.4595 37.2949 62.9098 37.2984C63.3601 37.302 63.7938 37.4686 64.1306 37.7675C64.4674 38.0664 64.6845 38.4772 64.7416 38.9239L65.934 46.4463L59.7813 46.3941ZM68.473 45.1604L69.4481 39.6536C69.4915 39.3535 69.6427 39.0795 69.8734 38.8828C70.1042 38.6862 70.3987 38.5803 70.7019 38.5851C71.0051 38.5898 71.2962 38.7049 71.5206 38.9087C71.7451 39.1125 71.8877 39.3912 71.9216 39.6925L72.8918 45.1604H68.473Z"/>
</mask>
<path d="M82.0972 59.3868C82.0261 58.4744 81.6129 57.6225 80.9403 57.0019C80.2676 56.3813 79.3853 56.0378 78.4701 56.0403C78.3148 56.0399 78.1597 56.0521 78.0063 56.0767H75.0799L75.3325 54.656C75.3763 54.3378 75.3518 54.014 75.2606 53.706C75.1694 53.3981 75.0136 53.1131 74.8035 52.8702C74.5934 52.6273 74.334 52.4319 74.0424 52.2972C73.7509 52.1625 73.4339 52.0915 73.1128 52.089H68.2496C67.9278 52.0892 67.6097 52.1586 67.317 52.2925C67.0244 52.4263 66.7639 52.6216 66.5533 52.8649C66.3141 53.0884 66.3274 53.5109 65.934 53.3749H59.8578C59.4991 53.3747 59.1447 53.4517 58.8184 53.6007C58.4922 53.7497 58.2019 53.9671 57.9671 54.2383C57.6089 54.7908 57.6563 54.724 57.0273 54.6608H49.7307C49.1792 54.6641 48.6414 54.8334 48.1874 55.1465C47.7337 54.8336 47.1964 54.6644 46.6452 54.6608H39.3499C38.7415 54.7349 38.7476 54.7713 38.41 54.2383C38.1752 53.9674 37.8848 53.7501 37.5586 53.6014C37.2324 53.4526 36.878 53.3758 36.5194 53.3761H30.442C30.0583 53.5146 30.0534 53.0847 29.8227 52.8649C29.6121 52.6216 29.3516 52.4263 29.0589 52.2925C28.7662 52.1586 28.4482 52.0892 28.1264 52.089H23.2632C22.9387 52.0908 22.6185 52.1627 22.3244 52.2997C22.0303 52.4367 21.7692 52.6356 21.559 52.8828C21.3488 53.13 21.1945 53.4196 21.1066 53.7319C21.0187 54.0443 20.9992 54.3719 21.0496 54.6924L21.2948 56.0767H18.3684C18.2155 56.0522 18.0607 56.04 17.9058 56.0403C16.9903 56.0381 16.1078 56.3821 15.4352 57.0031C14.7626 57.6242 14.3495 58.4765 14.2788 59.3892C13.7943 65.174 14.8519 72.3419 27.4354 76.4619C28.4955 76.7618 30.2829 77.6179 30.714 76.0491C31.0248 74.5239 29.1731 74.5191 28.1834 74.1512C17.3181 70.5933 16.2423 65.0514 16.6976 59.5944C16.7212 59.4171 16.7815 59.2466 16.8746 59.0938C16.9677 58.941 17.0915 58.8093 17.2383 58.707C17.385 58.6046 17.5515 58.534 17.727 58.4995C17.9026 58.4649 18.0834 58.4673 18.2579 58.5064H21.7259L22.0562 60.3716C22.1744 61.1237 22.5223 61.8209 23.0522 62.3677C23.5821 62.9144 24.2681 63.2839 25.0162 63.4255C25.7644 63.5671 26.5379 63.4739 27.231 63.1587C27.9241 62.8435 28.5028 62.3217 28.8877 61.6648L29.2338 63.7048C29.3833 64.6897 29.8711 65.5918 30.6134 66.2563C31.3556 66.9208 32.306 67.3061 33.3014 67.3462C34.2969 67.3863 35.2752 67.0786 36.0684 66.4759C36.8617 65.8733 37.4204 65.0133 37.6487 64.0435L38.1417 67.0367C38.3222 68.1926 38.9092 69.2461 39.7971 70.0078C40.6849 70.7696 41.8154 71.1896 42.9853 71.1924C44.1551 71.1952 45.2876 70.7805 46.1791 70.023C47.0706 69.2655 47.6625 68.2148 47.8486 67.0598L48.1886 65.0016L48.5225 67.0367C48.7031 68.1926 49.29 69.2461 50.1779 70.0078C51.0658 70.7696 52.1963 71.1896 53.3661 71.1924C54.536 71.1952 55.6684 70.7805 56.5599 70.023C57.4514 69.2655 58.0434 68.2148 58.2294 67.0598L58.7273 64.0363C58.9545 65.0034 59.5105 65.8616 60.3001 66.4643C61.0898 67.0671 62.0643 67.377 63.0571 67.3412C64.0499 67.3054 64.9994 66.926 65.7436 66.2679C66.4878 65.6097 66.9804 64.7137 67.1373 63.7327L67.4895 61.6563C67.8708 62.3114 68.4449 62.8331 69.1334 63.1502C69.8219 63.4673 70.5915 63.5644 71.3372 63.4283C72.083 63.2923 72.7686 62.9296 73.3008 62.3898C73.833 61.85 74.1858 61.1592 74.3113 60.4116L74.6488 58.5052H78.1168C78.2916 58.4583 78.4745 58.4501 78.6527 58.4813C78.831 58.5124 79.0003 58.5821 79.1488 58.6855C79.2973 58.7889 79.4214 58.9235 79.5125 59.0799C79.6035 59.2362 79.6593 59.4106 79.6759 59.5908C80.1325 65.0514 79.0566 70.5933 68.195 74.1499C65.9531 74.8461 63.616 75.1865 61.2687 75.159H35.1072C34.2329 75.0594 33.1984 75.2416 33.1401 76.3028C33.1246 76.6245 33.2373 76.9392 33.4536 77.1778C33.6699 77.4164 33.972 77.5594 34.2936 77.5754C34.5559 77.5875 34.8304 77.5888 35.1072 77.5888H61.27C63.8734 77.6165 66.465 77.2355 68.9502 76.4595C81.524 72.3431 82.5817 65.174 82.0972 59.3868ZM26.9291 60.0243C26.8802 60.3198 26.7268 60.588 26.4968 60.7801C26.2669 60.9721 25.9757 61.0752 25.6761 61.0706C25.3766 61.0661 25.0886 60.9541 24.8646 60.7552C24.6406 60.5563 24.4955 60.2836 24.4556 59.9866L23.4854 54.5188H27.9054L26.9291 60.0243ZM35.3246 63.3563C35.2549 63.7976 35.0291 64.1992 34.6883 64.4881C34.3475 64.777 33.9143 64.934 33.4675 64.9304C33.0208 64.9269 32.5901 64.7631 32.2539 64.4689C31.9177 64.1746 31.6983 63.7695 31.6356 63.3271L30.4432 55.8047L36.5959 55.8569L35.3246 63.3563ZM45.4492 66.687C45.3551 67.2717 45.0551 67.8035 44.6034 68.1865C44.1517 68.5694 43.5781 68.7784 42.9859 68.7756C42.3937 68.7728 41.822 68.5585 41.3739 68.1713C40.9258 67.7841 40.6309 67.2495 40.5423 66.6639L39.0245 57.4658C39.0208 57.2302 39.1095 57.1234 39.3523 57.0906H46.6452C46.6908 57.0891 46.7361 57.0975 46.7782 57.115C46.8203 57.1325 46.8581 57.1588 46.8892 57.1922C46.9202 57.2255 46.9438 57.2652 46.9583 57.3084C46.9727 57.3516 46.9778 57.3974 46.9731 57.4427L45.4492 66.687ZM55.8312 66.687C55.7371 67.2717 55.4372 67.8035 54.9855 68.1865C54.5338 68.5694 53.9601 68.7784 53.3679 68.7756C52.7757 68.7728 52.204 68.5585 51.756 68.1713C51.3079 67.7841 51.0129 67.2495 50.9243 66.6639L49.4065 57.4658C49.4016 57.2302 49.4915 57.1234 49.7319 57.0906H57.0261C57.0717 57.089 57.1172 57.0972 57.1594 57.1146C57.2016 57.132 57.2396 57.1583 57.2708 57.1917C57.302 57.2251 57.3257 57.2648 57.3402 57.3081C57.3548 57.3514 57.3599 57.3973 57.3551 57.4427L55.8312 66.687ZM64.7391 63.3563C64.6703 63.7984 64.4448 64.2011 64.1038 64.4908C63.7628 64.7806 63.3289 64.938 62.8815 64.9345C62.434 64.931 62.0027 64.7667 61.6663 64.4716C61.3299 64.1765 61.1108 63.7703 61.049 63.3271L59.8565 55.8047L66.0105 55.8569L64.7391 63.3563ZM70.6818 61.0916C70.3766 61.0879 70.0831 60.9741 69.8552 60.771C69.6274 60.5679 69.4807 60.2894 69.442 59.9866L68.4706 54.5188H72.8906L71.9143 60.0255C71.8702 60.3212 71.7216 60.5913 71.4955 60.7869C71.2694 60.9824 70.9807 61.0906 70.6818 61.0916ZM70.6818 36.1577C69.8981 36.1616 69.1359 36.4147 68.5056 36.8806C67.8754 37.3465 67.4098 38.0009 67.1762 38.749L67.1422 38.5462C66.9833 37.537 66.4702 36.6174 65.6948 35.9522C64.9193 35.287 63.9323 34.9197 62.9107 34.9162C61.8891 34.9127 60.8996 35.2732 60.1196 35.933C59.3397 36.5929 58.8202 37.509 58.6544 38.5171L58.5026 39.4096L58.2355 37.7873C58.0557 36.6306 57.469 35.5761 56.581 34.8136C55.6929 34.0511 54.5618 33.6305 53.3913 33.6278C52.2208 33.625 51.0877 34.0401 50.196 34.7984C49.3043 35.5567 48.7126 36.6084 48.5274 37.7642L48.1886 39.8224L47.8547 37.7873C47.6741 36.6314 47.0871 35.5779 46.1993 34.8162C45.3114 34.0544 44.1809 33.6344 43.0111 33.6316C41.8412 33.6288 40.7087 34.0435 39.8173 34.801C38.9258 35.5585 38.3338 36.6092 38.1478 37.7642L37.8758 39.412C37.6208 33.938 30.3582 33.1597 29.2398 38.5171L29.201 38.7514C28.9501 37.9646 28.4417 37.285 27.7578 36.8221C27.0738 36.3592 26.2539 36.1399 25.4302 36.1995C24.6065 36.2591 23.8267 36.5941 23.2165 37.1506C22.6062 37.7071 22.201 38.4527 22.0659 39.2675L21.0459 45.0231C21.002 45.3412 21.0265 45.665 21.1178 45.9729C21.209 46.2808 21.3648 46.5657 21.5749 46.8085C21.785 47.0514 22.0445 47.2466 22.3361 47.3812C22.6276 47.5157 22.9445 47.5866 23.2656 47.5889H28.1288C28.1701 47.5889 28.2101 47.578 28.2502 47.5768C28.4662 47.9699 28.7838 48.2978 29.1697 48.5263C29.5557 48.7549 29.9959 48.8756 30.4444 48.876H36.5218C36.9991 48.8105 37.01 48.8129 37.2662 49.2075C37.525 49.5071 37.8453 49.7474 38.2052 49.9121C38.5652 50.0768 38.9565 50.162 39.3523 50.162H46.6465C47.198 50.1587 47.7358 49.9894 48.1898 49.6762C48.6435 49.9892 49.1808 50.1584 49.7319 50.162H57.0273C57.4231 50.162 57.8144 50.0768 58.1744 49.9121C58.5343 49.7474 58.8546 49.5071 59.1134 49.2075C59.3623 48.7995 59.4012 48.819 59.8578 48.8748H65.9352C66.3836 48.8745 66.8236 48.7537 67.2094 48.5251C67.5952 48.2966 67.9125 47.9686 68.1282 47.5756C68.1695 47.578 68.2095 47.5889 68.2508 47.5889H73.114C73.4383 47.587 73.7584 47.5152 74.0525 47.3783C74.3465 47.2413 74.6075 47.0426 74.8176 46.7955C75.0278 46.5485 75.1821 46.259 75.2702 45.9468C75.3582 45.6346 75.3778 45.3072 75.3276 44.9867L74.3198 39.3063C74.1893 38.4338 73.7509 37.6367 73.0839 37.0592C72.4169 36.4817 71.5653 36.162 70.683 36.1577H70.6818ZM23.4866 45.1604L24.4629 39.6536C24.5067 39.3577 24.6552 39.0874 24.8813 38.8915C25.1074 38.6957 25.3962 38.5874 25.6954 38.5863C26.0005 38.59 26.2941 38.7038 26.5219 38.9069C26.7498 39.11 26.8965 39.3885 26.9351 39.6913L27.9066 45.1604H23.4866ZM30.3667 46.3941L31.638 38.8947C31.7012 38.4481 31.9244 38.0396 32.2661 37.7451C32.6078 37.4507 33.0448 37.2904 33.4959 37.2939C33.9469 37.2975 34.3814 37.4647 34.7184 37.7645C35.0554 38.0643 35.2721 38.4763 35.3282 38.9239L36.5206 46.4463L30.3667 46.3941ZM46.893 47.6181C46.8625 47.654 46.8245 47.6828 46.7817 47.7026C46.7389 47.7223 46.6924 47.7324 46.6452 47.7322H39.3511C39.3054 47.7338 39.26 47.7256 39.2178 47.7082C39.1755 47.6908 39.1375 47.6645 39.1063 47.6311C39.0752 47.5977 39.0515 47.558 39.0369 47.5147C39.0224 47.4714 39.0173 47.4255 39.022 47.3801L40.5459 38.1358C40.6313 37.5441 40.9277 37.0032 41.3806 36.6129C41.8334 36.2227 42.4121 36.0093 43.01 36.0123C43.6078 36.0153 44.1843 36.2343 44.6333 36.629C45.0823 37.0238 45.3734 37.5676 45.4528 38.1601L46.9707 47.357C46.9779 47.4035 46.9747 47.4511 46.9613 47.4963C46.9478 47.5415 46.9245 47.5831 46.893 47.6181ZM57.275 47.6181C57.2443 47.6541 57.2062 47.683 57.1632 47.7027C57.1202 47.7224 57.0734 47.7325 57.0261 47.7322H49.7307C49.6852 47.7336 49.6398 47.7253 49.5977 47.7078C49.5557 47.6903 49.5178 47.664 49.4868 47.6306C49.4557 47.5973 49.4322 47.5576 49.4177 47.5144C49.4032 47.4712 49.3982 47.4254 49.4029 47.3801L50.9268 38.1358C51.0121 37.5441 51.3086 37.0032 51.7614 36.6129C52.2143 36.2227 52.793 36.0093 53.3908 36.0123C53.9886 36.0153 54.5652 36.2343 55.0141 36.629C55.4631 37.0238 55.7542 37.5676 55.8337 38.1601L57.3515 47.357C57.3588 47.4035 57.3556 47.4511 57.3421 47.4963C57.3287 47.5415 57.3053 47.5831 57.2738 47.6181H57.275ZM59.7813 46.3941L61.0526 38.8947C61.1167 38.449 61.3403 38.0417 61.6817 37.7482C62.0232 37.4546 62.4595 37.2949 62.9098 37.2984C63.3601 37.302 63.7938 37.4686 64.1306 37.7675C64.4674 38.0664 64.6845 38.4772 64.7416 38.9239L65.934 46.4463L59.7813 46.3941ZM68.473 45.1604L69.4481 39.6536C69.4915 39.3535 69.6427 39.0795 69.8734 38.8828C70.1042 38.6862 70.3987 38.5803 70.7019 38.5851C71.0051 38.5898 71.2962 38.7049 71.5206 38.9087C71.7451 39.1125 71.8877 39.3912 71.9216 39.6925L72.8918 45.1604H68.473Z" fill="#1C3542"/>
<path d="M82.0972 59.3868C82.0261 58.4744 81.6129 57.6225 80.9403 57.0019C80.2676 56.3813 79.3853 56.0378 78.4701 56.0403C78.3148 56.0399 78.1597 56.0521 78.0063 56.0767H75.0799L75.3325 54.656C75.3763 54.3378 75.3518 54.014 75.2606 53.706C75.1694 53.3981 75.0136 53.1131 74.8035 52.8702C74.5934 52.6273 74.334 52.4319 74.0424 52.2972C73.7509 52.1625 73.4339 52.0915 73.1128 52.089H68.2496C67.9278 52.0892 67.6097 52.1586 67.317 52.2925C67.0244 52.4263 66.7639 52.6216 66.5533 52.8649C66.3141 53.0884 66.3274 53.5109 65.934 53.3749H59.8578C59.4991 53.3747 59.1447 53.4517 58.8184 53.6007C58.4922 53.7497 58.2019 53.9671 57.9671 54.2383C57.6089 54.7908 57.6563 54.724 57.0273 54.6608H49.7307C49.1792 54.6641 48.6414 54.8334 48.1874 55.1465C47.7337 54.8336 47.1964 54.6644 46.6452 54.6608H39.3499C38.7415 54.7349 38.7476 54.7713 38.41 54.2383C38.1752 53.9674 37.8848 53.7501 37.5586 53.6014C37.2324 53.4526 36.878 53.3758 36.5194 53.3761H30.442C30.0583 53.5146 30.0534 53.0847 29.8227 52.8649C29.6121 52.6216 29.3516 52.4263 29.0589 52.2925C28.7662 52.1586 28.4482 52.0892 28.1264 52.089H23.2632C22.9387 52.0908 22.6185 52.1627 22.3244 52.2997C22.0303 52.4367 21.7692 52.6356 21.559 52.8828C21.3488 53.13 21.1945 53.4196 21.1066 53.7319C21.0187 54.0443 20.9992 54.3719 21.0496 54.6924L21.2948 56.0767H18.3684C18.2155 56.0522 18.0607 56.04 17.9058 56.0403C16.9903 56.0381 16.1078 56.3821 15.4352 57.0031C14.7626 57.6242 14.3495 58.4765 14.2788 59.3892C13.7943 65.174 14.8519 72.3419 27.4354 76.4619C28.4955 76.7618 30.2829 77.6179 30.714 76.0491C31.0248 74.5239 29.1731 74.5191 28.1834 74.1512C17.3181 70.5933 16.2423 65.0514 16.6976 59.5944C16.7212 59.4171 16.7815 59.2466 16.8746 59.0938C16.9677 58.941 17.0915 58.8093 17.2383 58.707C17.385 58.6046 17.5515 58.534 17.727 58.4995C17.9026 58.4649 18.0834 58.4673 18.2579 58.5064H21.7259L22.0562 60.3716C22.1744 61.1237 22.5223 61.8209 23.0522 62.3677C23.5821 62.9144 24.2681 63.2839 25.0162 63.4255C25.7644 63.5671 26.5379 63.4739 27.231 63.1587C27.9241 62.8435 28.5028 62.3217 28.8877 61.6648L29.2338 63.7048C29.3833 64.6897 29.8711 65.5918 30.6134 66.2563C31.3556 66.9208 32.306 67.3061 33.3014 67.3462C34.2969 67.3863 35.2752 67.0786 36.0684 66.4759C36.8617 65.8733 37.4204 65.0133 37.6487 64.0435L38.1417 67.0367C38.3222 68.1926 38.9092 69.2461 39.7971 70.0078C40.6849 70.7696 41.8154 71.1896 42.9853 71.1924C44.1551 71.1952 45.2876 70.7805 46.1791 70.023C47.0706 69.2655 47.6625 68.2148 47.8486 67.0598L48.1886 65.0016L48.5225 67.0367C48.7031 68.1926 49.29 69.2461 50.1779 70.0078C51.0658 70.7696 52.1963 71.1896 53.3661 71.1924C54.536 71.1952 55.6684 70.7805 56.5599 70.023C57.4514 69.2655 58.0434 68.2148 58.2294 67.0598L58.7273 64.0363C58.9545 65.0034 59.5105 65.8616 60.3001 66.4643C61.0898 67.0671 62.0643 67.377 63.0571 67.3412C64.0499 67.3054 64.9994 66.926 65.7436 66.2679C66.4878 65.6097 66.9804 64.7137 67.1373 63.7327L67.4895 61.6563C67.8708 62.3114 68.4449 62.8331 69.1334 63.1502C69.8219 63.4673 70.5915 63.5644 71.3372 63.4283C72.083 63.2923 72.7686 62.9296 73.3008 62.3898C73.833 61.85 74.1858 61.1592 74.3113 60.4116L74.6488 58.5052H78.1168C78.2916 58.4583 78.4745 58.4501 78.6527 58.4813C78.831 58.5124 79.0003 58.5821 79.1488 58.6855C79.2973 58.7889 79.4214 58.9235 79.5125 59.0799C79.6035 59.2362 79.6593 59.4106 79.6759 59.5908C80.1325 65.0514 79.0566 70.5933 68.195 74.1499C65.9531 74.8461 63.616 75.1865 61.2687 75.159H35.1072C34.2329 75.0594 33.1984 75.2416 33.1401 76.3028C33.1246 76.6245 33.2373 76.9392 33.4536 77.1778C33.6699 77.4164 33.972 77.5594 34.2936 77.5754C34.5559 77.5875 34.8304 77.5888 35.1072 77.5888H61.27C63.8734 77.6165 66.465 77.2355 68.9502 76.4595C81.524 72.3431 82.5817 65.174 82.0972 59.3868ZM26.9291 60.0243C26.8802 60.3198 26.7268 60.588 26.4968 60.7801C26.2669 60.9721 25.9757 61.0752 25.6761 61.0706C25.3766 61.0661 25.0886 60.9541 24.8646 60.7552C24.6406 60.5563 24.4955 60.2836 24.4556 59.9866L23.4854 54.5188H27.9054L26.9291 60.0243ZM35.3246 63.3563C35.2549 63.7976 35.0291 64.1992 34.6883 64.4881C34.3475 64.777 33.9143 64.934 33.4675 64.9304C33.0208 64.9269 32.5901 64.7631 32.2539 64.4689C31.9177 64.1746 31.6983 63.7695 31.6356 63.3271L30.4432 55.8047L36.5959 55.8569L35.3246 63.3563ZM45.4492 66.687C45.3551 67.2717 45.0551 67.8035 44.6034 68.1865C44.1517 68.5694 43.5781 68.7784 42.9859 68.7756C42.3937 68.7728 41.822 68.5585 41.3739 68.1713C40.9258 67.7841 40.6309 67.2495 40.5423 66.6639L39.0245 57.4658C39.0208 57.2302 39.1095 57.1234 39.3523 57.0906H46.6452C46.6908 57.0891 46.7361 57.0975 46.7782 57.115C46.8203 57.1325 46.8581 57.1588 46.8892 57.1922C46.9202 57.2255 46.9438 57.2652 46.9583 57.3084C46.9727 57.3516 46.9778 57.3974 46.9731 57.4427L45.4492 66.687ZM55.8312 66.687C55.7371 67.2717 55.4372 67.8035 54.9855 68.1865C54.5338 68.5694 53.9601 68.7784 53.3679 68.7756C52.7757 68.7728 52.204 68.5585 51.756 68.1713C51.3079 67.7841 51.0129 67.2495 50.9243 66.6639L49.4065 57.4658C49.4016 57.2302 49.4915 57.1234 49.7319 57.0906H57.0261C57.0717 57.089 57.1172 57.0972 57.1594 57.1146C57.2016 57.132 57.2396 57.1583 57.2708 57.1917C57.302 57.2251 57.3257 57.2648 57.3402 57.3081C57.3548 57.3514 57.3599 57.3973 57.3551 57.4427L55.8312 66.687ZM64.7391 63.3563C64.6703 63.7984 64.4448 64.2011 64.1038 64.4908C63.7628 64.7806 63.3289 64.938 62.8815 64.9345C62.434 64.931 62.0027 64.7667 61.6663 64.4716C61.3299 64.1765 61.1108 63.7703 61.049 63.3271L59.8565 55.8047L66.0105 55.8569L64.7391 63.3563ZM70.6818 61.0916C70.3766 61.0879 70.0831 60.9741 69.8552 60.771C69.6274 60.5679 69.4807 60.2894 69.442 59.9866L68.4706 54.5188H72.8906L71.9143 60.0255C71.8702 60.3212 71.7216 60.5913 71.4955 60.7869C71.2694 60.9824 70.9807 61.0906 70.6818 61.0916ZM70.6818 36.1577C69.8981 36.1616 69.1359 36.4147 68.5056 36.8806C67.8754 37.3465 67.4098 38.0009 67.1762 38.749L67.1422 38.5462C66.9833 37.537 66.4702 36.6174 65.6948 35.9522C64.9193 35.287 63.9323 34.9197 62.9107 34.9162C61.8891 34.9127 60.8996 35.2732 60.1196 35.933C59.3397 36.5929 58.8202 37.509 58.6544 38.5171L58.5026 39.4096L58.2355 37.7873C58.0557 36.6306 57.469 35.5761 56.581 34.8136C55.6929 34.0511 54.5618 33.6305 53.3913 33.6278C52.2208 33.625 51.0877 34.0401 50.196 34.7984C49.3043 35.5567 48.7126 36.6084 48.5274 37.7642L48.1886 39.8224L47.8547 37.7873C47.6741 36.6314 47.0871 35.5779 46.1993 34.8162C45.3114 34.0544 44.1809 33.6344 43.0111 33.6316C41.8412 33.6288 40.7087 34.0435 39.8173 34.801C38.9258 35.5585 38.3338 36.6092 38.1478 37.7642L37.8758 39.412C37.6208 33.938 30.3582 33.1597 29.2398 38.5171L29.201 38.7514C28.9501 37.9646 28.4417 37.285 27.7578 36.8221C27.0738 36.3592 26.2539 36.1399 25.4302 36.1995C24.6065 36.2591 23.8267 36.5941 23.2165 37.1506C22.6062 37.7071 22.201 38.4527 22.0659 39.2675L21.0459 45.0231C21.002 45.3412 21.0265 45.665 21.1178 45.9729C21.209 46.2808 21.3648 46.5657 21.5749 46.8085C21.785 47.0514 22.0445 47.2466 22.3361 47.3812C22.6276 47.5157 22.9445 47.5866 23.2656 47.5889H28.1288C28.1701 47.5889 28.2101 47.578 28.2502 47.5768C28.4662 47.9699 28.7838 48.2978 29.1697 48.5263C29.5557 48.7549 29.9959 48.8756 30.4444 48.876H36.5218C36.9991 48.8105 37.01 48.8129 37.2662 49.2075C37.525 49.5071 37.8453 49.7474 38.2052 49.9121C38.5652 50.0768 38.9565 50.162 39.3523 50.162H46.6465C47.198 50.1587 47.7358 49.9894 48.1898 49.6762C48.6435 49.9892 49.1808 50.1584 49.7319 50.162H57.0273C57.4231 50.162 57.8144 50.0768 58.1744 49.9121C58.5343 49.7474 58.8546 49.5071 59.1134 49.2075C59.3623 48.7995 59.4012 48.819 59.8578 48.8748H65.9352C66.3836 48.8745 66.8236 48.7537 67.2094 48.5251C67.5952 48.2966 67.9125 47.9686 68.1282 47.5756C68.1695 47.578 68.2095 47.5889 68.2508 47.5889H73.114C73.4383 47.587 73.7584 47.5152 74.0525 47.3783C74.3465 47.2413 74.6075 47.0426 74.8176 46.7955C75.0278 46.5485 75.1821 46.259 75.2702 45.9468C75.3582 45.6346 75.3778 45.3072 75.3276 44.9867L74.3198 39.3063C74.1893 38.4338 73.7509 37.6367 73.0839 37.0592C72.4169 36.4817 71.5653 36.162 70.683 36.1577H70.6818ZM23.4866 45.1604L24.4629 39.6536C24.5067 39.3577 24.6552 39.0874 24.8813 38.8915C25.1074 38.6957 25.3962 38.5874 25.6954 38.5863C26.0005 38.59 26.2941 38.7038 26.5219 38.9069C26.7498 39.11 26.8965 39.3885 26.9351 39.6913L27.9066 45.1604H23.4866ZM30.3667 46.3941L31.638 38.8947C31.7012 38.4481 31.9244 38.0396 32.2661 37.7451C32.6078 37.4507 33.0448 37.2904 33.4959 37.2939C33.9469 37.2975 34.3814 37.4647 34.7184 37.7645C35.0554 38.0643 35.2721 38.4763 35.3282 38.9239L36.5206 46.4463L30.3667 46.3941ZM46.893 47.6181C46.8625 47.654 46.8245 47.6828 46.7817 47.7026C46.7389 47.7223 46.6924 47.7324 46.6452 47.7322H39.3511C39.3054 47.7338 39.26 47.7256 39.2178 47.7082C39.1755 47.6908 39.1375 47.6645 39.1063 47.6311C39.0752 47.5977 39.0515 47.558 39.0369 47.5147C39.0224 47.4714 39.0173 47.4255 39.022 47.3801L40.5459 38.1358C40.6313 37.5441 40.9277 37.0032 41.3806 36.6129C41.8334 36.2227 42.4121 36.0093 43.01 36.0123C43.6078 36.0153 44.1843 36.2343 44.6333 36.629C45.0823 37.0238 45.3734 37.5676 45.4528 38.1601L46.9707 47.357C46.9779 47.4035 46.9747 47.4511 46.9613 47.4963C46.9478 47.5415 46.9245 47.5831 46.893 47.6181ZM57.275 47.6181C57.2443 47.6541 57.2062 47.683 57.1632 47.7027C57.1202 47.7224 57.0734 47.7325 57.0261 47.7322H49.7307C49.6852 47.7336 49.6398 47.7253 49.5977 47.7078C49.5557 47.6903 49.5178 47.664 49.4868 47.6306C49.4557 47.5973 49.4322 47.5576 49.4177 47.5144C49.4032 47.4712 49.3982 47.4254 49.4029 47.3801L50.9268 38.1358C51.0121 37.5441 51.3086 37.0032 51.7614 36.6129C52.2143 36.2227 52.793 36.0093 53.3908 36.0123C53.9886 36.0153 54.5652 36.2343 55.0141 36.629C55.4631 37.0238 55.7542 37.5676 55.8337 38.1601L57.3515 47.357C57.3588 47.4035 57.3556 47.4511 57.3421 47.4963C57.3287 47.5415 57.3053 47.5831 57.2738 47.6181H57.275ZM59.7813 46.3941L61.0526 38.8947C61.1167 38.449 61.3403 38.0417 61.6817 37.7482C62.0232 37.4546 62.4595 37.2949 62.9098 37.2984C63.3601 37.302 63.7938 37.4686 64.1306 37.7675C64.4674 38.0664 64.6845 38.4772 64.7416 38.9239L65.934 46.4463L59.7813 46.3941ZM68.473 45.1604L69.4481 39.6536C69.4915 39.3535 69.6427 39.0795 69.8734 38.8828C70.1042 38.6862 70.3987 38.5803 70.7019 38.5851C71.0051 38.5898 71.2962 38.7049 71.5206 38.9087C71.7451 39.1125 71.8877 39.3912 71.9216 39.6925L72.8918 45.1604H68.473Z" stroke="#1C3542" stroke-width="0.1" mask="url(#path-2-outside-1_2706_191)"/>
<path d="M54.7485 19.838C55.7589 19.8394 56.7275 20.2417 57.4419 20.9562C58.1563 21.6708 58.5581 22.64 58.5591 23.6505V25.0665C61.8133 24.1291 65.0863 24.6861 67.6919 25.6866C68.999 26.1886 70.1388 26.8025 71.0249 27.3966C71.9077 27.9885 72.5405 28.5619 72.8354 28.9865C73.4631 29.6195 74.2815 30.0294 75.1646 30.1515C75.9371 30.2583 76.7215 30.1397 77.4253 29.8146L77.7222 29.6622C78.0753 29.4376 78.4825 29.3125 78.9009 29.299C79.3197 29.2854 79.7348 29.3843 80.1021 29.5861C80.4694 29.788 80.7757 30.0855 80.9888 30.4464C81.2018 30.8073 81.3146 31.2188 81.314 31.6378V31.6388C81.2957 33.3776 81.1477 34.6691 80.7612 35.7296C80.4227 36.6583 79.9018 37.4092 79.1255 38.1271L78.7769 38.4327C78.5311 38.6512 78.2086 38.7635 77.8804 38.7443C77.552 38.725 77.2444 38.5751 77.0259 38.3292C76.8075 38.0834 76.6951 37.761 76.7144 37.4327C76.7337 37.1044 76.8826 36.7968 77.1284 36.5782L77.1304 36.5773C77.2954 36.4485 77.4527 36.3099 77.6011 36.1622C77.9757 35.7786 78.2773 35.3403 78.4888 34.6779C78.6982 34.0217 78.8188 33.1446 78.8325 31.881C77.6029 32.5504 76.1903 32.8076 74.8032 32.6115C73.4023 32.4133 72.1039 31.7648 71.104 30.7638L71.1021 30.7618C68.8641 28.1297 62.3587 25.108 55.1411 28.9493L54.7964 29.1378C54.5062 29.2923 54.1665 29.3256 53.8521 29.2296C53.5376 29.1336 53.2741 28.9163 53.1196 28.6261C52.9653 28.3359 52.9319 27.9961 53.0278 27.6818C53.1238 27.3674 53.3412 27.1038 53.6313 26.9493C54.424 26.53 55.2419 26.1604 56.0806 25.8429V23.6505C56.0802 23.2976 55.9403 22.9588 55.6909 22.7091C55.4414 22.4594 55.1026 22.3192 54.7495 22.3185H41.0884C40.7352 22.3189 40.3967 22.4594 40.147 22.7091C39.8972 22.9589 39.7567 23.2973 39.7563 23.6505V25.838C41.5344 26.5194 43.2198 27.4218 44.7729 28.5236V28.5245C45.4541 29.0358 46.2497 29.3741 47.0903 29.5109C47.9309 29.6476 48.792 29.5786 49.6001 29.3097L49.7183 29.2765C49.9961 29.212 50.2893 29.2449 50.5474 29.3722C50.8421 29.5177 51.0667 29.7748 51.1724 30.0861C51.2779 30.3973 51.2561 30.7376 51.1108 31.0323C50.9654 31.3273 50.7084 31.5527 50.397 31.6583C49.2121 32.0527 47.9494 32.156 46.7163 31.9591C45.6374 31.7868 44.6081 31.389 43.6958 30.7941L43.312 30.5265C40.4491 28.3492 36.9677 27.1382 33.3716 27.0685C30.377 27.2845 28.2841 28.14 26.9087 28.9738C25.5333 29.8076 24.8746 30.6197 24.7466 30.7521C23.7535 31.7881 22.4397 32.4589 21.0181 32.6554C19.6113 32.8497 18.1808 32.5678 16.9526 31.8566C17.0442 33.4975 17.172 34.4272 17.478 35.1105C17.7863 35.7985 18.277 36.2388 19.105 36.9054L19.1987 36.9845C19.4078 37.1782 19.5451 37.4389 19.5845 37.7238C19.6294 38.0495 19.5427 38.3796 19.3442 38.6417C19.1457 38.9038 18.8516 39.0762 18.5259 39.1212C18.2002 39.1662 17.87 39.0804 17.6079 38.882C16.4329 37.9964 15.6686 37.1468 15.1958 36.0363C14.7233 34.9264 14.5424 33.5582 14.5278 31.6388V31.6378C14.5291 31.2277 14.6388 30.8252 14.8452 30.4708C15.0518 30.1163 15.3482 29.8217 15.7046 29.6183C16.061 29.4149 16.4651 29.3092 16.8755 29.3116C17.2347 29.3138 17.5878 29.3992 17.9077 29.5597L18.0425 29.6329L18.3364 29.799C19.0361 30.1558 19.8292 30.297 20.6138 30.2003C21.5102 30.0898 22.3413 29.6748 22.9692 29.0255C23.0609 28.8691 23.242 28.6611 23.5005 28.421C23.7625 28.1777 24.1059 27.8995 24.519 27.6075C25.3452 27.0238 26.4532 26.382 27.7593 25.8409C30.364 24.7619 33.7589 24.0828 37.2778 25.0675V23.6505C37.2789 22.64 37.6806 21.6708 38.395 20.9562C39.1094 20.2417 40.078 19.8394 41.0884 19.838H54.7485Z" fill="#1C3542" stroke="#1C3542" stroke-width="0.05"/>
</svg>
