<svg width="64" height="64" viewBox="0 0 64 64" fill="none" xmlns="http://www.w3.org/2000/svg">
<rect width="64" height="64" fill="white"/>
<g clip-path="url(#clip0_2561_105)">
<path d="M46.7172 19.6583L49.1553 18.451C49.377 18.3168 49.5099 18.0933 49.5099 17.8697C49.5099 17.6461 49.377 17.3778 49.1553 17.2884L45.9193 15.6786L44.3235 12.4143C44.1905 12.1907 43.9688 12.0566 43.7472 12.0566C43.5255 12.0566 43.2596 12.1907 43.1709 12.4143L41.5751 15.6786L38.5164 17.1989C30.5371 15.9916 19.8982 17.0201 14.8003 21.3575C12.9385 22.8779 12.0519 24.7113 12.0519 26.7682V31.2845C12.0519 33.5203 13.6921 35.3984 15.8642 35.7561V38.5733C15.8642 38.931 16.1745 39.244 16.5292 39.244H27.8331V44.4758C27.8331 44.8335 28.1434 45.1465 28.498 45.1465H36.7432C37.0978 45.1465 37.4081 44.8335 37.4081 44.4758V39.1993H47.4708C47.8254 39.1993 48.1357 38.8863 48.1357 38.5285V35.7114C50.2635 35.3984 51.948 33.5203 51.948 31.2398V26.7682C51.948 23.9064 50.1306 21.447 46.7172 19.6583ZM42.3287 16.7518C42.4616 16.7071 42.5503 16.5729 42.639 16.4388L43.7028 14.203L44.7667 16.4388C44.8111 16.5729 44.9441 16.6623 45.077 16.7518L47.2935 17.825L45.077 18.8982C44.9441 18.9429 44.8554 19.077 44.7667 19.2112L43.7028 21.447L42.639 19.2112C42.5946 19.077 42.4616 18.9876 42.3287 18.8982L40.1122 17.825L42.3287 16.7518ZM17.1941 31.9553C17.1941 31.1607 17.507 30.3986 18.064 29.8368C18.621 29.2749 19.3764 28.9593 20.1641 28.9593C20.9519 28.9593 21.7073 29.2749 22.2643 29.8368C22.8213 30.3986 23.1342 31.1607 23.1342 31.9553V37.8578H17.1941V31.9553ZM24.4197 37.8578V31.0162C24.4197 29.0934 25.9712 27.5284 27.8774 27.5284C29.7835 27.5284 31.3351 29.0934 31.3351 31.0162V32.2683C29.3403 32.8496 27.8331 34.683 27.8331 36.9188V37.8578H24.4197ZM36.0783 43.7603H29.1629V36.9188C29.1629 34.996 30.7145 33.4309 32.6206 33.4309C34.5267 33.4309 36.0783 34.996 36.0783 36.9188V43.7603ZM32.6649 32.0894V31.0162C32.6649 29.0934 34.2164 27.5284 36.1226 27.5284C38.0287 27.5284 39.5803 29.0934 39.5803 31.0162V37.8578H37.4081V36.9188C37.4081 34.2805 35.2803 32.1341 32.6649 32.0894ZM46.8059 37.8578H40.9101V31.9553C40.9101 31.1607 41.223 30.3986 41.78 29.8368C42.337 29.2749 43.0925 28.9593 43.8802 28.9593C44.6679 28.9593 45.4233 29.2749 45.9803 29.8368C46.5373 30.3986 46.8502 31.1607 46.8502 31.9553V37.8578H46.8059ZM50.6182 31.2845C50.6182 32.8049 49.5543 34.0569 48.1357 34.3699V32C48.1357 29.63 46.2296 27.6625 43.8358 27.6625C42.506 27.6625 41.3091 28.2885 40.5112 29.2276C39.8019 27.4389 38.0731 26.2316 36.0783 26.2316C34.3051 26.2316 32.7979 27.2154 31.9557 28.6016C31.1134 27.1706 29.6062 26.2316 27.8331 26.2316C25.8383 26.2316 24.1094 27.4837 23.4002 29.2276C22.6022 28.2438 21.4054 27.6625 20.0755 27.6625C17.7261 27.6625 15.7756 29.5853 15.7756 32V34.3699C14.4457 34.0569 13.3818 32.7602 13.3818 31.2845V26.7682C13.3818 25.1137 14.1354 23.6381 15.5983 22.386C19.7652 18.8087 29.5176 17.1542 38.3834 18.5404L41.5307 20.1055L43.1266 23.3698C43.2596 23.5933 43.4812 23.7275 43.7028 23.7275C43.9245 23.7275 44.1905 23.5933 44.2791 23.3698L45.609 20.6421C48.0471 21.76 50.6182 23.7275 50.6182 26.7682V31.2845ZM24.1094 46.2197L21.3167 44.8335L19.9425 42.0164C19.8095 41.7928 19.5879 41.6587 19.3662 41.6587C19.1446 41.6587 18.8786 41.7928 18.7899 42.0164L17.4158 44.8335L14.623 46.2197C14.4014 46.3539 14.2684 46.5775 14.2684 46.801C14.2684 47.0246 14.4014 47.2929 14.623 47.3823L17.4158 48.7685L18.7899 51.5857C18.9229 51.8092 19.1446 51.9434 19.3662 51.9434C19.5879 51.9434 19.8538 51.8092 19.9425 51.5857L21.3167 48.7685L24.1094 47.3823C24.3311 47.2482 24.4641 47.0246 24.4641 46.801C24.4641 46.5775 24.3311 46.3539 24.1094 46.2197ZM20.5631 47.6954C20.4301 47.7401 20.3415 47.8742 20.2528 48.0084L19.4106 49.797L18.5683 48.0084C18.524 47.8742 18.391 47.7848 18.258 47.6954L16.4848 46.8457L18.258 45.9961C18.391 45.9514 18.4796 45.8173 18.5683 45.6831L19.4106 43.8945L20.2528 45.6831C20.2971 45.8173 20.4301 45.9067 20.5631 45.9961L22.3363 46.8457L20.5631 47.6954Z" fill="#23BFCF"/>
</g>
<defs>
<clipPath id="clip0_2561_105">
<rect width="40" height="40" fill="white" transform="translate(12 12)"/>
</clipPath>
</defs>
</svg>
