<svg width="96" height="87" viewBox="0 0 96 87" fill="none" xmlns="http://www.w3.org/2000/svg">
<g clip-path="url(#clip0_2368_51)">
<path d="M83.012 55.8245C74.1047 67.6914 63.1781 81.8949 47.0018 82.9077C40.1944 83.3336 33.5716 80.8244 28.6679 76.1053C23.2681 70.8912 21.0297 63.9737 21.2143 56.5612C21.3413 51.5313 22.2874 46.4323 23.9373 41.6096C28.5525 41.2298 33.1331 40.0788 37.1599 38.3753C43.7827 35.5783 53.2208 29.2363 49.9902 20.7418C48.5364 16.932 44.7635 15.1709 40.8405 16.0342C36.7907 16.932 33.2139 20.0627 30.3986 22.9633C26.3488 27.1414 23.3143 32.2059 21.1566 37.6041C20.1413 37.6156 19.126 37.5926 18.1221 37.535C14.5338 37.3163 10.6455 36.4761 7.81869 34.128C4.89957 31.6879 3.87268 28.0277 4.04575 24.3445C4.43804 16.2184 9.93015 8.75983 15.7915 3.52275C17.7299 1.79623 14.8684 -1.04675 12.9416 0.679757C6.67642 6.26214 1.33432 13.9163 0.203589 22.3762C-0.304084 26.1976 0.111284 30.2261 2.1189 33.5871C4.20728 37.0746 7.70331 39.3076 11.5339 40.4701C14.1184 41.2528 16.876 41.6556 19.6682 41.7362C19.3452 42.7951 19.0452 43.8541 18.7913 44.9245C16.6568 53.6606 16.0915 63.4327 20.3259 71.6394C23.8219 78.4418 30.2832 83.6904 37.6099 85.8773C47.0595 88.6973 57.1899 85.7738 65.1742 80.4446C73.9085 74.6205 80.2775 66.1376 86.4965 57.8503C88.0541 55.7785 84.5581 53.7757 83.012 55.8245ZM26.6603 35.1409C28.2525 32.0562 30.1794 29.1327 32.5331 26.5659C34.8523 24.0337 37.7829 21.1792 41.1405 20.1203C44.4865 19.0729 47.0018 21.4094 46.5288 24.8394C46.0557 28.2234 42.7904 30.6635 40.1021 32.344C35.7522 35.0604 30.7447 36.6603 25.6334 37.2818C25.968 36.5682 26.3026 35.843 26.6603 35.1409Z" fill="white"/>
<path d="M92.6693 40.4586C82.8043 45.7878 76.6891 48.9991 68.924 54.1671C68.0125 54.7772 67.7472 56.0778 68.2664 56.9411C68.8779 57.9539 70.6547 58.069 71.5893 57.5281C78.9506 53.2463 83.1043 50.8983 91.6078 45.8569C91.4001 52.924 91.3886 59.9912 91.6078 67.0469C91.6886 69.6367 95.5192 69.5331 95.6346 66.9433C96.0269 58.4259 95.8076 51.5313 95.7499 42.1161C95.7384 40.5737 93.9616 39.7565 92.6693 40.4586Z" fill="white"/>
</g>
<defs>
<clipPath id="clip0_2368_51">
<rect width="96" height="87" fill="white"/>
</clipPath>
</defs>
</svg>
