<svg width="209" height="60" viewBox="0 0 209 60" fill="none" xmlns="http://www.w3.org/2000/svg">
<path d="M199.515 52.2453C203.621 52.2453 206.529 51.5094 208.696 49.9245V42.7358C206.472 44.2641 203.792 45.2264 200.029 45.2264C193.699 45.2264 191.076 40.3585 191.076 32.6604C191.076 24.566 194.269 20.434 200.086 20.434C203.507 20.434 206.871 21.6226 208.639 22.7547V15.283C206.757 14.2642 203.507 13.5283 199.059 13.5283C187.712 13.5283 181.839 21.6226 181.839 32.9434C181.896 45.3396 187.655 52.2453 199.515 52.2453ZM144.034 48.9623V41.7736C141.297 43.6415 136.622 45.283 132.345 45.283C125.845 45.283 123.393 42.2264 122.994 36H144.433V31.3585C144.433 18.3962 138.674 13.5283 129.836 13.5283C119.002 13.5283 113.87 21.7358 113.87 33C113.87 45.9623 120.314 52.2453 131.604 52.2453C137.249 52.2453 141.411 50.717 144.034 48.9623ZM62.6657 14.2075V28.9245H50.8054V14.2075H41.9102V51.5094H50.8054V35.9434H62.6657V51.5094H71.5609V14.2075H62.6657ZM111.646 44.4906H107.712V14.2075H81.8247V17.3774C81.8247 26.4906 81.2545 38.2641 78.1183 44.4906H75.2673V60H83.4783V51.5094H103.378V60H111.589V44.4906H111.646ZM172.373 51.5094H182.466L168.211 31.4151L180.756 14.2075H171.803L159.259 31.4151V14.2075H150.364V51.5094H159.259V33.1698L172.373 51.5094ZM129.608 20.434C133.999 20.434 135.367 24.0566 135.367 28.7547V29.4906H122.994C123.222 23.5472 125.388 20.434 129.608 20.434ZM98.8168 44.4906H86.2723C88.7242 38.8868 89.4084 28.6981 89.4084 22.2453V21.1132H98.8168V44.4906Z" fill="black"/>
<path d="M34.4975 51.5094H25.4312V6.96226H21.3828C13.9701 6.96226 10.0927 10.6415 10.0927 16.1321C10.0927 22.3585 12.7726 25.2453 18.3036 28.9245L22.8653 31.9811L9.75054 51.5094H0L11.8033 34.0755C5.01782 29.2642 1.19743 24.566 1.19743 16.6415C1.19743 6.73585 8.15396 0 21.3257 0H34.4405V51.5094H34.4975Z" fill="#FC3F1D"/>
</svg>
