<svg width="200" height="200" viewBox="0 0 200 200" fill="none" xmlns="http://www.w3.org/2000/svg">
  <!-- Фон -->
  <rect width="200" height="200" fill="#f5f5f5"/>
  
  <!-- Лицо -->
  <circle cx="100" cy="80" r="40" fill="#ffdbac"/>
  
  <!-- Волосы -->
  <path d="M60 50 Q100 30 140 50 Q130 70 120 80 Q80 90 60 80 Z" fill="#f4d03f"/>
  
  <!-- Глаза -->
  <circle cx="85" cy="75" r="4" fill="#2c3e50"/>
  <circle cx="115" cy="75" r="4" fill="#2c3e50"/>
  
  <!-- Брови -->
  <path d="M75 65 Q85 63 95 65" stroke="#2c3e50" stroke-width="2" fill="none"/>
  <path d="M105 65 Q115 63 125 65" stroke="#2c3e50" stroke-width="2" fill="none"/>
  
  <!-- Улыбка -->
  <path d="M85 90 Q100 95 115 90" stroke="#27ae60" stroke-width="2" fill="none"/>
  
  <!-- Нос -->
  <path d="M95 85 L100 90 L105 85" stroke="#d4a574" stroke-width="1" fill="none"/>
  
  <!-- Зубы (здоровые) -->
  <rect x="85" y="95" width="30" height="8" rx="2" fill="white" stroke="#bdc3c7" stroke-width="1"/>
  <rect x="87" y="95" width="4" height="8" rx="1" fill="white"/>
  <rect x="93" y="95" width="4" height="8" rx="1" fill="white"/>
  <rect x="99" y="95" width="4" height="8" rx="1" fill="white"/>
  <rect x="105" y="95" width="4" height="8" rx="1" fill="white"/>
  <rect x="111" y="95" width="4" height="8" rx="1" fill="white"/>
  
  <!-- Одежда -->
  <path d="M70 120 L130 120 L125 200 L75 200 Z" fill="#3498db"/>
  
  <!-- Воротник -->
  <path d="M80 120 L120 120 L115 135 L85 135 Z" fill="#2980b9"/>
  
  <!-- Текст "ДО" -->
  <text x="100" y="180" text-anchor="middle" font-family="Arial, sans-serif" font-size="16" font-weight="bold" fill="#27ae60">ДО</text>
</svg>
