<svg width="120" height="120" viewBox="0 0 120 120" fill="none" xmlns="http://www.w3.org/2000/svg">
  <!-- Фон -->
  <circle cx="60" cy="60" r="60" fill="#e3f2fd"/>
  
  <!-- Волосы -->
  <path d="M60 25c-8 0-15 7-15 15s7 15 15 15 15-7 15-15-7-15-15-15z" fill="#8d6e63"/>
  <path d="M45 35c0-8 7-15 15-15s15 7 15 15" fill="#8d6e63"/>
  
  <!-- Лицо -->
  <circle cx="60" cy="60" r="25" fill="#ffdbac"/>
  
  <!-- Глаза -->
  <circle cx="52" cy="55" r="3" fill="#2c3e50"/>
  <circle cx="68" cy="55" r="3" fill="#2c3e50"/>
  
  <!-- Брови -->
  <path d="M48 50 Q52 48 56 50" stroke="#2c3e50" stroke-width="2" fill="none"/>
  <path d="M64 50 Q68 48 72 50" stroke="#2c3e50" stroke-width="2" fill="none"/>
  
  <!-- Улыбка -->
  <path d="M50 65 Q60 70 70 65" stroke="#e74c3c" stroke-width="2" fill="none"/>
  
  <!-- Нос -->
  <path d="M58 60 L60 65 L62 60" stroke="#d4a574" stroke-width="1" fill="none"/>
  
  <!-- Одежда -->
  <path d="M35 85 L85 85 L80 120 L40 120 Z" fill="#3498db"/>
  
  <!-- Воротник -->
  <path d="M45 85 L75 85 L70 95 L50 95 Z" fill="#2980b9"/>
  
  <!-- Серьга -->
  <circle cx="75" cy="55" r="2" fill="#f39c12"/>
  
  <!-- Ожерелье -->
  <circle cx="60" cy="90" r="3" fill="#f39c12"/>
  
  <!-- Дополнительные детали -->
  <circle cx="60" cy="60" r="30" stroke="#bdc3c7" stroke-width="1" fill="none" opacity="0.3"/>
</svg>
