<svg width="400" height="300" viewBox="0 0 400 300" fill="none" xmlns="http://www.w3.org/2000/svg">
  <!-- Основной корпус печи -->
  <rect x="50" y="80" width="200" height="120" rx="10" fill="#f5f5f5" stroke="#ddd" stroke-width="2"/>
  
  <!-- Дверца печи -->
  <rect x="60" y="90" width="180" height="100" rx="5" fill="#e8e8e8" stroke="#ccc" stroke-width="1"/>
  
  <!-- Стеклянное окно -->
  <rect x="70" y="100" width="160" height="80" rx="3" fill="#b3d9ff" opacity="0.3"/>
  
  <!-- Поддон с протезами -->
  <ellipse cx="150" cy="140" rx="60" ry="25" fill="#fff" stroke="#ddd" stroke-width="1"/>
  
  <!-- Протезы на поддоне -->
  <circle cx="120" cy="135" r="3" fill="#fff" stroke="#ccc" stroke-width="1"/>
  <circle cx="135" cy="130" r="3" fill="#fff" stroke="#ccc" stroke-width="1"/>
  <circle cx="150" cy="135" r="3" fill="#fff" stroke="#ccc" stroke-width="1"/>
  <circle cx="165" cy="130" r="3" fill="#fff" stroke="#ccc" stroke-width="1"/>
  <circle cx="180" cy="135" r="3" fill="#fff" stroke="#ccc" stroke-width="1"/>
  
  <!-- Предупреждающие треугольники -->
  <path d="M80 70L90 60L100 70L90 80Z" fill="#ffcc00"/>
  <path d="M200 70L210 60L220 70L210 80Z" fill="#ffcc00"/>
  
  <!-- Панель управления -->
  <rect x="280" y="100" width="100" height="80" rx="8" fill="#2a2a2a" stroke="#444" stroke-width="2"/>
  
  <!-- Экран -->
  <rect x="290" y="110" width="80" height="20" rx="3" fill="#00ff00" opacity="0.8"/>
  <text x="295" y="125" font-family="monospace" font-size="8" fill="#000">Programat P12</text>
  
  <!-- Кнопки -->
  <circle cx="300" cy="145" r="6" fill="#ff0000"/>
  <text x="295" y="149" font-family="monospace" font-size="6" fill="#fff">STOP</text>
  
  <circle cx="320" cy="145" r="6" fill="#00ff00"/>
  <text x="315" y="149" font-family="monospace" font-size="6" fill="#000">START</text>
  
  <!-- Стрелки навигации -->
  <path d="M340 140L345 145L340 150" stroke="#fff" stroke-width="2" stroke-linecap="round" stroke-linejoin="round"/>
  <path d="M350 140L355 145L350 150" stroke="#fff" stroke-width="2" stroke-linecap="round" stroke-linejoin="round"/>
  <path d="M345 135L350 140L345 145" stroke="#fff" stroke-width="2" stroke-linecap="round" stroke-linejoin="round"/>
  <path d="M345 145L350 150L345 155" stroke="#fff" stroke-width="2" stroke-linecap="round" stroke-linejoin="round"/>
  
  <!-- Дополнительные кнопки -->
  <rect x="290" y="160" width="15" height="8" rx="2" fill="#666"/>
  <rect x="310" y="160" width="15" height="8" rx="2" fill="#666"/>
  <rect x="330" y="160" width="15" height="8" rx="2" fill="#666"/>
  
  <!-- Индикаторы -->
  <circle cx="300" cy="175" r="3" fill="#00ff00"/>
  <circle cx="310" cy="175" r="3" fill="#ffcc00"/>
  <circle cx="320" cy="175" r="3" fill="#ff0000"/>
  
  <!-- Основание -->
  <rect x="40" y="210" width="220" height="20" rx="5" fill="#ddd"/>
  <rect x="270" y="190" width="120" height="15" rx="3" fill="#ddd"/>
</svg>
