<svg width="120" height="120" viewBox="0 0 120 120" fill="none" xmlns="http://www.w3.org/2000/svg">
  <!-- Фон -->
  <circle cx="60" cy="60" r="60" fill="#f8f9fa"/>
  
  <!-- Волосы -->
  <path d="M60 25C45 25 35 35 35 50C35 65 45 75 60 75C75 75 85 65 85 50C85 35 75 25 60 25Z" fill="#2c3e50"/>
  
  <!-- Лицо -->
  <circle cx="60" cy="55" r="25" fill="#ffdbac"/>
  
  <!-- Глаза -->
  <ellipse cx="52" cy="50" rx="3" ry="4" fill="#2c3e50"/>
  <ellipse cx="68" cy="50" rx="3" ry="4" fill="#2c3e50"/>
  
  <!-- Зрачки -->
  <circle cx="52" cy="50" r="1.5" fill="#2c3e50"/>
  <circle cx="68" cy="50" r="1.5" fill="#2c3e50"/>
  
  <!-- Нос -->
  <path d="M60 55L58 60L62 60L60 55Z" fill="#ffdbac"/>
  
  <!-- Улыбка -->
  <path d="M50 60Q60 70 70 60" stroke="#e74c3c" stroke-width="2" fill="none" stroke-linecap="round"/>
  
  <!-- Брови -->
  <path d="M45 45Q50 42 55 45" stroke="#2c3e50" stroke-width="2" fill="none" stroke-linecap="round"/>
  <path d="M65 45Q70 42 75 45" stroke="#2c3e50" stroke-width="2" fill="none" stroke-linecap="round"/>
  
  <!-- Одежда -->
  <path d="M40 80L80 80L85 95L35 95L40 80Z" fill="#3498db"/>
  
  <!-- Воротник -->
  <path d="M45 80L75 80L70 85L50 85L45 80Z" fill="#2980b9"/>
  
  <!-- Руки -->
  <ellipse cx="35" cy="85" rx="8" ry="15" fill="#ffdbac"/>
  <ellipse cx="85" cy="85" rx="8" ry="15" fill="#ffdbac"/>
  
  <!-- Аксессуары -->
  <circle cx="60" cy="90" r="3" fill="#f39c12"/>
  <circle cx="60" cy="90" r="1.5" fill="#e67e22"/>
</svg>










